<svg width="81" height="80" viewBox="0 0 81 80" fill="none" xmlns="http://www.w3.org/2000/svg">
    <g id="bag">
        <path id="Vector"
              d="M40.2594 69.7601H67.2194C71.8434 69.7601 76.0754 68.2161 76.0754 62.0561V26.2401C76.0754 20.0801 71.8354 18.5361 67.2194 18.5361H13.2994C8.67536 18.5361 4.44336 20.0801 4.44336 26.2401V62.0561C4.44336 68.2161 8.68336 69.7601 13.2994 69.7601H40.2594Z"
              fill="white"/>
        <path id="Vector_2"
              d="M42.684 69.7601H67.532C71.796 69.7601 75.7 68.2161 75.7 62.0561V26.2401C75.7 20.0801 71.796 18.5361 67.532 18.5361H17.836C13.572 18.5361 9.66797 20.0801 9.66797 26.2401V62.0561C9.66797 68.2161 13.572 69.7601 17.836 69.7601H42.684Z"
              fill="#007DBC"/>
        <path id="Vector_3"
              d="M40.2594 69.7601H67.2194C71.8434 69.7601 76.0754 68.2161 76.0754 62.0561V26.2401C76.0754 20.0801 71.8354 18.5361 67.2194 18.5361H13.2994C8.67536 18.5361 4.44336 20.0801 4.44336 26.2401V62.0561C4.44336 68.2161 8.68336 69.7601 13.2994 69.7601H40.2594Z"
              stroke="#002E6D" stroke-width="2.4" stroke-linejoin="round"/>
        <path id="Vector_4"
              d="M76.0754 45.4163C76.0754 45.4163 75.0834 48.8003 68.7234 48.8003H11.7954C5.39536 48.8003 4.44336 45.3843 4.44336 45.3843"
              stroke="#002E6D" stroke-width="2.4" stroke-linejoin="round"/>
        <path id="Vector_5"
              d="M25.2997 48.8002V43.8562C25.2997 43.3442 25.0197 42.9922 24.3477 42.9922H18.2997C17.6357 42.9922 17.3477 43.3442 17.3477 43.8562V53.8082C17.3477 54.3202 17.6277 54.6722 18.2997 54.6722H24.3237C24.9877 54.6722 25.2757 54.3202 25.2757 53.8082L25.2997 48.8002Z"
              fill="white" stroke="#002E6D" stroke-width="2.4" stroke-linejoin="round"/>
        <path id="Vector_6"
              d="M63.1407 48.8002V43.8562C63.1407 43.3442 62.8607 42.9922 62.1887 42.9922H56.1727C55.5087 42.9922 55.2207 43.3442 55.2207 43.8562V53.8082C55.2207 54.3202 55.5007 54.6722 56.1727 54.6722H62.1967C62.8607 54.6722 63.1487 54.3202 63.1487 53.8082L63.1407 48.8002Z"
              fill="white" stroke="#002E6D" stroke-width="2.4" stroke-linejoin="round"/>
        <path id="Vector_7"
              d="M51.9074 18.5358C51.883 17.2765 51.5941 16.0363 51.0594 14.8958C50.117 13.1146 48.537 11.7547 46.6354 11.0878C44.5159 10.4435 42.3056 10.149 40.0914 10.2158C37.8772 10.149 35.6669 10.4435 33.5474 11.0878C31.6457 11.7547 30.0658 13.1146 29.1234 14.8958C28.5887 16.0363 28.2998 17.2765 28.2754 18.5358"
              stroke="#002E6D" stroke-width="2.4" stroke-linejoin="round"/>
    </g>
</svg>
