<svg width="30" height="30" viewBox="0 0 30 30" fill="none" xmlns="http://www.w3.org/2000/svg">
    <path d="M15.381 15.5238C14.5079 15.5238 13.7659 15.2183 13.1548 14.6071C12.5437 13.996 12.2381 13.254 12.2381 12.381C12.2381 11.5079 12.5437 10.7659 13.1548 10.1548C13.7659 9.54365 14.5079 9.2381 15.381 9.2381C16.254 9.2381 16.996 9.54365 17.6071 10.1548C18.2183 10.7659 18.5238 11.5079 18.5238 12.381C18.5238 13.254 18.2183 13.996 17.6071 14.6071C16.996 15.2183 16.254 15.5238 15.381 15.5238ZM9.09524 26V17.9071C8.43175 17.1738 7.91667 16.3357 7.55 15.3929C7.18333 14.45 7 13.446 7 12.381C7 10.0413 7.8119 8.05952 9.43571 6.43571C11.0595 4.8119 13.0413 4 15.381 4C17.7206 4 19.7024 4.8119 21.3262 6.43571C22.95 8.05952 23.7619 10.0413 23.7619 12.381C23.7619 13.446 23.5786 14.45 23.2119 15.3929C22.8452 16.3357 22.3302 17.1738 21.6667 17.9071V26L15.381 23.9048L9.09524 26ZM15.381 18.6667C17.127 18.6667 18.6111 18.0556 19.8333 16.8333C21.0556 15.6111 21.6667 14.127 21.6667 12.381C21.6667 10.6349 21.0556 9.15079 19.8333 7.92857C18.6111 6.70635 17.127 6.09524 15.381 6.09524C13.6349 6.09524 12.1508 6.70635 10.9286 7.92857C9.70635 9.15079 9.09524 10.6349 9.09524 12.381C9.09524 14.127 9.70635 15.6111 10.9286 16.8333C12.1508 18.0556 13.6349 18.6667 15.381 18.6667ZM11.1905 22.8833L15.381 21.8095L19.5714 22.8833V19.6357C18.9603 19.9849 18.3012 20.2599 17.594 20.4607C16.8869 20.6615 16.1492 20.7619 15.381 20.7619C14.6127 20.7619 13.875 20.6615 13.1679 20.4607C12.4607 20.2599 11.8016 19.9849 11.1905 19.6357V22.8833Z"
          fill="#002E6D"/>
</svg>
