<svg width="100" height="100" viewBox="0 0 100 100" fill="none" xmlns="http://www.w3.org/2000/svg">
<g id="Property 1=checklist">
<path id="Vector" d="M87.2861 20.318L30.2256 4.6973C29.1922 4.4144 28.1252 5.0228 27.8423 6.05621L8.18173 77.8737C7.89883 78.9071 8.50723 79.9742 9.54064 80.2571L66.6011 95.8778C67.6345 96.1607 68.7016 95.5523 68.9845 94.5189L88.645 22.7014C88.9279 21.668 88.3195 20.6009 87.2861 20.318Z" fill="#007DBC"/>
<path id="Vector_2" d="M87.5199 19.8423L24.6687 2.82007L4.3003 78.0265L67.1515 95.0487L87.5199 19.8423Z" stroke="#002E6D" stroke-width="2.98376" stroke-linecap="round" stroke-linejoin="round"/>
<path id="Vector_3" d="M45.8001 84.24L11.5701 74.87L29.5401 9.23999L80.1601 23.1L65.4701 76.79L45.8001 84.24Z" fill="white" stroke="#002E6D" stroke-width="3" stroke-miterlimit="10"/>
<path id="Vector_4" d="M73.0899 22.2201C71.8099 19.5401 69.7299 18.3601 66.7799 17.5501L62.2399 16.3101C60.7999 15.9201 61.1499 14.8101 61.1499 14.8101C61.3706 14.0879 61.4442 13.3288 61.3665 12.5777C61.2888 11.8266 61.0612 11.0987 60.6974 10.437C60.3336 9.77526 59.8408 9.19321 59.2481 8.72521C58.6555 8.2572 57.9751 7.91274 57.2471 7.71219C56.5191 7.51163 55.7582 7.45905 55.0095 7.55755C54.2608 7.65604 53.5395 7.90362 52.8881 8.28565C52.2368 8.66767 51.6686 9.1764 51.2172 9.78175C50.7657 10.3871 50.4403 11.0768 50.2599 11.8101C50.2599 11.8101 49.9999 12.9401 48.5599 12.5501L43.9999 11.3201C40.9999 10.5101 38.6499 10.4801 36.1899 12.1301C34.7316 13.0487 33.6634 14.4729 33.1899 16.1301L53.3699 21.6501L73.5999 27.1701C74.042 25.5133 73.8605 23.7519 73.0899 22.2201Z" fill="#C5C5C5" stroke="#002E6D" stroke-width="3" stroke-miterlimit="10" stroke-linecap="round"/>
<path id="Vector_5" d="M57.2778 13.2832C57.4994 12.4735 57.0228 11.6374 56.2131 11.4158C55.4034 11.1941 54.5673 11.6708 54.3457 12.4805C54.124 13.2902 54.6007 14.1262 55.4104 14.3479C56.2201 14.5695 57.0561 14.0928 57.2778 13.2832Z" fill="#007DBC"/>
<path id="Vector_6" d="M64.2301 75.73L48.0701 71.3L44.8301 83.11" stroke="#002E6D" stroke-width="3" stroke-miterlimit="10" stroke-linecap="round"/>
<path id="Vector_7" d="M32.2101 26.8399L30.1001 28.6699C31.6589 29.8253 32.9513 31.3019 33.8901 32.9999C33.8901 32.9999 38.0601 27.8599 42.1701 26.6699L40.3001 24.1699C40.3001 24.1699 35.0701 27.8499 34.1201 29.9999L32.2101 26.8399Z" fill="#007DBC"/>
<path id="Vector_8" d="M28.7301 39.5499L26.6201 41.3799C28.18 42.5381 29.4725 44.0182 30.4101 45.7199C30.4101 45.7199 34.5801 40.5799 38.6901 39.3899L36.8201 36.8799C36.8201 36.8799 31.5901 40.5599 30.6501 42.7199L28.7301 39.5499Z" fill="#007DBC"/>
<path id="Vector_9" d="M25.2499 52.2601L23.1399 54.0901C24.6998 55.2483 25.9923 56.7284 26.9299 58.4301C26.9299 58.4301 31.0999 53.2901 35.2099 52.1001L33.3399 49.5901C33.3399 49.5901 28.1099 53.2701 27.1699 55.4301L25.2499 52.2601Z" fill="#007DBC"/>
<path id="Vector_10" d="M42.97 31.1299L68.92 38.2299" stroke="#007DBC" stroke-width="3" stroke-linecap="round" stroke-linejoin="round"/>
<path id="Vector_11" d="M39.49 43.8401L65.44 50.9401" stroke="#007DBC" stroke-width="3" stroke-linecap="round" stroke-linejoin="round"/>
<path id="Vector_12" d="M36.01 56.55L61.96 63.6501" stroke="#007DBC" stroke-width="3" stroke-linecap="round" stroke-linejoin="round"/>
<path id="Vector_13" d="M21.7699 65L19.6599 66.8001C21.2198 67.9583 22.5123 69.4384 23.4499 71.14C23.4499 71.14 27.6199 66 31.7299 64.81L29.8599 62.3C29.8599 62.3 24.6299 66.0001 23.6899 68.1501L21.7699 65Z" fill="#007DBC"/>
<path id="Vector_14" d="M32.53 69.26L44.5 72.5" stroke="#007DBC" stroke-width="3" stroke-linecap="round" stroke-linejoin="round"/>
<path id="Vector_15" d="M81.1299 87.0799L82.2899 88.7899C83.8938 88.4428 85.2957 87.4759 86.1899 86.0999L84.9999 84.3899L81.1299 87.0799Z" fill="white"/>
<path id="Vector_16" d="M57.53 48.8201L57.66 53.1601L81.13 87.0801L85.03 84.3901L61.55 50.4701L57.53 48.8201Z" fill="white"/>
<path id="Vector_17" d="M63 50.0599L59 48.3999L59.13 52.7399L83.72 88.3699C85.324 88.0228 86.7258 87.0559 87.62 85.6799L63 50.0599Z" fill="#007DBC"/>
<path id="Vector_18" d="M81.1 86.6799L82.26 88.3899L82.27 88.3999C83.8739 88.0528 85.2758 87.0859 86.17 85.7099L85 83.9999M81.1 86.6799L85 83.9999M81.1 86.6799L57.62 52.7299L57.49 48.3899L61.52 50.0699L85 83.9999" stroke="#002E6D" stroke-width="3" stroke-miterlimit="10" stroke-linecap="round"/>
<path id="Vector_19" d="M61.5201 50.0701L57.6201 52.7701" stroke="#002E6D" stroke-width="3" stroke-miterlimit="10" stroke-linecap="round"/>
</g>
</svg>
