<svg width="1177" height="252" viewBox="0 0 1177 252" fill="none" xmlns="http://www.w3.org/2000/svg">
    <circle cx="175" cy="133" r="78" fill="white"/>
    <circle cx="231.5" cy="100.5" r="90.5" fill="white"/>
    <circle cx="232" cy="164" r="78" fill="white"/>
    <circle cx="309.5" cy="155.5" r="55.5" fill="white"/>
    <circle cx="374.5" cy="155.5" r="38.5" fill="white"/>
    <circle cx="96.5" cy="156.5" r="38.5" fill="white"/>
    <circle cx="134.5" cy="172.5" r="38.5" fill="white"/>
    <circle cx="412.5" cy="170.5" r="23.5" fill="white"/>
    <circle cx="54.5" cy="170.5" r="23.5" fill="white"/>
    <circle cx="46.5" cy="152.5" r="23.5" fill="white"/>
    <circle cx="23.5" cy="171.5" r="23.5" fill="white"/>
    <circle cx="473.5" cy="152.5" r="11.5" fill="white"/>
    <circle cx="309.5" cy="117.5" r="38.5" fill="white"/>
    <circle cx="601" cy="123" r="78" fill="white"/>
    <circle cx="657.5" cy="90.5" r="90.5" fill="white"/>
    <circle cx="658" cy="154" r="78" fill="white"/>
    <circle cx="735.5" cy="145.5" r="55.5" fill="white"/>
    <circle cx="800.5" cy="145.5" r="38.5" fill="white"/>
    <circle cx="522.5" cy="146.5" r="38.5" fill="white"/>
    <circle cx="560.5" cy="162.5" r="38.5" fill="white"/>
    <circle cx="838.5" cy="160.5" r="23.5" fill="white"/>
    <circle cx="480.5" cy="160.5" r="23.5" fill="white"/>
    <circle cx="472.5" cy="142.5" r="23.5" fill="white"/>
    <circle cx="449.5" cy="161.5" r="23.5" fill="white"/>
    <circle cx="899.5" cy="142.5" r="11.5" fill="white"/>
    <circle cx="735.5" cy="107.5" r="38.5" fill="white"/>
    <circle cx="441" cy="143" r="78" fill="white"/>
    <circle cx="491.5" cy="142.5" r="90.5" fill="white"/>
    <circle cx="498" cy="174" r="78" fill="white"/>
    <circle cx="575.5" cy="165.5" r="55.5" fill="white"/>
    <circle cx="613.5" cy="151.5" r="38.5" fill="white"/>
    <circle cx="362.5" cy="166.5" r="38.5" fill="white"/>
    <circle cx="400.5" cy="182.5" r="38.5" fill="white"/>
    <circle cx="678.5" cy="180.5" r="23.5" fill="white"/>
    <circle cx="323.5" cy="170.5" r="23.5" fill="white"/>
    <circle cx="415.279" cy="84.9812" r="23.5" transform="rotate(43.8453 415.279 84.9812)" fill="white"/>
    <circle cx="421.978" cy="66.4558" r="23.5" transform="rotate(43.8453 421.978 66.4558)" fill="white"/>
    <circle cx="392.228" cy="64.2273" r="23.5" transform="rotate(43.8453 392.228 64.2273)" fill="white"/>
    <circle cx="739.5" cy="162.5" r="11.5" fill="white"/>
    <circle cx="243.5" cy="170.5" r="11.5" fill="white"/>
    <circle cx="575.5" cy="127.5" r="38.5" fill="white"/>
    <circle cx="867" cy="133" r="78" fill="white"/>
    <circle cx="917.5" cy="132.5" r="90.5" fill="white"/>
    <circle cx="924" cy="164" r="78" fill="white"/>
    <circle cx="1001.5" cy="155.5" r="55.5" fill="white"/>
    <circle cx="1039.5" cy="141.5" r="38.5" fill="white"/>
    <circle cx="788.5" cy="156.5" r="38.5" fill="white"/>
    <circle cx="826.5" cy="172.5" r="38.5" fill="white"/>
    <circle cx="1104.5" cy="170.5" r="23.5" fill="white"/>
    <circle cx="749.5" cy="160.5" r="23.5" fill="white"/>
    <circle cx="841.279" cy="74.9812" r="23.5" transform="rotate(43.8453 841.279 74.9812)" fill="white"/>
    <circle cx="847.978" cy="56.4558" r="23.5" transform="rotate(43.8453 847.978 56.4558)" fill="white"/>
    <circle cx="818.228" cy="54.2273" r="23.5" transform="rotate(43.8453 818.228 54.2273)" fill="white"/>
    <circle cx="1165.5" cy="152.5" r="11.5" fill="white"/>
    <circle cx="669.5" cy="160.5" r="11.5" fill="white"/>
    <circle cx="1001.5" cy="117.5" r="38.5" fill="white"/>
</svg>
