<svg width="90" height="77" viewBox="0 0 90 77" fill="none" xmlns="http://www.w3.org/2000/svg">
    <g id="Page-Templates">
        <g id="plan-icon">
            <g id="Business Guide Icon Plan color">
                <path id="Shape"
                      d="M1.5 20.49V74.67H56.18C56.4868 74.6726 56.7911 74.6147 57.0755 74.4994C57.3598 74.3841 57.6186 74.2138 57.837 73.9982C58.0553 73.7826 58.2289 73.5261 58.3479 73.2432C58.4668 72.9604 58.5287 72.6568 58.53 72.35V4.49001C58.5287 4.18318 58.4668 3.87963 58.3479 3.59679C58.2289 3.31395 58.0553 3.05738 57.837 2.84181C57.6186 2.62625 57.3598 2.45594 57.0755 2.34065C56.7911 2.22536 56.4868 2.16737 56.18 2.17001H27.92L1.5 20.49Z"
                      fill="white"/>
                <path id="Shape_2" d="M1.5 20.4799V74.6699H58.53V2.16992H27.92L1.5 20.4799Z" stroke="#002E6D"
                      stroke-width="3" stroke-linecap="round" stroke-linejoin="round"/>
                <path id="Shape_3" d="M1.5 20.5299H27.6V2.16992" stroke="#002E6D" stroke-width="3"
                      stroke-linecap="round" stroke-linejoin="round"/>
                <path id="Rectangle-path" d="M36.3 61.1299H9.22998V64.0299H36.3V61.1299Z" fill="#007DBC"/>
                <path id="Rectangle-path_2" d="M51.76 52.4299H9.22998V55.3299H51.76V52.4299Z" fill="#007DBC"/>
                <path id="Rectangle-path_3" d="M51.76 43.73H9.22998V46.63H51.76V43.73Z" fill="#007DBC"/>
                <path id="Rectangle-path_4" d="M51.76 36H9.22998V38.9H51.76V36Z" fill="#007DBC"/>
                <path id="Rectangle-path_5" d="M51.76 27.3H9.22998V30.2001H51.76V27.3Z" fill="#007DBC"/>
                <path id="Shape_4"
                      d="M79.8001 26.54L74.0001 32.77L61.3701 21L67.1701 14.77C73.4801 17.07 77.0901 20.44 79.8001 26.54ZM35.3301 62.1L51.7001 56.91L74.0001 32.64L61.3701 20.83L39.2001 45.23L35.3301 62.1Z"
                      fill="#EBEBEB"/>
                <path id="Shape_5"
                      d="M80.5401 24.7299C78.3943 20.1578 74.5368 16.6127 69.8001 14.8599C69.4237 14.7202 69.0146 14.694 68.6235 14.7846C68.2325 14.8753 67.8766 15.0788 67.6001 15.3699L62.6901 20.4999L40.6901 44.0799C40.4427 44.3305 40.2637 44.6404 40.1701 44.9799L37.3301 57.7899C37.2675 58.1205 37.2893 58.4615 37.3935 58.7814C37.4976 59.1013 37.6808 59.3898 37.9261 59.6201C38.1714 59.8504 38.4708 60.0151 38.7966 60.099C39.1224 60.1828 39.4641 60.1832 39.7901 60.0999L52.4701 56.0999C52.8117 56.0096 53.1248 55.8341 53.3801 55.5899L75.3701 31.9999L80.2901 26.8699C80.5435 26.5805 80.7031 26.2209 80.7478 25.8388C80.7924 25.4566 80.72 25.07 80.5401 24.7299Z"
                      fill="white"/>
                <path id="Shape_6"
                      d="M72.3601 17.76C71.9837 17.6147 71.5722 17.5866 71.1796 17.6794C70.787 17.7722 70.4316 17.9815 70.1601 18.28L65.2501 23.47L43.2501 47.36C43.0023 47.6143 42.8233 47.9274 42.7301 48.27L39.8901 61.27C39.5001 62.7 38.4701 61.98 39.8901 61.59L52.8001 56.7C53.0601 56.6133 60.5901 48.7833 75.3901 33.21H75.8701L80.4401 27.07C78.0001 22.14 77.4001 19.84 72.3601 17.76Z"
                      fill="#007DBC"/>
                <path id="Shape_7"
                      d="M79.8001 27.5099L74.0001 33.74L61.3701 21.93L67.1701 15.7C73.4801 18 77.0901 21.4099 79.8001 27.5099ZM35.3301 63.07L51.7001 57.8799L74.0001 33.61L61.3701 21.7999L39.2001 46.2L35.3301 63.07Z"
                      stroke="#002E6D" stroke-width="3" stroke-linecap="round" stroke-linejoin="round"/>
                <path id="Path" d="M39.2 46.6301L51.06 57.5801" stroke="#002E6D" stroke-width="3" stroke-linecap="round"
                      stroke-linejoin="round"/>
                <path id="Shape_8" d="M87.0701 30.2C87.0701 30.2 91.0701 25.1 85.6001 20.53" stroke="#002E6D"
                      stroke-width="3" stroke-linecap="round" stroke-linejoin="round"/>
            </g>
        </g>
    </g>
</svg>
