<svg width="96" height="85" viewBox="0 0 96 85" fill="none" xmlns="http://www.w3.org/2000/svg">
    <g id="Page-Templates">
        <g id="Page-Templates_2">
            <g id="manage-icon">
                <g id="Business Guide Icon Manage color">
                    <path id="Shape"
                          d="M54.7201 65.64C56.1177 64.794 57.2023 63.5164 57.8101 62C58.5261 60.5266 58.6962 58.847 58.2901 57.26L53.2901 54.18C53.4093 52.7191 53.4093 51.2509 53.2901 49.79L58.1601 46.71C58.5662 45.123 58.3961 43.4434 57.6801 41.97C57.0797 40.4388 55.9944 39.1463 54.5901 38.29L49.0001 39.55C48.0609 38.4362 47.027 37.4057 45.9101 36.47L47.2201 30.78C46.3596 29.3778 45.0636 28.296 43.5301 27.7C42.0479 26.9893 40.3628 26.8229 38.7701 27.23L35.6801 32.23C34.2159 32.1113 32.7444 32.1113 31.2801 32.23L28.1901 27.37C26.5975 26.9629 24.9124 27.1293 23.4301 27.84C21.8967 28.436 20.6006 29.5178 19.7401 30.92L21.0501 36.61C19.948 37.5411 18.9276 38.5648 18.0001 39.67L12.2901 38.37C10.8905 39.2118 9.80244 40.4858 9.19014 42C8.47414 43.4734 8.30406 45.153 8.71014 46.74L13.7101 49.82C13.591 51.2809 13.591 52.7491 13.7101 54.21L8.83014 57.34C8.42406 58.927 8.59414 60.6066 9.31014 62.08C9.9106 63.6112 10.9959 64.9037 12.4001 65.76L18.1101 64.46C19.0494 65.5738 20.0833 66.6044 21.2001 67.54L19.8901 73.23C20.7506 74.6322 22.0467 75.714 23.5801 76.31C25.0624 77.0207 26.7475 77.1871 28.3401 76.78L31.4301 71.78C32.8944 71.8988 34.3659 71.8988 35.8301 71.78L38.9201 76.64C40.5128 77.0471 42.1979 76.8807 43.6801 76.17C45.2136 75.574 46.5096 74.4922 47.3701 73.09L46.0001 67.42C47.117 66.4844 48.1509 65.4538 49.0901 64.34L54.7201 65.64ZM28.4501 64.1C26.0478 63.0962 23.9969 61.403 22.5565 59.2341C21.1162 57.0652 20.351 54.518 20.3576 51.9144C20.3643 49.3108 21.1425 46.7676 22.594 44.6061C24.0454 42.4447 26.105 40.7619 28.5124 39.7704C30.9198 38.779 33.5671 38.5233 36.1198 39.0358C38.6725 39.5482 41.016 40.8058 42.8542 42.6496C44.6925 44.4934 45.943 46.8407 46.4477 49.3949C46.9525 51.9491 46.6889 54.5956 45.6901 57C44.3252 60.2108 41.7516 62.7556 38.5256 64.0842C35.2996 65.4128 31.6803 65.4184 28.4501 64.1Z"
                          fill="white"/>
                    <path id="Shape_2"
                          d="M89.7798 24.74L94.9998 22.38C95.6047 20.8741 95.6892 19.2093 95.2398 17.65C94.8804 16.0456 93.9535 14.6251 92.6298 13.65L86.9398 14.24C85.8572 12.8046 84.578 11.5288 83.1398 10.45L83.7298 4.76999C82.7226 3.50644 81.3094 2.63022 79.7298 2.28999C78.1637 1.84059 76.4926 1.92502 74.9798 2.52999L72.6098 7.73999C70.8456 7.86386 69.118 8.30421 67.5098 9.04L62.8798 5.72999C61.2405 5.96796 59.7329 6.76237 58.6098 7.97999C57.3922 9.09899 56.5976 10.6035 56.3598 12.24L59.6798 16.97C59.2924 17.8092 58.9746 18.6788 58.7298 19.57C58.516 20.4254 58.359 21.2939 58.2598 22.17L52.9998 24.51C52.3956 26.016 52.3111 27.6806 52.7598 29.24C53.1026 30.821 53.9825 32.2344 55.2498 33.24L60.9998 32.67C62.0504 34.1328 63.3342 35.4132 64.7998 36.46L64.2098 42.14C65.2251 43.4184 66.6293 44.3311 68.2098 44.74C69.7759 45.1894 71.447 45.105 72.9598 44.5L75.3298 39.29C77.1466 39.167 78.921 38.6843 80.5498 37.87L85.1798 41.18C86.7953 40.8767 88.2818 40.0932 89.445 38.9318C90.6082 37.7703 91.394 36.2851 91.6998 34.67L88.3798 29.94C88.7477 29.1339 89.065 28.3056 89.3298 27.46C89.5844 26.5738 89.7354 25.661 89.7798 24.74ZM83.2598 25.8C82.7848 27.6219 81.7797 29.2619 80.3719 30.512C78.964 31.7622 77.2167 32.5663 75.3514 32.8225C73.4861 33.0788 71.5868 32.7755 69.894 31.9512C68.2012 31.127 66.7912 29.8188 65.8425 28.1924C64.8939 26.566 64.4494 24.6946 64.5654 22.8154C64.6813 20.9361 65.3525 19.1336 66.4938 17.6362C67.6352 16.1387 69.1953 15.0138 70.9766 14.4038C72.7579 13.7939 74.6801 13.7264 76.4998 14.21C78.9317 14.8555 81.0082 16.4394 82.2737 18.6141C83.5391 20.7888 83.8902 23.3767 83.2498 25.81L83.2598 25.8Z"
                          fill="white"/>
                    <path id="Shape_3"
                          d="M54.7201 65.64C56.1177 64.794 57.2023 63.5164 57.8101 62C58.5261 60.5266 58.6962 58.847 58.2901 57.26L53.2901 54.18C53.4093 52.7191 53.4093 51.2509 53.2901 49.79L58.1601 46.71C58.5662 45.123 58.3961 43.4434 57.6801 41.97C57.0797 40.4388 55.9944 39.1463 54.5901 38.29L49.0001 39.55C48.0609 38.4362 47.027 37.4057 45.9101 36.47L47.2201 30.78C46.3596 29.3778 45.0636 28.296 43.5301 27.7C42.0479 26.9893 40.3628 26.8229 38.7701 27.23L35.6801 32.23C34.2159 32.1113 32.7444 32.1113 31.2801 32.23L28.1901 27.37C26.5975 26.9629 24.9124 27.1293 23.4301 27.84C21.8967 28.436 20.6006 29.5178 19.7401 30.92L21.0501 36.61C19.948 37.5411 18.9276 38.5648 18.0001 39.67L12.2901 38.37C10.8905 39.2118 9.80244 40.4858 9.19014 42C8.47414 43.4734 8.30406 45.153 8.71014 46.74L13.7101 49.82C13.591 51.2809 13.591 52.7491 13.7101 54.21L8.83014 57.34C8.42406 58.927 8.59414 60.6066 9.31014 62.08C9.9106 63.6112 10.9959 64.9037 12.4001 65.76L18.1101 64.46C19.0494 65.5738 20.0833 66.6044 21.2001 67.54L19.8901 73.23C20.7506 74.6322 22.0467 75.714 23.5801 76.31C25.0624 77.0207 26.7475 77.1871 28.3401 76.78L31.4301 71.78C32.8944 71.8988 34.3659 71.8988 35.8301 71.78L38.9201 76.64C40.5128 77.0471 42.1979 76.8807 43.6801 76.17C45.2136 75.574 46.5096 74.4922 47.3701 73.09L46.0001 67.42C47.117 66.4844 48.1509 65.4538 49.0901 64.34L54.7201 65.64ZM28.4501 64.1C26.0478 63.0962 23.9969 61.403 22.5565 59.2341C21.1162 57.0652 20.351 54.518 20.3576 51.9144C20.3643 49.3108 21.1425 46.7676 22.594 44.6061C24.0454 42.4447 26.105 40.7619 28.5124 39.7704C30.9198 38.779 33.5671 38.5233 36.1198 39.0358C38.6725 39.5482 41.016 40.8058 42.8542 42.6496C44.6925 44.4934 45.943 46.8407 46.4477 49.3949C46.9525 51.9491 46.6889 54.5956 45.6901 57C44.3252 60.2109 41.7516 62.7556 38.5256 64.0842C35.2996 65.4127 31.6803 65.4184 28.4501 64.1Z"
                          stroke="#002E6D" stroke-width="3" stroke-linecap="round" stroke-linejoin="round"/>
                    <path id="Shape_4"
                          d="M87.7798 24.74L92.9998 22.38C93.6047 20.8741 93.6892 19.2093 93.2398 17.65C92.8804 16.0456 91.9535 14.6251 90.6298 13.65L84.9398 14.24C83.8572 12.8046 82.578 11.5288 81.1398 10.45L81.7298 4.76999C80.7226 3.50644 79.3094 2.63022 77.7298 2.28999C76.1637 1.84059 74.4926 1.92502 72.9798 2.52999L70.6098 7.73999C68.8456 7.86386 67.118 8.30421 65.5098 9.04L60.8798 5.72999C59.2405 5.96796 57.7329 6.76237 56.6098 7.97999C55.3922 9.09899 54.5976 10.6035 54.3598 12.24L57.6798 16.97C57.2924 17.8092 56.9746 18.6788 56.7298 19.57C56.516 20.4254 56.359 21.2939 56.2598 22.17L50.9998 24.51C50.3956 26.016 50.3111 27.6806 50.7598 29.24C51.1026 30.821 51.9825 32.2344 53.2498 33.24L58.9998 32.67C60.0504 34.1328 61.3342 35.4132 62.7998 36.46L62.2098 42.14C63.2251 43.4184 64.6293 44.3311 66.2098 44.74C67.7759 45.1894 69.447 45.105 70.9598 44.5L73.3298 39.29C75.1466 39.167 76.921 38.6843 78.5498 37.87L83.1798 41.18C84.7953 40.8767 86.2818 40.0932 87.445 38.9318C88.6082 37.7703 89.394 36.2851 89.6998 34.67L86.3798 29.94C86.7477 29.1339 87.065 28.3056 87.3298 27.46C87.5843 26.5737 87.7353 25.661 87.7798 24.74ZM81.2598 25.8C80.7848 27.6219 79.7797 29.2619 78.3719 30.512C76.964 31.7622 75.2167 32.5663 73.3514 32.8225C71.4861 33.0788 69.5868 32.7755 67.894 31.9512C66.2012 31.127 64.7912 29.8188 63.8425 28.1924C62.8939 26.566 62.4494 24.6946 62.5654 22.8154C62.6813 20.9361 63.3525 19.1336 64.4938 17.6362C65.6352 16.1387 67.1953 15.0138 68.9766 14.4038C70.7579 13.7939 72.6801 13.7264 74.4998 14.21C76.9317 14.8555 79.0082 16.4394 80.2737 18.6141C81.5391 20.7888 81.8902 23.3767 81.2498 25.81L81.2598 25.8Z"
                          stroke="#007DBC" stroke-width="3" stroke-linecap="round" stroke-linejoin="round"/>
                    <path id="Shape_5"
                          d="M49.5103 12C49.4481 10.4374 49.7822 8.88442 50.4816 7.48566C51.181 6.08691 52.2229 4.88782 53.5103 4"
                          stroke="#002E6D" stroke-width="2" stroke-linecap="round" stroke-linejoin="round"/>
                    <path id="Shape_6" d="M30.5 82C30.5 82 36.5 85.81 41.5 82.91" stroke="#002E6D" stroke-width="2"
                          stroke-linecap="round" stroke-linejoin="round"/>
                    <path id="Shape_7" d="M2.91012 43C2.91012 43 -0.629876 48.48 3.50012 53" stroke="#002E6D"
                          stroke-width="2" stroke-linecap="round" stroke-linejoin="round"/>
                    <path id="Shape_8"
                          d="M64.5 65C65.5135 63.7601 66.1754 62.2707 66.4164 60.6874C66.6574 59.1042 66.4687 57.4853 65.87 56"
                          stroke="#002E6D" stroke-width="2" stroke-linecap="round" stroke-linejoin="round"/>
                    <path id="Shape_9" d="M81.5 47C81.5 47 87.27 47.55 90.5 44" stroke="#002E6D" stroke-width="2"
                          stroke-linecap="round" stroke-linejoin="round"/>
                    <path id="Shape_10"
                          d="M88.5 2C89.9009 2.45894 91.174 3.24125 92.2164 4.28362C93.2588 5.32598 94.0411 6.59913 94.5 8"
                          stroke="#002E6D" stroke-width="2" stroke-linecap="round" stroke-linejoin="round"/>
                    <path id="Shape_11" d="M22.5 22C22.5 22 27.82 18.47 33.5 20.79" stroke="#002E6D" stroke-width="2"
                          stroke-linecap="round" stroke-linejoin="round"/>
                </g>
            </g>
        </g>
    </g>
</svg>
