<svg width="100" height="100" viewBox="0 0 100 100" fill="none" xmlns="http://www.w3.org/2000/svg">
    <path d="M83 8.01758H20V81.0176H83V8.01758Z" fill="#007DBC"/>
    <path d="M87 82.0176H16V87.0176H87V82.0176Z" fill="#007DBC"/>
    <path d="M83 8.01758H16V81.0176H83V8.01758Z" stroke="#002E6D" stroke-width="3" stroke-miterlimit="10"/>
    <path d="M64 59.0176H50V81.0176H64V59.0176Z" fill="white"/>
    <path d="M50 59.0176H36V81.0176H50V59.0176Z" fill="white"/>
    <path d="M64 59.0176H50V81.0176H64V59.0176Z" stroke="#002E6D" stroke-width="3" stroke-miterlimit="10"/>
    <path d="M50 59.0176H36V81.0176H50V59.0176Z" stroke="#002E6D" stroke-width="3" stroke-miterlimit="10"/>
    <path d="M86.855 2.54395H16.4453V7.95877H86.855V2.54395Z" fill="#007DBC"/>
    <path d="M86.9998 2H12.3398V7.41482H86.9998V2Z" stroke="#002E6D" stroke-width="3" stroke-miterlimit="10"/>
    <path d="M87 82.0176H12V87.0176H87V82.0176Z" stroke="#002E6D" stroke-width="3" stroke-miterlimit="10"/>
    <path d="M77 35.0176H22V52.0176H77V35.0176Z" fill="white"/>
    <path d="M77 35.0176H22V52.0176H77V35.0176Z" stroke="#002E6D" stroke-width="3" stroke-miterlimit="10"/>
    <path d="M30 59.0176H22V73.0176H30V59.0176Z" fill="white"/>
    <path d="M30 59.0176H22V73.0176H30V59.0176Z" stroke="#002E6D" stroke-width="3" stroke-miterlimit="10"/>
    <path d="M78 59.0176H69V73.0176H78V59.0176Z" fill="white"/>
    <path d="M78 59.0176H69V73.0176H78V59.0176Z" stroke="#002E6D" stroke-width="3" stroke-miterlimit="10"/>
    <path d="M22 66.0176H30" stroke="#002E6D" stroke-width="3" stroke-miterlimit="10"/>
    <path d="M69 66.0176H78" stroke="#002E6D" stroke-width="3" stroke-miterlimit="10"/>
    <path d="M22 44.0176H77" stroke="#002E6D" stroke-width="3" stroke-miterlimit="10"/>
    <path d="M30 35.0176V52.0176" stroke="#002E6D" stroke-width="3" stroke-miterlimit="10"/>
    <path d="M38 35.0176V52.0176" stroke="#002E6D" stroke-width="3" stroke-miterlimit="10"/>
    <path d="M46 35.0176V52.0176" stroke="#002E6D" stroke-width="3" stroke-miterlimit="10"/>
    <path d="M54 35.0176V52.0176" stroke="#002E6D" stroke-width="3" stroke-miterlimit="10"/>
    <path d="M62 35.0176V52.0176" stroke="#002E6D" stroke-width="3" stroke-miterlimit="10"/>
    <path d="M69 35.0176V52.0176" stroke="#002E6D" stroke-width="3" stroke-miterlimit="10"/>
    <path d="M77 13.0176H22V29.0176H77V13.0176Z" fill="white"/>
    <path d="M77 13.0176H22V29.0176H77V13.0176Z" stroke="#002E6D" stroke-width="3" stroke-miterlimit="10"/>
    <path d="M22 21.0176H77" stroke="#002E6D" stroke-width="3" stroke-miterlimit="10"/>
    <path d="M30 12.0176V30.0176" stroke="#002E6D" stroke-width="3" stroke-miterlimit="10"/>
    <path d="M38 12.0176V30.0176" stroke="#002E6D" stroke-width="3" stroke-miterlimit="10"/>
    <path d="M46 12.0176V30.0176" stroke="#002E6D" stroke-width="3" stroke-miterlimit="10"/>
    <path d="M54 12.0176V30.0176" stroke="#002E6D" stroke-width="3" stroke-miterlimit="10"/>
    <path d="M62 12.0176V30.0176" stroke="#002E6D" stroke-width="3" stroke-miterlimit="10"/>
    <path d="M69 12.0176V30.0176" stroke="#002E6D" stroke-width="3" stroke-miterlimit="10"/>
    <path d="M46 67.0176H44V74.0176H46V67.0176Z" fill="#007DBC"/>
    <path d="M55 67.0176H53V74.0176H55V67.0176Z" fill="#007DBC"/>
</svg>
