<svg width="96" height="73" viewBox="0 0 96 73" fill="none" xmlns="http://www.w3.org/2000/svg">
<path d="M88.9311 9.14844H7.62109V63.7984H88.9311V9.14844Z" fill="white"/>
<path d="M88.5128 9.14844H11.6328V63.7984H88.5128V9.14844Z" fill="#0B97DD"/>
<path d="M93.5144 63.8672H6.48438V70.9172H93.5144V63.8672Z" fill="#0B97DD"/>
<path d="M88.6694 9.14844H7.35938V63.7984H88.6694V9.14844Z" stroke="#002E6D" stroke-width="3" stroke-miterlimit="10" stroke-linecap="round"/>
<path d="M93.53 63.8672H2.5V70.9172H93.53V63.8672Z" stroke="#002E6D" stroke-width="3" stroke-miterlimit="10" stroke-linecap="round"/>
<path d="M59.8131 28.1992H36.2031V63.8592H59.8131V28.1992Z" fill="white"/>
<path d="M59.8214 28.1992H36.1914V63.8592H59.8214V28.1992Z" stroke="#002E6D" stroke-width="3" stroke-miterlimit="10" stroke-linecap="round"/>
<path d="M44.7044 41.8594H42.2344V49.1994H44.7044V41.8594Z" fill="#007DBC"/>
<path d="M31.1323 28.1992H12.1523V56.9592H31.1323V28.1992Z" fill="white"/>
<path d="M30.2103 28.1992H13.0703V56.8692H30.2103V28.1992Z" stroke="#002E6D" stroke-width="3" stroke-miterlimit="10" stroke-linecap="round"/>
<path d="M22.9331 39.2383L16.9531 43.8883" stroke="#C5C5C5" stroke-width="2" stroke-linecap="round" stroke-linejoin="round"/>
<path d="M26.1894 41.7383L17.8594 48.2383" stroke="#C5C5C5" stroke-width="2" stroke-linecap="round" stroke-linejoin="round"/>
<path d="M83.7027 28.1992H64.7227V56.9592H83.7027V28.1992Z" fill="white"/>
<path d="M82.7806 28.1992H65.6406V56.8692H82.7806V28.1992Z" stroke="#002E6D" stroke-width="3" stroke-miterlimit="10" stroke-linecap="round"/>
<path d="M75.4934 39.2383L69.5234 43.8883" stroke="#C5C5C5" stroke-width="2" stroke-linecap="round" stroke-linejoin="round"/>
<path d="M78.7619 41.7383L70.4219 48.2383" stroke="#C5C5C5" stroke-width="2" stroke-linecap="round" stroke-linejoin="round"/>
<path d="M37.8417 23.8867H32.7617V30.8867C32.7617 31.7167 33.0217 33.0167 37.8417 33.0167C42.6617 33.0167 42.9217 31.7167 42.9217 30.8867V23.8867H37.8417Z" fill="white"/>
<path d="M43.5317 15.7969H34.8117L32.7617 23.8869H42.9217L43.5317 15.7969Z" fill="white"/>
<path d="M38.3417 23.8867H33.2617V30.8867C33.2617 31.7167 33.5217 33.0167 38.3417 33.0167C43.1617 33.0167 43.4217 31.7167 43.4217 30.8867V23.8867H38.3417Z" fill="#002E6D"/>
<path d="M44.0317 15.7969H35.3117L33.2617 23.8869H43.4217L44.0317 15.7969Z" fill="#002E6D"/>
<path d="M48.0019 23.8867H42.9219V30.8867C42.9219 31.7167 43.1819 33.0167 48.0019 33.0167C52.8219 33.0167 53.0819 31.7167 53.0819 30.8867V23.8867H48.0019Z" fill="white" stroke="#002E6D" stroke-miterlimit="10"/>
<path d="M53.0819 15.7969H42.9219V23.8869H53.0819V15.7969Z" fill="white"/>
<path d="M48.0019 23.8867H42.9219V30.8867C42.9219 31.7167 43.1819 33.0167 48.0019 33.0167C52.8219 33.0167 53.0819 31.7167 53.0819 30.8867V23.8867H48.0019Z" stroke="#002E6D" stroke-width="3" stroke-linecap="round" stroke-linejoin="round"/>
<path d="M53.0819 15.7969H43.5319L42.9219 23.8869H53.0819V15.7969Z" stroke="#002E6D" stroke-width="3" stroke-linecap="round" stroke-linejoin="round"/>
<path d="M37.8417 23.8867H32.7617V30.8867C32.7617 31.7167 33.0217 33.0167 37.8417 33.0167C42.6617 33.0167 42.9217 31.7167 42.9217 30.8867V23.8867H37.8417Z" stroke="#002E6D" stroke-width="3" stroke-linecap="round" stroke-linejoin="round"/>
<path d="M58.162 23.8867H53.082V30.8867C53.082 31.7167 53.342 33.0167 58.162 33.0167C62.982 33.0167 63.242 31.7167 63.242 30.8867V23.8867H58.162Z" fill="white"/>
<path d="M52.4727 15.7969H61.2027L63.2427 23.8869H53.0827L52.4727 15.7969Z" fill="white"/>
<path d="M58.662 23.8867H53.582V30.8867C53.582 31.7167 53.842 33.0167 58.662 33.0167C63.482 33.0167 63.742 31.7167 63.742 30.8867V23.8867H58.662Z" fill="#002E6D"/>
<path d="M52.9727 15.7969H61.7027L63.7427 23.8869H53.5827L52.9727 15.7969Z" fill="#002E6D"/>
<path d="M58.162 23.8867H53.082V30.8867C53.082 31.7167 53.342 33.0167 58.162 33.0167C62.982 33.0167 63.242 31.7167 63.242 30.8867V23.8867H58.162Z" stroke="#002E6D" stroke-width="3" stroke-linecap="round" stroke-linejoin="round"/>
<path d="M43.5317 15.7969H34.8117L32.7617 23.8869H42.9217L43.5317 15.7969Z" stroke="#002E6D" stroke-width="3" stroke-linecap="round" stroke-linejoin="round"/>
<path d="M52.4727 15.7969H61.2027L63.2427 23.8869H53.0827L52.4727 15.7969Z" stroke="#002E6D" stroke-width="3" stroke-linecap="round" stroke-linejoin="round"/>
<path d="M17.5114 23.8867H12.4414V30.8867C12.4414 31.7167 12.7014 33.0167 17.5214 33.0167C22.3414 33.0167 22.6014 31.7167 22.6014 30.8867V23.8867H17.5114Z" fill="white"/>
<path d="M12.4414 23.8869L16.6314 15.7969H26.0514L22.6014 23.8869" fill="white"/>
<path d="M18.0214 23.8867H12.9414V30.8867C12.9414 31.7167 13.2014 33.0167 18.0214 33.0167C22.8414 33.0167 23.1014 31.7167 23.1014 30.8867V23.8867H18.0214Z" fill="#002E6D"/>
<path d="M12.9414 23.8869L17.1314 15.7969H26.5514L23.1014 23.8869" fill="#002E6D"/>
<path d="M27.6816 23.8867H22.6016V30.8867C22.6016 31.7167 22.8616 33.0167 27.6816 33.0167C32.5016 33.0167 32.7616 31.7167 32.7616 30.8867V23.8867H27.6816Z" fill="white"/>
<path d="M22.6016 23.8869L26.0516 15.7969H34.9916L32.7616 23.8869" fill="white"/>
<path d="M27.6816 23.8867H22.6016V30.8867C22.6016 31.7167 22.8616 33.0167 27.6816 33.0167C32.5016 33.0167 32.7616 31.7167 32.7616 30.8867V23.8867H27.6816Z" stroke="#002E6D" stroke-width="3" stroke-linecap="round" stroke-linejoin="round"/>
<path d="M68.3222 23.8867H63.2422V30.8867C63.2422 31.7167 63.5022 33.0167 68.3222 33.0167C73.1422 33.0167 73.4022 31.7167 73.4022 30.8867V23.8867H68.3222Z" fill="white"/>
<path d="M73.4017 23.8869L70.4417 15.7969H61.0117L63.2417 23.8869" fill="white"/>
<path d="M68.3222 23.8867H63.2422V30.8867C63.2422 31.7167 63.5022 33.0167 68.3222 33.0167C73.1422 33.0167 73.4022 31.7167 73.4022 30.8867V23.8867H68.3222Z" stroke="#002E6D" stroke-width="3" stroke-linecap="round" stroke-linejoin="round"/>
<path d="M22.6016 23.8869L26.0516 15.7969H34.9916L32.7616 23.8869" stroke="#002E6D" stroke-width="3" stroke-linecap="round" stroke-linejoin="round"/>
<path d="M73.4017 23.8869L70.4417 15.7969H61.0117L63.2417 23.8869" stroke="#002E6D" stroke-width="3" stroke-linecap="round" stroke-linejoin="round"/>
<path d="M17.5114 23.8867H12.4414V30.8867C12.4414 31.7167 12.7014 33.0167 17.5214 33.0167C22.3414 33.0167 22.6014 31.7167 22.6014 30.8867V23.8867H17.5114Z" stroke="#002E6D" stroke-width="3" stroke-linecap="round" stroke-linejoin="round"/>
<path d="M78.5123 23.8867H73.4023V30.8867C73.4023 31.7167 73.6623 33.0167 78.4823 33.0167C83.3023 33.0167 83.5123 31.7167 83.5123 30.8867V23.8867H78.5123Z" fill="white"/>
<path d="M83.5631 23.8869L79.3731 15.7969H69.9531L73.4031 23.8869" fill="white"/>
<path d="M78.9823 23.8867H73.9023V30.8867C73.9023 31.7167 74.1623 33.0167 78.9823 33.0167C83.8023 33.0167 84.0623 31.7167 84.0623 30.8867V23.8867H78.9823Z" fill="#002E6D"/>
<path d="M84.0631 23.8869L79.8731 15.7969H70.4531L73.9031 23.8869" fill="#002E6D"/>
<path d="M93.43 23.8169L88.92 15.7969H79.5L83.28 23.8169" fill="white"/>
<path d="M88.6417 23.8867H83.5117V30.8867C83.5117 31.7167 83.7717 33.0167 88.5917 33.0167C93.4117 33.0167 93.6717 31.7167 93.6717 30.8867V23.8867H88.6417Z" fill="white"/>
<path d="M78.5123 23.8867H73.4023V30.8867C73.4023 31.7167 73.6623 33.0167 78.4823 33.0167C83.3023 33.0167 83.5123 31.7167 83.5123 30.8867V23.8867H78.5123Z" stroke="#002E6D" stroke-width="3" stroke-linecap="round" stroke-linejoin="round"/>
<path d="M12.4414 23.8869L16.6314 15.7969H26.0514L22.6014 23.8869" stroke="#002E6D" stroke-width="3" stroke-linecap="round" stroke-linejoin="round"/>
<path d="M83.5631 23.8869L79.3731 15.7969H69.9531L73.4031 23.8869" stroke="#002E6D" stroke-width="3" stroke-linecap="round" stroke-linejoin="round"/>
<path d="M7.36125 23.8867H2.28125V30.8867C2.28125 31.7167 2.54125 33.0167 7.36125 33.0167C12.1813 33.0167 12.4412 31.7167 12.4412 30.8867V23.8867H7.36125Z" fill="white"/>
<path d="M2.28125 23.8869L7.36125 15.7969H16.9112L12.4412 23.8869" fill="white"/>
<path d="M7.36125 23.8867H2.28125V30.8867C2.28125 31.7167 2.54125 33.0167 7.36125 33.0167C12.1813 33.0167 12.4412 31.7167 12.4412 30.8867V23.8867H7.36125Z" stroke="#002E6D" stroke-width="3" stroke-linecap="round" stroke-linejoin="round"/>
<path d="M88.6417 23.8867H83.5117V30.8867C83.5117 31.7167 83.7717 33.0167 88.5917 33.0167C93.4117 33.0167 93.6717 31.7167 93.6717 30.8867V23.8867H88.6417Z" stroke="#002E6D" stroke-width="3" stroke-linecap="round" stroke-linejoin="round"/>
<path d="M2.28125 23.8869L7.36125 15.7969H16.9112L12.4412 23.8869" stroke="#002E6D" stroke-width="3" stroke-linecap="round" stroke-linejoin="round"/>
<path d="M93.7237 23.8869L88.9238 15.7969H79.0938L83.5638 23.8869" stroke="#002E6D" stroke-width="3" stroke-linecap="round" stroke-linejoin="round"/>
<path d="M93.5144 2H6.48438V9.2H93.5144V2Z" fill="#0B97DD"/>
<path d="M93.53 2H2.5V9.2H93.53V2Z" stroke="#002E6D" stroke-width="3" stroke-miterlimit="10" stroke-linecap="round"/>
</svg>
