<svg width="69" height="97" viewBox="0 0 69 97" fill="none" xmlns="http://www.w3.org/2000/svg">
    <g id="Clip path group">
        <mask id="mask0_17513_24578" style="mask-type:luminance" maskUnits="userSpaceOnUse" x="0" y="0" width="69"
              height="97">
            <g id="clip-path">
                <path id="Vector" d="M69 0.820312H0V96.5903H69V0.820312Z" fill="white"/>
            </g>
        </mask>
        <g mask="url(#mask0_17513_24578)">
            <g id="Group">
                <path id="Vector_2"
                      d="M69.3401 108.26C67.7901 100.46 66.9401 95.8903 65.9901 92.2603C65.1701 89.1303 64.2801 87.6903 62.2701 81.6003C60.7306 75.5371 59.5618 69.3857 58.7701 63.1803C58.5098 59.7866 57.9611 56.4211 57.1301 53.1203C56.2501 49.5303 55.6301 48.4803 52.7801 43.7003C50.1228 39.3337 46.8262 35.39 43.0001 32.0003C40.5701 30.0703 35.6501 27.2203 32.2201 26.5003C28.7901 25.7803 23.3701 28.3603 21.0801 29.2103C17.9001 30.4003 9.08011 33.3503 6.52011 34.4903C3.96011 35.6303 2.24011 36.6303 2.09011 38.9203C1.94011 41.2103 3.09011 42.4903 5.66011 42.4903C8.23011 42.4903 16.9401 39.0603 19.9401 37.6403C22.9401 36.2203 22.6501 38.3503 19.5101 39.7803C16.3701 41.2103 12.3701 42.0603 9.37011 43.2103C6.8126 44.3576 4.70403 46.315 3.37011 48.7803C2.66011 50.2103 2.51011 52.9203 5.08011 53.2103C8.15459 53.3328 11.2071 52.643 13.9301 51.2103C16.2101 49.9303 16.5701 53.4203 12.8601 54.9903C9.15011 56.5603 9.21011 56.4103 7.08011 57.4203C4.38011 58.7003 2.00011 60.2003 3.60011 62.8403C4.91011 64.9403 9.34011 63.5303 13.2401 61.7703C15.2401 60.8703 19.0501 59.0603 20.1901 60.5803C21.3301 62.1003 23.7101 66.2003 23.7101 68.7603C23.7101 71.3203 24.7101 74.7603 25.9901 75.9903C27.2701 77.2203 27.2301 78.2703 27.3201 79.7003C27.6173 81.8954 28.1058 84.0603 28.7801 86.1703C29.3201 88.0403 32.1101 91.9803 34.2001 94.3503C36.2901 96.7203 37.9101 98.7303 38.1001 101.58C38.2601 103.96 38.6701 108.43 38.6701 108.43"
                      fill="white"/>
                <path id="Vector_3"
                      d="M71.4798 107.78C69.9298 99.9801 69.0798 95.4101 68.1298 91.7801C67.3098 88.6501 66.4198 87.2101 64.4098 81.1201C62.8702 75.0568 61.7014 68.9054 60.9098 62.7001C60.6494 59.3063 60.1008 55.9408 59.2698 52.6401C58.3898 49.0501 57.7698 48.0001 54.9198 43.2201C52.2633 38.85 48.9666 34.9028 45.1398 31.5101C42.6998 29.6001 37.7798 26.7401 34.3498 26.0001C30.9198 25.2601 25.4998 27.8601 23.2098 28.7101C19.9998 29.9301 11.2298 32.8801 8.65976 34.0001C6.08976 35.1201 4.37975 36.1401 4.22975 38.4301C4.07975 40.7201 5.22975 42.0001 7.79975 42.0001C10.3698 42.0001 19.0798 38.5701 22.0798 37.1501C25.0798 35.7301 24.7898 37.8601 21.6498 39.2901C18.5098 40.7201 14.5098 41.5701 11.5098 42.7201C8.95225 43.8673 6.84368 45.8248 5.50976 48.2901C4.79976 49.7201 4.64975 52.4301 7.21975 52.7201C10.2942 52.8426 13.3467 52.1528 16.0698 50.7201C18.3498 49.4401 18.7098 52.9301 14.9998 54.5001C11.2898 56.0701 11.3498 55.9201 9.21975 56.9301C6.50975 58.2101 4.07975 59.7101 5.71975 62.3501C7.02975 64.4501 11.4598 63.0401 15.3598 61.2801C17.3598 60.3801 21.1698 58.5701 22.3098 60.0901C23.4498 61.6101 25.8298 65.7101 25.8298 68.2701C25.8298 70.8301 26.8298 74.2701 28.1098 75.5001C29.3898 76.7301 29.3498 77.7801 29.4398 79.2101C29.7369 81.4052 30.2254 83.5701 30.8998 85.6801C31.4398 87.5501 34.2298 91.4901 36.3198 93.8601C38.4098 96.2301 40.0298 98.2401 40.2198 101.09C40.3798 103.47 40.7898 107.94 40.7898 107.94"
                      fill="#F9FCF9"/>
                <path id="Vector_4"
                      d="M69.3401 108.26C67.7901 100.46 66.9401 95.8903 65.9901 92.2603C65.1701 89.1303 64.2801 87.6903 62.2701 81.6003C60.7306 75.5371 59.5618 69.3857 58.7701 63.1803C58.5098 59.7866 57.9611 56.4211 57.1301 53.1203C56.2501 49.5303 55.6301 48.4803 52.7801 43.7003C50.1228 39.3337 46.8262 35.39 43.0001 32.0003C40.5701 30.0703 35.6501 27.2203 32.2201 26.5003C28.7901 25.7803 23.3701 28.3603 21.0801 29.2103C17.9001 30.4003 9.08011 33.3503 6.52011 34.4903C3.96011 35.6303 2.24011 36.6303 2.09011 38.9203C1.94011 41.2103 3.09011 42.4903 5.66011 42.4903C8.23011 42.4903 16.9401 39.0603 19.9401 37.6403C22.9401 36.2203 22.6501 38.3503 19.5101 39.7803C16.3701 41.2103 12.3701 42.0603 9.37011 43.2103C6.81261 44.3576 4.70403 46.315 3.37011 48.7803C2.66011 50.2103 2.51011 52.9203 5.08011 53.2103C8.15459 53.3328 11.2071 52.643 13.9301 51.2103C16.2101 49.9303 16.5701 53.4203 12.8601 54.9903C9.15011 56.5603 9.21011 56.4103 7.08011 57.4203C4.38011 58.7003 2.00011 60.2003 3.60011 62.8403C4.91011 64.9403 9.34011 63.5303 13.2401 61.7703C15.2401 60.8703 19.0501 59.0603 20.1901 60.5803C21.3301 62.1003 23.7101 66.2003 23.7101 68.7603C23.7101 71.3203 24.7101 74.7603 25.9901 75.9903C27.2701 77.2203 27.2301 78.2703 27.3201 79.7003C27.6173 81.8954 28.1058 84.0603 28.7801 86.1703C29.3201 88.0403 32.1101 91.9803 34.2001 94.3503C36.2901 96.7203 37.9101 98.7303 38.1001 101.58C38.2601 103.96 38.6701 108.43 38.6701 108.43"
                      stroke="#002E6D" stroke-width="3" stroke-linecap="round" stroke-linejoin="round"/>
                <path id="Vector_5"
                      d="M25.7203 76.8498H37.5503C42.4303 76.8498 44.6303 74.2298 44.6303 68.9498V10.9498C44.6303 5.6698 42.4303 3.0498 37.5503 3.0498H13.9003C9.02031 3.0498 6.82031 5.6698 6.82031 10.9498V68.9998C6.82031 74.2798 9.02031 76.8998 13.9003 76.8998L25.7203 76.8498Z"
                      fill="white"/>
                <path id="Vector_6"
                      d="M27.1002 76.85H37.6702C42.0002 76.85 44.0002 74.23 44.0002 69V11C44.0002 5.66 42.0002 3 37.6702 3H16.5302C12.1702 3 10.2002 5.62 10.2002 10.9V69C10.2002 74.28 12.2002 76.9 16.5302 76.9L27.1002 76.85Z"
                      fill="#007DBC"/>
                <path id="Vector_7"
                      d="M25.8199 76.8498H37.6399C42.5199 76.8498 44.7199 74.2298 44.7199 68.9498V10.9498C44.7199 5.6698 42.5199 3.0498 37.6399 3.0498H13.9999C9.11992 3.0498 6.91992 5.6698 6.91992 10.9498V68.9998C6.91992 74.2798 9.11992 76.8998 13.9999 76.8998L25.8199 76.8498Z"
                      stroke="#002E6D" stroke-width="3" stroke-miterlimit="10"/>
                <path id="Vector_8" d="M39.3205 16.79H12.2705V62.7H39.3205V16.79Z" fill="white"/>
                <path id="Vector_9" d="M39.3205 16.79H12.2705V62.7H39.3205V16.79Z" stroke="#002E6D" stroke-width="3"
                      stroke-linecap="round" stroke-linejoin="round"/>
                <path id="Vector_10"
                      d="M25.7901 73.3302C27.701 73.3302 29.2501 71.7811 29.2501 69.8702C29.2501 67.9593 27.701 66.4102 25.7901 66.4102C23.8792 66.4102 22.3301 67.9593 22.3301 69.8702C22.3301 71.7811 23.8792 73.3302 25.7901 73.3302Z"
                      fill="white"/>
                <path id="Vector_11" d="M34.2604 9.44043H22.9404V11.0404H34.2604V9.44043Z" fill="white"/>
                <path id="Vector_12"
                      d="M19.5205 11.2402C20.0728 11.2402 20.5205 10.7925 20.5205 10.2402C20.5205 9.68795 20.0728 9.24023 19.5205 9.24023C18.9682 9.24023 18.5205 9.68795 18.5205 10.2402C18.5205 10.7925 18.9682 11.2402 19.5205 11.2402Z"
                      fill="white"/>
                <path id="Vector_13" d="M39 63.2402C41.09 59.6202 48.9 51.9102 48.9 51.9102L53.33 59.4802"
                      fill="#399D47"/>
                <path id="Vector_14"
                      d="M40.8701 63.2402C42.9601 59.6202 50.7701 51.9102 50.7701 51.9102L55.2001 59.4802"
                      fill="#F9FCF9"/>
                <path id="Vector_15" d="M48.9205 51.9199C48.9205 51.9199 41.1205 59.6299 39.0205 63.2499"
                      stroke="#002E6D" stroke-width="3" stroke-linecap="round" stroke-linejoin="round"/>
                <path id="Vector_16"
                      d="M54.7602 68.3796C54.7602 68.3796 35.6002 52.3796 33.8902 50.7696C32.1802 49.1596 31.3202 48.3896 28.2702 48.3896C25.2202 48.3896 23.3502 48.7296 21.5402 48.7696C19.5402 48.7696 17.9002 48.6996 16.6602 50.0296C15.6602 51.0296 15.5202 53.2397 16.7602 55.2397C18.0002 57.2397 21.2302 58.3796 24.1802 59.5196C27.1302 60.6596 28.7502 60.5196 30.5602 64.0896C32.3702 67.6596 33.0102 69.4396 32.5602 72.2696C32.1602 74.8196 33.6802 79.6897 36.1802 82.5497"
                      fill="white"/>
                <path id="Vector_17"
                      d="M55.1305 68.4302C55.1305 68.4302 36.0005 52.4402 34.2505 50.8302C32.5005 49.2202 31.6805 48.4502 28.6305 48.4502C25.5805 48.4502 23.7105 48.7902 21.9005 48.8302C19.9005 48.8302 18.2605 48.7602 17.0205 50.0902C16.0205 51.0902 15.8805 53.3002 17.1205 55.3002C18.3605 57.3002 21.5905 58.4402 24.5405 59.5802C27.4905 60.7202 29.1105 60.5802 30.9205 64.1502C32.7305 67.7202 33.3705 69.5002 32.9205 72.3302C32.5205 74.8802 34.0405 79.7502 36.5405 82.6102"
                      fill="#F9FCF9"/>
                <path id="Vector_18"
                      d="M51.4904 65.7197C51.4904 65.7197 35.6004 52.3896 33.8804 50.7696C32.1604 49.1496 31.3104 48.3896 28.2604 48.3896C25.2104 48.3896 23.3404 48.7296 21.5304 48.7696C19.5304 48.7696 17.8904 48.6996 16.6504 50.0296C15.6504 51.0296 15.5104 53.2397 16.7504 55.2397C17.9904 57.2397 21.2204 58.3796 24.1704 59.5196C27.1204 60.6596 28.7404 60.5196 30.5504 64.0896C32.3604 67.6596 32.8304 69.4196 32.5504 72.2696C32.2704 75.1196 35.1204 81.5997 36.1704 82.5497"
                      stroke="#002E6D" stroke-width="3" stroke-linecap="round" stroke-linejoin="round"/>
                <path id="Vector_19" d="M24.6202 20.5195L16.2002 27.0695" stroke="#C5C5C5" stroke-width="2"
                      stroke-linecap="round" stroke-linejoin="round"/>
                <path id="Vector_20" d="M27.9502 22.29L16.2002 31.43" stroke="#C5C5C5" stroke-width="2"
                      stroke-linecap="round" stroke-linejoin="round"/>
            </g>
        </g>
    </g>
</svg>
