<svg width="100" height="100" viewBox="0 0 100 100" fill="none" xmlns="http://www.w3.org/2000/svg">
<g id="MySBA Illustrations Icons ">
<path id="Vector" d="M70.3397 94.84L9.17969 79.98L27.5097 4.54004L67.1197 14.17L84.9997 34.47L70.3397 94.84Z" fill="white" stroke="#002E6D" stroke-width="3" stroke-miterlimit="10"/>
<path id="Vector_2" d="M63.37 54.47L26.71 45.48" stroke="#C5C5C5" stroke-width="2" stroke-linecap="round" stroke-linejoin="round"/>
<path id="Vector_3" d="M64.7299 83.2401L20.1299 72.3101" stroke="#C5C5C5" stroke-width="2" stroke-linecap="round" stroke-linejoin="round"/>
<path id="Vector_4" d="M62.9501 25.93L38.5801 19.96" stroke="#C5C5C5" stroke-width="2" stroke-linecap="round" stroke-linejoin="round"/>
<path id="Vector_5" d="M75.6896 38.5401L31.0996 27.6001" stroke="#C5C5C5" stroke-width="2" stroke-linecap="round" stroke-linejoin="round"/>
<path id="Vector_6" d="M73.5004 47.48L28.9004 36.54" stroke="#C5C5C5" stroke-width="2" stroke-linecap="round" stroke-linejoin="round"/>
<path id="Vector_7" d="M84.9499 34.4502L63.4199 29.1302L67.1199 14.1602" stroke="#002E6D" stroke-width="3" stroke-miterlimit="10" stroke-linecap="round"/>
<path id="Vector_8" d="M62.0016 83.8914C68.4253 80.2837 70.7081 72.1516 67.1003 65.7279C63.4926 59.3042 55.3605 57.0214 48.9368 60.6292C42.5131 64.237 40.2303 72.3691 43.8381 78.7927C47.4458 85.2164 55.5779 87.4992 62.0016 83.8914Z" fill="#007DBC"/>
<path id="Vector_9" d="M61.0808 82.2525C66.5992 79.1532 68.5603 72.1671 65.461 66.6487C62.3616 61.1303 55.3756 59.1692 49.8572 62.2686C44.3388 65.3679 42.3777 72.3539 45.477 77.8723C48.5764 83.3907 55.5624 85.3518 61.0808 82.2525Z" fill="white"/>
<path id="Vector_10" d="M60.4389 81.1101C65.3264 78.365 67.0633 72.1776 64.3183 67.29C61.5733 62.4024 55.3858 60.6655 50.4982 63.4105C45.6106 66.1556 43.8737 72.343 46.6188 77.2306C49.3638 82.1182 55.5513 83.8551 60.4389 81.1101Z" fill="#007DBC"/>
<path id="Vector_11" d="M59.2101 78.9217C62.8891 76.8555 64.1964 72.1982 62.1302 68.5192C60.064 64.8403 55.4066 63.5329 51.7277 65.5991C48.0488 67.6653 46.7414 72.3227 48.8076 76.0016C50.8738 79.6806 55.5312 80.9879 59.2101 78.9217Z" fill="white"/>
<path id="Vector_12" d="M58.2796 77.265C61.0436 75.7126 62.0259 72.2135 60.4735 69.4495C58.9212 66.6855 55.422 65.7032 52.658 67.2556C49.894 68.808 48.9118 72.3071 50.4641 75.0711C52.0165 77.8351 55.5156 78.8174 58.2796 77.265Z" fill="#007DBC"/>
<path id="Vector_13" d="M57.3636 75.6347C59.2272 74.588 59.8894 72.2289 58.8428 70.3653C57.7962 68.5018 55.437 67.8395 53.5735 68.8862C51.7099 69.9328 51.0477 72.292 52.0943 74.1555C53.1409 76.019 55.5001 76.6813 57.3636 75.6347Z" fill="white"/>
<path id="Vector_14" d="M61.1144 75.6964L62.1279 72.0859L49.8813 68.6482L48.8678 72.2586L61.1144 75.6964Z" fill="white"/>
<path id="Vector_15" d="M85.1299 72.28L91.9999 70.73" stroke="#007DBC" stroke-width="2" stroke-linecap="round" stroke-linejoin="round"/>
<path id="Vector_16" d="M85.0303 80.5298L91.7903 82.5498" stroke="#007DBC" stroke-width="2" stroke-linecap="round" stroke-linejoin="round"/>
<path id="Vector_17" d="M81.1797 88.3901L86.0897 93.4301" stroke="#007DBC" stroke-width="2" stroke-linecap="round" stroke-linejoin="round"/>
</g>
</svg>
