<svg width="100" height="100" viewBox="0 0 100 100" fill="none" xmlns="http://www.w3.org/2000/svg">
    <g id="MySBA Illustrations Icons ">
        <path id="Vector"
              d="M56.8602 65.2399L58.2702 63.8299C58.4502 63.6499 58.6902 63.7099 58.9702 63.9899C62.3202 67.2999 84.2702 89.2999 87.7602 92.7899C88.2902 93.3199 88.3902 93.4699 88.4402 93.7899C88.5844 94.2217 88.6055 94.6851 88.501 95.1282C88.3966 95.5713 88.1707 95.9766 87.8488 96.2985C87.5269 96.6204 87.1216 96.8463 86.6785 96.9507C86.2354 97.0552 85.772 97.0341 85.3402 96.8899C85.0702 96.8899 84.9202 96.7399 84.3402 96.2099C80.8502 92.7199 58.8502 70.7599 55.5402 67.4199C55.2602 67.1399 55.2102 66.8899 55.3802 66.7199L56.8602 65.2399Z"
              fill="#007DBC"/>
        <path id="Vector_2"
              d="M57.5902 63.92L60.1102 61.4C60.1608 61.3274 60.2272 61.2671 60.3043 61.2236C60.3814 61.1801 60.4674 61.1545 60.5557 61.1487C60.6441 61.1429 60.7326 61.1572 60.8148 61.1903C60.8969 61.2234 60.9705 61.2746 61.0302 61.34C64.3902 64.64 86.3302 86.65 89.8202 90.14C90.3502 90.67 90.4302 90.84 90.3902 91.2C90.2228 92.6086 89.5863 93.92 88.5832 94.9231C87.5802 95.9262 86.2688 96.5626 84.8602 96.73C84.5002 96.73 84.3402 96.73 83.8002 96.16C80.3202 92.66 58.3102 70.72 55.0002 67.36C54.9347 67.3003 54.8835 67.2267 54.8504 67.1446C54.8173 67.0625 54.8031 66.9739 54.8089 66.8856C54.8146 66.7972 54.8402 66.7113 54.8837 66.6341C54.9272 66.557 54.9875 66.4907 55.0602 66.44L57.5902 63.92Z"
              stroke="#002E6D" stroke-width="3" stroke-linejoin="round"/>
        <path id="Vector_3" d="M54.001 56.4043L50.1543 60.251L55.7051 65.8018L59.5517 61.9551L54.001 56.4043Z"
              stroke="#002E6D" stroke-width="3" stroke-linejoin="round"/>
        <path id="Vector_4"
              d="M34.1801 65.6805C48.1805 65.6805 59.5301 54.3309 59.5301 40.3305C59.5301 26.3301 48.1805 14.9805 34.1801 14.9805C20.1797 14.9805 8.83008 26.3301 8.83008 40.3305C8.83008 54.3309 20.1797 65.6805 34.1801 65.6805Z"
              fill="white"/>
        <path id="Vector_5"
              d="M34.1801 65.6805C48.1805 65.6805 59.5301 54.3309 59.5301 40.3305C59.5301 26.3301 48.1805 14.9805 34.1801 14.9805C20.1797 14.9805 8.83008 26.3301 8.83008 40.3305C8.83008 54.3309 20.1797 65.6805 34.1801 65.6805Z"
              stroke="#002E6D" stroke-width="3" stroke-linejoin="round"/>
        <path id="Vector_6" d="M36.8903 24.1602L19.5703 37.6402" stroke="#C5C5C5" stroke-width="2"
              stroke-linecap="round" stroke-linejoin="round"/>
        <path id="Vector_7" d="M43.7403 27.79L19.5703 46.61" stroke="#C5C5C5" stroke-width="2" stroke-linecap="round"
              stroke-linejoin="round"/>
        <path id="Vector_8" d="M55.6299 9.48023L57.9799 3.49023" stroke="#C5C5C5" stroke-width="2"
              stroke-linecap="round" stroke-linejoin="round"/>
        <path id="Vector_9" d="M61.8203 13.7997L66.8103 9.71973" stroke="#C5C5C5" stroke-width="2"
              stroke-linecap="round" stroke-linejoin="round"/>
        <path id="Vector_10" d="M65.7803 20.7501L72.1103 19.6201" stroke="#C5C5C5" stroke-width="2"
              stroke-linecap="round" stroke-linejoin="round"/>
    </g>
</svg>
