<svg width="100" height="100" viewBox="0 0 100 100" fill="none" xmlns="http://www.w3.org/2000/svg">
    <g id="MySBA Illustrations Icons ">
        <path id="Vector"
              d="M94.4498 32.77L63.0998 18.02L3.7998 49.08L6.4398 67.14L37.8098 83.36L96.2598 50.24L94.4498 32.77Z"
              fill="white"/>
        <path id="Vector_2"
              d="M93.6302 32.1001L62.2802 17.3501L2.99023 48.4101L5.62023 66.4701L36.5502 82.6301L95.0002 49.5101L93.6302 32.1001Z"
              fill="white"/>
        <path id="Vector_3" d="M4.5498 55.07L35.8798 70.24L94.8398 38.98" stroke="#C5C5C5" stroke-width="3"
              stroke-linecap="round" stroke-linejoin="round"/>
        <path id="Vector_4" d="M4.5498 61.07L35.8798 76.24L94.8398 44.98" stroke="#C5C5C5" stroke-width="3"
              stroke-linecap="round" stroke-linejoin="round"/>
        <path id="Vector_5" d="M3.24023 49.0801L5.87023 67.1401L37.2402 83.3601L34.6102 63.8301" stroke="#002E6D"
              stroke-width="3" stroke-linecap="round" stroke-linejoin="round"/>
        <path id="Vector_6" d="M93.8802 32.77L95.7002 50.24L37.2402 83.36" stroke="#002E6D" stroke-width="3"
              stroke-linecap="round" stroke-linejoin="round"/>
        <path id="Vector_7"
              d="M22.2002 39.1701L53.2702 54.0801L55.0802 73.0501L76.3202 61.1401L74.7802 42.7601L44.2402 27.5801L22.2002 39.1701Z"
              fill="white"/>
        <path id="Vector_8" d="M93.8802 32.77L34.5902 63.83L3.24023 49.08L62.5302 18.02L93.8802 32.77Z" stroke="#002E6D"
              stroke-width="3" stroke-linecap="round" stroke-linejoin="round"/>
        <path id="Vector_9" d="M29 40L53 53L55 75L77 62L75.41 41.69L48 30L29 40Z" fill="#007DBC"/>
        <path id="Vector_10"
              d="M44 29.22L73.51 43L74.91 60.9L56.71 71.67L55 52.82L54.9 51.69L53.9 51.2L26.53 38L44 29.22ZM44 27L22 38L53 53L55 75L77 62L75.41 41.69L44 27Z"
              fill="#002E6D"/>
        <path id="Vector_11"
              d="M49.8601 36.9098C49.0069 36.9434 48.1884 37.256 47.5301 37.7998C46.8301 38.4298 46.7601 38.9798 47.5301 39.4598C49.1201 40.4598 52.5901 36.8898 55.7401 38.8098C57.3701 39.8098 58.0201 41.3198 57.1301 43.0598L59.0001 44.2598L57.7701 45.7898L55.9101 44.5998C54.8097 45.5952 53.4573 46.2697 52.0001 46.5498L51.1401 44.3098C52.2696 44.1083 53.3138 43.5757 54.1401 42.7798C54.8901 41.9498 54.8101 41.3398 54.0101 40.8398C52.2501 39.7398 48.5001 43.6198 45.3901 41.5498C45.0289 41.3687 44.7154 41.105 44.4752 40.7801C44.235 40.4552 44.0748 40.0782 44.0076 39.6798C43.9404 39.2814 43.968 38.8727 44.0884 38.487C44.2087 38.1012 44.4183 37.7493 44.7001 37.4598L43.0801 36.4598L44.5301 35.2598L46.1001 36.2598C47.1066 35.6314 48.2638 35.2859 49.4501 35.2598L49.8601 36.9098Z"
              fill="white"/>
    </g>
</svg>
