<svg width="100" height="100" viewBox="0 0 100 100" fill="none" xmlns="http://www.w3.org/2000/svg">
<g id="Property 1=lightbulb">
<path id="Vector" d="M64.5301 34.8C60.0901 30.42 53.7901 29.24 50.1301 29.24C46.4701 29.24 40.1301 30.42 35.7301 34.8C31.3301 39.18 29.5701 46.53 30.2901 51.33C31.0101 56.13 33.7301 60.4 35.4501 63.33C37.1701 66.26 37.6001 66.26 38.1701 68.1C38.8029 70.0796 39.1398 72.1419 39.1701 74.22C39.1398 74.9961 39.2639 75.7705 39.5351 76.4984C39.8063 77.2262 40.2193 77.8929 40.7501 78.46C41.6101 79.31 42.0401 79.31 42.0401 79.31H58.2401C58.2401 79.31 58.6701 79.31 59.5301 78.46C60.0609 77.8929 60.4738 77.2262 60.745 76.4984C61.0163 75.7705 61.1403 74.9961 61.1101 74.22C61.1403 72.1419 61.4773 70.0796 62.1101 68.1C62.6801 66.26 63.1101 66.26 64.8301 63.33C66.5501 60.4 69.2701 56.14 69.9901 51.33C70.7101 46.52 69.0001 39.18 64.5301 34.8Z" stroke="#002E6D" stroke-width="3" stroke-linejoin="round"/>
<path id="Vector_2" d="M52.23 38.6901C50.6159 38.5366 48.9877 38.7244 47.4509 39.2413C45.9141 39.7581 44.5033 40.5924 43.31 41.6901C41.9913 43.0147 41.0258 44.6488 40.5017 46.4429C39.9776 48.237 39.9117 50.1339 40.31 51.9601" stroke="#C5C5C5" stroke-width="2" stroke-linecap="round" stroke-linejoin="round"/>
<path id="Vector_3" d="M58.34 85.45H42.22" stroke="#002E6D" stroke-width="3" stroke-linecap="round" stroke-linejoin="round"/>
<path id="Vector_4" d="M55.61 91.6799H44.95" stroke="#002E6D" stroke-width="3" stroke-linecap="round" stroke-linejoin="round"/>
<path id="Vector_5" d="M50.71 13.6101V5.32007" stroke="#007DBC" stroke-width="5" stroke-linecap="round" stroke-linejoin="round"/>
<path id="Vector_6" d="M76.4099 24.7399L82.2699 18.8799" stroke="#007DBC" stroke-width="5" stroke-linecap="round" stroke-linejoin="round"/>
<path id="Vector_7" d="M86.71 50.79H95" stroke="#007DBC" stroke-width="5" stroke-linecap="round" stroke-linejoin="round"/>
<path id="Vector_8" d="M75.5801 76.48L81.4401 82.34" stroke="#007DBC" stroke-width="5" stroke-linecap="round" stroke-linejoin="round"/>
<path id="Vector_9" d="M23.84 75.6499L17.98 81.5099" stroke="#007DBC" stroke-width="5" stroke-linecap="round" stroke-linejoin="round"/>
<path id="Vector_10" d="M13.54 49.6101H5.25" stroke="#007DBC" stroke-width="5" stroke-linecap="round" stroke-linejoin="round"/>
<path id="Vector_11" d="M24.6701 23.91L18.8101 18.05" stroke="#007DBC" stroke-width="5" stroke-linecap="round" stroke-linejoin="round"/>
</g>
</svg>
