<svg width="96" height="85" viewBox="0 0 96 85" fill="none" xmlns="http://www.w3.org/2000/svg">
    <g id="Page-Templates">
        <g id="Page-Templates_2">
            <g id="manage-icon">
                <g id="Business Guide Icon Manage color">
                    <path id="Shape"
                          d="M54.7201 65.6398C56.1177 64.7938 57.2023 63.5162 57.8101 61.9998C58.5261 60.5264 58.6962 58.8468 58.2901 57.2598L53.2901 54.1798C53.4093 52.7189 53.4093 51.2507 53.2901 49.7898L58.1601 46.7098C58.5662 45.1228 58.3961 43.4432 57.6801 41.9698C57.0797 40.4386 55.9944 39.1461 54.5901 38.2898L49.0001 39.5498C48.0609 38.436 47.027 37.4054 45.9101 36.4698L47.2201 30.7798C46.3596 29.3776 45.0636 28.2958 43.5301 27.6998C42.0479 26.9891 40.3628 26.8227 38.7701 27.2298L35.6801 32.2298C34.2159 32.111 32.7444 32.111 31.2801 32.2298L28.1901 27.3698C26.5975 26.9627 24.9124 27.1291 23.4301 27.8398C21.8967 28.4358 20.6006 29.5176 19.7401 30.9198L21.0501 36.6098C19.948 37.5408 18.9276 38.5646 18.0001 39.6698L12.2901 38.3698C10.8905 39.2116 9.80244 40.4856 9.19014 41.9998C8.47414 43.4732 8.30406 45.1528 8.71014 46.7398L13.7101 49.8198C13.591 51.2807 13.591 52.7489 13.7101 54.2098L8.83014 57.3398C8.42406 58.9268 8.59414 60.6064 9.31014 62.0798C9.9106 63.611 10.9959 64.9035 12.4001 65.7598L18.1101 64.4598C19.0494 65.5736 20.0833 66.6041 21.2001 67.5398L19.8901 73.2298C20.7506 74.632 22.0467 75.7138 23.5801 76.3098C25.0624 77.0205 26.7475 77.1869 28.3401 76.7798L31.4301 71.7798C32.8944 71.8985 34.3659 71.8985 35.8301 71.7798L38.9201 76.6398C40.5128 77.0469 42.1979 76.8805 43.6801 76.1698C45.2136 75.5738 46.5096 74.492 47.3701 73.0898L46.0001 67.4198C47.117 66.4841 48.1509 65.4536 49.0901 64.3398L54.7201 65.6398ZM28.4501 64.0998C26.0478 63.096 23.9969 61.4027 22.5565 59.2338C21.1162 57.0649 20.351 54.5178 20.3576 51.9142C20.3643 49.3106 21.1425 46.7674 22.594 44.6059C24.0454 42.4444 26.105 40.7616 28.5124 39.7702C30.9198 38.7787 33.5671 38.5231 36.1198 39.0355C38.6725 39.548 41.016 40.8056 42.8542 42.6494C44.6925 44.4931 45.943 46.8404 46.4477 49.3946C46.9525 51.9488 46.6889 54.5953 45.6901 56.9998C44.3252 60.2106 41.7516 62.7553 38.5256 64.0839C35.2996 65.4125 31.6803 65.4182 28.4501 64.0998Z"
                          fill="white"/>
                    <path id="Shape_2"
                          d="M89.7808 24.7396L95.0008 22.3796C95.6057 20.8738 95.6902 19.209 95.2407 17.6496C94.8813 16.0453 93.9545 14.6248 92.6307 13.6496L86.9408 14.2396C85.8582 12.8043 84.579 11.5284 83.1408 10.4496L83.7308 4.76963C82.7236 3.50607 81.3104 2.62985 79.7308 2.28963C78.1647 1.84022 76.4936 1.92466 74.9808 2.52963L72.6108 7.73963C70.8465 7.86349 69.119 8.30385 67.5108 9.03963L62.8808 5.72963C61.2415 5.96759 59.7338 6.762 58.6108 7.97963C57.3932 9.09863 56.5985 10.6031 56.3608 12.2396L59.6808 16.9696C59.2934 17.8088 58.9756 18.6784 58.7308 19.5696C58.5169 20.425 58.3599 21.2935 58.2608 22.1696L53.0008 24.5096C52.3966 26.0156 52.3121 27.6802 52.7608 29.2396C53.1036 30.8206 53.9835 32.2341 55.2508 33.2396L61.0008 32.6696C62.0514 34.1325 63.3352 35.4128 64.8008 36.4596L64.2108 42.1396C65.2261 43.418 66.6303 44.3308 68.2108 44.7396C69.7768 45.189 71.4479 45.1046 72.9608 44.4996L75.3308 39.2896C77.1476 39.1666 78.922 38.684 80.5508 37.8696L85.1808 41.1796C86.7963 40.8763 88.2828 40.0928 89.446 38.9314C90.6092 37.77 91.395 36.2847 91.7007 34.6696L88.3807 29.9396C88.7487 29.1335 89.066 28.3053 89.3308 27.4596C89.5854 26.5734 89.7364 25.6606 89.7808 24.7396ZM83.2608 25.7996C82.7858 27.6215 81.7807 29.2615 80.3729 30.5117C78.965 31.7618 77.2177 32.566 75.3524 32.8222C73.4871 33.0784 71.5877 32.7751 69.8949 31.9509C68.2022 31.1266 66.7921 29.8184 65.8435 28.192C64.8949 26.5656 64.4504 24.6943 64.5664 22.815C64.6823 20.9358 65.3535 19.1332 66.4948 17.6358C67.6361 16.1384 69.1963 15.0134 70.9776 14.4035C72.7589 13.7935 74.6811 13.7261 76.5008 14.2096C78.9327 14.8551 81.0092 16.439 82.2746 18.6137C83.5401 20.7884 83.8912 23.3764 83.2508 25.8096L83.2608 25.7996Z"
                          fill="white"/>
                    <path id="Shape_3"
                          d="M54.7201 65.6398C56.1177 64.7938 57.2023 63.5162 57.8101 61.9998C58.5261 60.5264 58.6962 58.8468 58.2901 57.2598L53.2901 54.1798C53.4093 52.7189 53.4093 51.2507 53.2901 49.7898L58.1601 46.7098C58.5662 45.1228 58.3961 43.4432 57.6801 41.9698C57.0797 40.4386 55.9944 39.1461 54.5901 38.2898L49.0001 39.5498C48.0609 38.436 47.027 37.4054 45.9101 36.4698L47.2201 30.7798C46.3596 29.3776 45.0636 28.2958 43.5301 27.6998C42.0479 26.9891 40.3628 26.8227 38.7701 27.2298L35.6801 32.2298C34.2159 32.111 32.7444 32.111 31.2801 32.2298L28.1901 27.3698C26.5975 26.9627 24.9124 27.1291 23.4301 27.8398C21.8967 28.4358 20.6006 29.5176 19.7401 30.9198L21.0501 36.6098C19.948 37.5408 18.9276 38.5646 18.0001 39.6698L12.2901 38.3698C10.8905 39.2116 9.80244 40.4856 9.19014 41.9998C8.47414 43.4732 8.30406 45.1528 8.71014 46.7398L13.7101 49.8198C13.591 51.2807 13.591 52.7489 13.7101 54.2098L8.83014 57.3398C8.42406 58.9268 8.59414 60.6064 9.31014 62.0798C9.9106 63.611 10.9959 64.9035 12.4001 65.7598L18.1101 64.4598C19.0494 65.5736 20.0833 66.6041 21.2001 67.5398L19.8901 73.2298C20.7506 74.632 22.0467 75.7138 23.5801 76.3098C25.0624 77.0205 26.7475 77.1869 28.3401 76.7798L31.4301 71.7798C32.8944 71.8985 34.3659 71.8985 35.8301 71.7798L38.9201 76.6398C40.5128 77.0469 42.1979 76.8805 43.6801 76.1698C45.2136 75.5738 46.5096 74.492 47.3701 73.0898L46.0001 67.4198C47.117 66.4841 48.1509 65.4536 49.0901 64.3398L54.7201 65.6398ZM28.4501 64.0998C26.0478 63.096 23.9969 61.4027 22.5565 59.2338C21.1162 57.0649 20.351 54.5178 20.3576 51.9142C20.3643 49.3106 21.1425 46.7674 22.594 44.6059C24.0454 42.4444 26.105 40.7616 28.5124 39.7702C30.9198 38.7787 33.5671 38.5231 36.1198 39.0355C38.6725 39.548 41.016 40.8056 42.8542 42.6494C44.6925 44.4931 45.943 46.8404 46.4477 49.3946C46.9525 51.9488 46.6889 54.5953 45.6901 56.9998C44.3252 60.2106 41.7516 62.7553 38.5256 64.0839C35.2996 65.4125 31.6803 65.4182 28.4501 64.0998Z"
                          stroke="#002E6D" stroke-width="3" stroke-linecap="round" stroke-linejoin="round"/>
                    <path id="Shape_4"
                          d="M87.7808 24.7396L93.0008 22.3796C93.6057 20.8738 93.6902 19.209 93.2407 17.6496C92.8813 16.0453 91.9545 14.6248 90.6307 13.6496L84.9408 14.2396C83.8582 12.8043 82.579 11.5284 81.1408 10.4496L81.7308 4.76963C80.7236 3.50607 79.3104 2.62985 77.7308 2.28963C76.1647 1.84022 74.4936 1.92466 72.9808 2.52963L70.6108 7.73963C68.8465 7.86349 67.119 8.30385 65.5108 9.03963L60.8808 5.72963C59.2415 5.96759 57.7338 6.762 56.6108 7.97963C55.3932 9.09863 54.5985 10.6031 54.3608 12.2396L57.6808 16.9696C57.2934 17.8088 56.9756 18.6784 56.7308 19.5696C56.5169 20.425 56.3599 21.2935 56.2608 22.1696L51.0008 24.5096C50.3966 26.0156 50.3121 27.6802 50.7608 29.2396C51.1036 30.8206 51.9835 32.2341 53.2508 33.2396L59.0008 32.6696C60.0514 34.1325 61.3352 35.4128 62.8008 36.4596L62.2108 42.1396C63.2261 43.418 64.6303 44.3308 66.2108 44.7396C67.7768 45.189 69.4479 45.1046 70.9608 44.4996L73.3308 39.2896C75.1476 39.1666 76.922 38.684 78.5508 37.8696L83.1808 41.1796C84.7963 40.8763 86.2828 40.0928 87.446 38.9314C88.6092 37.77 89.395 36.2847 89.7007 34.6696L86.3807 29.9396C86.7487 29.1335 87.066 28.3053 87.3308 27.4596C87.5853 26.5734 87.7363 25.6606 87.7808 24.7396ZM81.2608 25.7996C80.7858 27.6215 79.7807 29.2615 78.3729 30.5117C76.965 31.7618 75.2177 32.566 73.3524 32.8222C71.4871 33.0784 69.5877 32.7751 67.8949 31.9509C66.2022 31.1266 64.7921 29.8184 63.8435 28.192C62.8949 26.5656 62.4504 24.6943 62.5664 22.815C62.6823 20.9358 63.3535 19.1332 64.4948 17.6358C65.6361 16.1384 67.1963 15.0134 68.9776 14.4035C70.7589 13.7935 72.6811 13.7261 74.5008 14.2096C76.9327 14.8551 79.0092 16.439 80.2746 18.6137C81.5401 20.7884 81.8912 23.3764 81.2508 25.8096L81.2608 25.7996Z"
                          stroke="#007DBC" stroke-width="3" stroke-linecap="round" stroke-linejoin="round"/>
                    <path id="Shape_5"
                          d="M49.5093 12C49.4471 10.4374 49.7812 8.88442 50.4806 7.48566C51.18 6.08691 52.2219 4.88782 53.5093 4"
                          stroke="#002E6D" stroke-width="2" stroke-linecap="round" stroke-linejoin="round"/>
                    <path id="Shape_6" d="M30.5 82C30.5 82 36.5 85.81 41.5 82.91" stroke="#002E6D" stroke-width="2"
                          stroke-linecap="round" stroke-linejoin="round"/>
                    <path id="Shape_7" d="M2.91012 43C2.91012 43 -0.629876 48.48 3.50012 53" stroke="#002E6D"
                          stroke-width="2" stroke-linecap="round" stroke-linejoin="round"/>
                    <path id="Shape_8"
                          d="M64.5 65C65.5135 63.7601 66.1754 62.2707 66.4164 60.6874C66.6574 59.1042 66.4687 57.4853 65.87 56"
                          stroke="#002E6D" stroke-width="2" stroke-linecap="round" stroke-linejoin="round"/>
                    <path id="Shape_9" d="M81.5 47C81.5 47 87.27 47.55 90.5 44" stroke="#002E6D" stroke-width="2"
                          stroke-linecap="round" stroke-linejoin="round"/>
                    <path id="Shape_10"
                          d="M88.5 2C89.9009 2.45894 91.174 3.24125 92.2164 4.28362C93.2588 5.32598 94.0411 6.59913 94.5 8"
                          stroke="#002E6D" stroke-width="2" stroke-linecap="round" stroke-linejoin="round"/>
                    <path id="Shape_11" d="M22.5 21.9998C22.5 21.9998 27.82 18.4698 33.5 20.7898" stroke="#002E6D"
                          stroke-width="2" stroke-linecap="round" stroke-linejoin="round"/>
                </g>
            </g>
        </g>
    </g>
</svg>
