<svg width="30" height="30" viewBox="0 0 30 30" fill="none" xmlns="http://www.w3.org/2000/svg">
    <path d="M14.01 22.7H15.935V21.325C16.8517 21.16 17.64 20.8025 18.3 20.2525C18.96 19.7025 19.29 18.8867 19.29 17.805C19.29 17.035 19.07 16.3292 18.63 15.6875C18.19 15.0458 17.31 14.4867 15.99 14.01C14.89 13.6433 14.1292 13.3225 13.7075 13.0475C13.2858 12.7725 13.075 12.3967 13.075 11.92C13.075 11.4433 13.2446 11.0675 13.5838 10.7925C13.9229 10.5175 14.4133 10.38 15.055 10.38C15.6417 10.38 16.1 10.5221 16.43 10.8062C16.76 11.0904 16.9983 11.4433 17.145 11.865L18.905 11.15C18.7033 10.5083 18.3321 9.94917 17.7912 9.4725C17.2504 8.99583 16.65 8.73 15.99 8.675V7.3H14.065V8.675C13.1483 8.87667 12.4333 9.28 11.92 9.885C11.4067 10.49 11.15 11.1683 11.15 11.92C11.15 12.7817 11.4021 13.4783 11.9062 14.01C12.4104 14.5417 13.2033 15 14.285 15.385C15.44 15.8067 16.2421 16.1825 16.6912 16.5125C17.1404 16.8425 17.365 17.2733 17.365 17.805C17.365 18.41 17.1496 18.8546 16.7187 19.1387C16.2879 19.4229 15.77 19.565 15.165 19.565C14.56 19.565 14.0237 19.3771 13.5562 19.0012C13.0887 18.6254 12.745 18.0617 12.525 17.31L10.71 18.025C10.9667 18.905 11.3654 19.6154 11.9062 20.1562C12.4471 20.6971 13.1483 21.0683 14.01 21.27V22.7ZM15 26C13.4783 26 12.0483 25.7112 10.71 25.1337C9.37167 24.5562 8.2075 23.7725 7.2175 22.7825C6.2275 21.7925 5.44375 20.6283 4.86625 19.29C4.28875 17.9517 4 16.5217 4 15C4 13.4783 4.28875 12.0483 4.86625 10.71C5.44375 9.37167 6.2275 8.2075 7.2175 7.2175C8.2075 6.2275 9.37167 5.44375 10.71 4.86625C12.0483 4.28875 13.4783 4 15 4C16.5217 4 17.9517 4.28875 19.29 4.86625C20.6283 5.44375 21.7925 6.2275 22.7825 7.2175C23.7725 8.2075 24.5562 9.37167 25.1337 10.71C25.7112 12.0483 26 13.4783 26 15C26 16.5217 25.7112 17.9517 25.1337 19.29C24.5562 20.6283 23.7725 21.7925 22.7825 22.7825C21.7925 23.7725 20.6283 24.5562 19.29 25.1337C17.9517 25.7112 16.5217 26 15 26ZM15 23.8C17.4567 23.8 19.5375 22.9475 21.2425 21.2425C22.9475 19.5375 23.8 17.4567 23.8 15C23.8 12.5433 22.9475 10.4625 21.2425 8.7575C19.5375 7.0525 17.4567 6.2 15 6.2C12.5433 6.2 10.4625 7.0525 8.7575 8.7575C7.0525 10.4625 6.2 12.5433 6.2 15C6.2 17.4567 7.0525 19.5375 8.7575 21.2425C10.4625 22.9475 12.5433 23.8 15 23.8Z"
          fill="#002E6D"/>
</svg>
