<svg width="120" height="34" viewBox="0 0 120 34" fill="none" xmlns="http://www.w3.org/2000/svg">
    <g id="lockups-horizontal 1">
        <g id="Page-1">
            <g id="Tablet">
                <g id="Page-1_2">
                    <path id="Fill-1" fill-rule="evenodd" clip-rule="evenodd"
                          d="M4.7998 27.1133V33.5004H35.1998V31.1147H7.44102H7.17986V30.8529V27.1133H4.7998Z"
                          fill="#CA2026"/>
                    <path id="Fill-2" fill-rule="evenodd" clip-rule="evenodd"
                          d="M4.7998 0.5V6.8871H7.20152V3.14749V2.88583H7.46507H35.201H35.4644V3.14749V6.8871H37.8665V0.5H4.7998Z"
                          fill="#213369"/>
                    <g id="Group-56">
                        <g id="Group-5">
                            <g id="Mask group">
                                <mask id="mask0_5597_10138" style="mask-type:luminance" maskUnits="userSpaceOnUse" x="0"
                                      y="9" width="12" height="16">
                                    <g id="Group">
                                        <path id="Vector" d="M0 9.22168H11.8262V24.9864H0V9.22168Z" fill="white"/>
                                    </g>
                                </mask>
                                <g mask="url(#mask0_5597_10138)">
                                    <path id="Fill-3" fill-rule="evenodd" clip-rule="evenodd"
                                          d="M2.88668 19.9824C2.90642 20.8163 3.30764 22.4013 5.93316 22.4013C7.35629 22.4013 8.94 22.0467 8.94 20.4611C8.94 19.2934 7.85761 18.9811 6.33454 18.6058L4.79109 18.2297C2.46557 17.6667 0.220902 17.1253 0.220902 13.8292C0.220902 12.1614 1.08271 9.22168 5.75268 9.22168C10.1623 9.22168 11.3449 12.2237 11.3656 14.059H8.47894C8.39841 13.392 8.15809 11.807 5.53225 11.807C4.38955 11.807 3.02721 12.2454 3.02721 13.6005C3.02721 14.7682 3.94886 15.0192 4.54997 15.1644L8.05798 16.0619C10.0222 16.5623 11.8262 17.3956 11.8262 20.0852C11.8262 24.5906 7.41597 24.9864 6.15374 24.9864C0.902547 24.9864 0 21.838 0 19.9824H2.88668Z"
                                          fill="#213369"/>
                                </g>
                            </g>
                        </g>
                        <path id="Fill-6" fill-rule="evenodd" clip-rule="evenodd"
                              d="M18.6265 22.0045H22.4571C23.9773 22.0045 24.8519 21.3371 24.8519 19.8143C24.8519 18.5017 23.727 17.9995 22.6026 17.9995H18.6265V22.0045ZM18.6265 15.4772H22.2908C23.519 15.4772 24.4979 14.9978 24.4979 13.8087C24.4979 12.5776 23.6231 12.2023 22.2073 12.2023H18.6265V15.4772ZM15.6289 9.61719H22.8942C26.5586 9.61719 27.4951 11.9112 27.4951 13.4544C27.4951 15.6018 26.2877 16.2076 25.6631 16.5198C27.4951 17.208 27.9743 18.6672 27.9743 20.1488C27.9743 21.3371 27.4745 22.4631 26.6839 23.235C25.8302 24.0685 25.0179 24.5903 21.9577 24.5903H15.6289V9.61719Z"
                              fill="#213369"/>
                        <path id="Fill-8" fill-rule="evenodd" clip-rule="evenodd"
                              d="M37.6953 9.6123H35.3241L30.5762 24.5949H33.5738L36.4829 14.7584L39.4395 24.5949H42.4371L37.6953 9.6123Z"
                              fill="#213369"/>
                        <path id="Fill-10" fill-rule="evenodd" clip-rule="evenodd"
                              d="M37.6777 31.0914L35.3013 33.4996V24.6318H37.6777V31.0914Z" fill="#213369"/>
                        <path id="Fill-12" fill-rule="evenodd" clip-rule="evenodd"
                              d="M51.0239 9.58594H51.7191V12.834C51.7191 13.1641 51.7527 13.441 51.8198 13.6649C51.8868 13.8884 51.9777 14.0677 52.0921 14.2018C52.2067 14.3362 52.3419 14.4325 52.4988 14.4915C52.6547 14.5501 52.8225 14.5795 53.0012 14.5795C53.1857 14.5795 53.3558 14.5501 53.5124 14.4915C53.6687 14.4325 53.8056 14.3362 53.9229 14.2018C54.0403 14.0677 54.1321 13.8884 54.1993 13.6649C54.2663 13.441 54.2999 13.1641 54.2999 12.834V9.58594H54.9701V12.8172C54.9701 13.2591 54.9198 13.6312 54.8195 13.9333C54.7189 14.2354 54.5808 14.48 54.4045 14.6678C54.2289 14.8551 54.0206 14.9896 53.7803 15.0706C53.5401 15.1513 53.2805 15.1923 53.0012 15.1923C52.7219 15.1923 52.4607 15.1513 52.218 15.0706C51.9749 14.9896 51.7654 14.8551 51.5894 14.6678C51.4135 14.48 51.2754 14.2354 51.1748 13.9333C51.0741 13.6312 51.0239 13.2591 51.0239 12.8172V9.58594Z"
                              fill="#213369"/>
                        <path id="Fill-14" fill-rule="evenodd" clip-rule="evenodd"
                              d="M55.4814 14.672C55.4814 14.5097 55.5303 14.3798 55.628 14.2819C55.7257 14.184 55.8442 14.1348 55.9839 14.1348C56.1181 14.1348 56.2341 14.184 56.3318 14.2819C56.4295 14.3798 56.4784 14.5097 56.4784 14.672C56.4784 14.8231 56.4295 14.9477 56.3318 15.0455C56.2341 15.1431 56.1181 15.1925 55.9839 15.1925C55.8442 15.1925 55.7257 15.1431 55.628 15.0455C55.5303 14.9477 55.4814 14.8231 55.4814 14.672Z"
                              fill="#213369"/>
                        <path id="Fill-16" fill-rule="evenodd" clip-rule="evenodd"
                              d="M57.6681 13.8916C57.8635 14.0987 58.094 14.2652 58.3594 14.3909C58.6244 14.5168 58.8997 14.5796 59.1845 14.5796C59.5476 14.5796 59.8298 14.497 60.0308 14.332C60.232 14.1672 60.3323 13.9504 60.3323 13.6819C60.3323 13.5421 60.3085 13.423 60.2611 13.3251C60.2137 13.2273 60.1497 13.1433 60.0687 13.0734C59.9874 13.0033 59.8911 12.9405 59.7795 12.8842C59.6675 12.8287 59.5476 12.7699 59.4194 12.7082L58.6317 12.3642C58.503 12.3082 58.3718 12.2411 58.238 12.1625C58.1037 12.0844 57.9833 11.9894 57.8777 11.8773C57.7712 11.7655 57.6848 11.6326 57.6178 11.4784C57.5506 11.3247 57.5172 11.1473 57.5172 10.9456C57.5172 10.7389 57.5605 10.5457 57.6472 10.3668C57.7336 10.1878 57.8536 10.0325 58.0075 9.90064C58.1611 9.7696 58.3426 9.66725 58.552 9.59455C58.7614 9.52186 58.9919 9.48535 59.243 9.48535C59.5728 9.48535 59.8772 9.54816 60.1566 9.67426C60.4359 9.80021 60.6732 9.96393 60.8686 10.1651L60.4916 10.6184C60.3238 10.4562 60.1383 10.3287 59.9344 10.2367C59.7307 10.1444 59.5002 10.098 59.243 10.098C58.9359 10.098 58.689 10.1694 58.5019 10.3119C58.3145 10.4548 58.2213 10.652 58.2213 10.9036C58.2213 11.0381 58.2475 11.1513 58.3007 11.2436C58.3535 11.3361 58.425 11.4172 58.5143 11.4869C58.6037 11.557 58.7013 11.6187 58.8074 11.6716C58.9136 11.725 59.0226 11.774 59.1342 11.8185L59.9132 12.1542C60.0698 12.2213 60.2178 12.2985 60.3574 12.385C60.497 12.4719 60.6173 12.5727 60.7177 12.687C60.8183 12.8021 60.8982 12.9362 60.9564 13.0898C61.0152 13.244 61.0448 13.4214 61.0448 13.6231C61.0448 13.8412 61.0013 14.0457 60.9149 14.2356C60.828 14.4259 60.7037 14.5924 60.542 14.7349C60.3797 14.8777 60.1842 14.9898 59.9552 15.0708C59.7264 15.1516 59.4668 15.1926 59.1762 15.1926C58.7907 15.1926 58.4334 15.1194 58.1037 14.9742C57.7742 14.8286 57.4893 14.63 57.249 14.3784L57.6681 13.8916Z"
                              fill="#213369"/>
                        <path id="Fill-18" fill-rule="evenodd" clip-rule="evenodd"
                              d="M61.79 14.672C61.79 14.5097 61.8391 14.3798 61.9368 14.2819C62.0343 14.184 62.1529 14.1348 62.2925 14.1348C62.4268 14.1348 62.5427 14.184 62.6404 14.2819C62.7381 14.3798 62.787 14.5097 62.787 14.672C62.787 14.8231 62.7381 14.9477 62.6404 15.0455C62.5427 15.1431 62.4268 15.1925 62.2925 15.1925C62.1529 15.1925 62.0343 15.1431 61.9368 15.0455C61.8391 14.9477 61.79 14.8231 61.79 14.672Z"
                              fill="#213369"/>
                        <path id="Fill-20" fill-rule="evenodd" clip-rule="evenodd"
                              d="M66.0465 13.8916C66.2419 14.0987 66.4724 14.2652 66.7378 14.3909C67.003 14.5168 67.2782 14.5796 67.5629 14.5796C67.9262 14.5796 68.2082 14.497 68.4092 14.332C68.6104 14.1672 68.7107 13.9504 68.7107 13.6819C68.7107 13.5421 68.6871 13.423 68.6397 13.3251C68.5923 13.2273 68.5281 13.1433 68.4471 13.0734C68.3658 13.0033 68.2695 12.9405 68.1581 12.8842C68.0459 12.8287 67.9262 12.7699 67.7978 12.7082L67.0101 12.3642C66.8814 12.3082 66.7503 12.2411 66.6164 12.1625C66.4821 12.0844 66.3618 11.9894 66.2561 11.8773C66.1496 11.7655 66.0632 11.6326 65.9962 11.4784C65.9292 11.3247 65.8956 11.1473 65.8956 10.9456C65.8956 10.7389 65.9389 10.5457 66.0256 10.3668C66.1121 10.1878 66.2321 10.0325 66.386 9.90064C66.5395 9.7696 66.721 9.66725 66.9304 9.59455C67.14 9.52186 67.3703 9.48535 67.6216 9.48535C67.9512 9.48535 68.2557 9.54816 68.535 9.67426C68.8143 9.80021 69.0517 9.96393 69.247 10.1651L68.87 10.6184C68.7022 10.4562 68.5167 10.3287 68.313 10.2367C68.1091 10.1444 67.8788 10.098 67.6216 10.098C67.3143 10.098 67.0674 10.1694 66.8803 10.3119C66.693 10.4548 66.5997 10.652 66.5997 10.9036C66.5997 11.0381 66.626 11.1513 66.6791 11.2436C66.7319 11.3361 66.8034 11.4172 66.8927 11.4869C66.9821 11.557 67.0799 11.6187 67.1858 11.6716C67.292 11.725 67.401 11.774 67.5126 11.8185L68.2918 12.1542C68.4482 12.2213 68.5962 12.2985 68.7358 12.385C68.8754 12.4719 68.9959 12.5727 69.0961 12.687C69.1967 12.8021 69.2766 12.9362 69.3349 13.0898C69.3936 13.244 69.4232 13.4214 69.4232 13.6231C69.4232 13.8412 69.3797 14.0457 69.2933 14.2356C69.2066 14.4259 69.0823 14.5924 68.9204 14.7349C68.7581 14.8777 68.5628 14.9898 68.3336 15.0708C68.1048 15.1516 67.8452 15.1926 67.5546 15.1926C67.1691 15.1926 66.8118 15.1194 66.4821 14.9742C66.1526 14.8286 65.8678 14.63 65.6274 14.3784L66.0465 13.8916Z"
                              fill="#213369"/>
                        <path id="Fill-22" fill-rule="evenodd" clip-rule="evenodd"
                              d="M70.646 11.0129H71.2159L71.2746 11.6005H71.2998C71.4784 11.4047 71.6724 11.2412 71.8821 11.1093C72.0914 10.9781 72.319 10.9121 72.565 10.9121C72.8775 10.9121 73.1222 10.9807 73.2979 11.1178C73.4741 11.255 73.6038 11.4468 73.6877 11.6926C73.8998 11.4578 74.1136 11.2689 74.3288 11.1261C74.5435 10.9837 74.7768 10.9121 75.0279 10.9121C75.447 10.9121 75.7582 11.0465 75.9624 11.315C76.1663 11.5837 76.268 11.981 76.268 12.5066V15.0918H75.5811V12.5991C75.5811 12.213 75.5195 11.9346 75.3967 11.7641C75.2738 11.5936 75.0838 11.508 74.8271 11.508C74.5197 11.508 74.1792 11.7177 73.8048 12.1374V15.0918H73.1178V12.5991C73.1178 12.213 73.0562 11.9346 72.9336 11.7641C72.8105 11.5936 72.6179 11.508 72.3553 11.508C72.0481 11.508 71.7075 11.7177 71.3334 12.1374V15.0918H70.646V11.0129Z"
                              fill="#213369"/>
                        <path id="Fill-24" fill-rule="evenodd" clip-rule="evenodd"
                              d="M78.1112 13.9841C78.1112 14.219 78.1798 14.387 78.3165 14.4877C78.4533 14.5882 78.6224 14.6386 78.8234 14.6386C79.0187 14.6386 79.2048 14.5926 79.3806 14.5002C79.5566 14.4079 79.7422 14.2724 79.9381 14.093V12.96C79.5971 13.005 79.3093 13.0582 79.0751 13.1196C78.8402 13.1813 78.6517 13.254 78.5094 13.3377C78.3668 13.4217 78.2648 13.5182 78.2035 13.6274C78.1418 13.7366 78.1112 13.8555 78.1112 13.9841ZM77.4326 14.0345C77.4326 13.5867 77.6322 13.2441 78.0318 13.0064C78.4311 12.7686 79.0666 12.6021 79.9381 12.5068C79.9381 12.3781 79.9251 12.2525 79.9001 12.1291C79.875 12.0064 79.8301 11.8972 79.7658 11.802C79.7016 11.707 79.6163 11.6298 79.5107 11.571C79.4042 11.5123 79.2675 11.483 79.1002 11.483C78.8599 11.483 78.6379 11.528 78.4338 11.6174C78.2298 11.707 78.0471 11.8077 77.8852 11.9195L77.6085 11.4411C77.7983 11.318 78.0302 11.1992 78.3041 11.0843C78.5777 10.9698 78.8791 10.9121 79.2087 10.9121C79.7061 10.9121 80.0663 11.0648 80.2897 11.3698C80.513 11.6748 80.6249 12.0816 80.6249 12.5908V15.0919H80.0551L79.9964 14.6051H79.9795C79.7842 14.7675 79.5735 14.9059 79.3474 15.0207C79.1209 15.135 78.8822 15.1927 78.6309 15.1927C78.2846 15.1927 77.9982 15.0919 77.7718 14.8903C77.5458 14.6889 77.4326 14.4037 77.4326 14.0345Z"
                              fill="#213369"/>
                        <path id="Fill-26" fill-rule="evenodd" clip-rule="evenodd"
                              d="M82.1328 9.11621H82.82V14.3197C82.82 14.4318 82.8393 14.5099 82.8786 14.5545C82.9176 14.5995 82.9623 14.6216 83.0126 14.6216H83.0753C83.095 14.6216 83.1242 14.6162 83.1636 14.6049L83.2559 15.1252C83.2109 15.1476 83.1577 15.1643 83.0965 15.1758C83.0349 15.1868 82.9569 15.1925 82.8617 15.1925C82.5993 15.1925 82.4121 15.1141 82.3006 14.9574C82.1887 14.801 82.1328 14.5713 82.1328 14.2692V9.11621Z"
                              fill="#213369"/>
                        <path id="Fill-28" fill-rule="evenodd" clip-rule="evenodd"
                              d="M84.4785 9.11621H85.1657V14.3197C85.1657 14.4318 85.185 14.5099 85.2243 14.5545C85.2633 14.5995 85.308 14.6216 85.3583 14.6216H85.421C85.4407 14.6216 85.4699 14.6162 85.5093 14.6049L85.6016 15.1252C85.5566 15.1476 85.5034 15.1643 85.4422 15.1758C85.3806 15.1868 85.3026 15.1925 85.2074 15.1925C84.9448 15.1925 84.7578 15.1141 84.6463 14.9574C84.5344 14.801 84.4785 14.5713 84.4785 14.2692V9.11621Z"
                              fill="#213369"/>
                        <path id="Fill-30" fill-rule="evenodd" clip-rule="evenodd"
                              d="M90.444 14.5374C90.9188 14.5374 91.2875 14.4494 91.55 14.2734C91.8126 14.0969 91.9437 13.8216 91.9437 13.4465C91.9437 13.1053 91.8154 12.8547 91.5584 12.6951C91.3014 12.5359 90.9302 12.4563 90.444 12.4563H89.4888V14.5374H90.444ZM90.3014 11.9358C90.7763 11.9358 91.1158 11.8548 91.3195 11.6922C91.5234 11.5301 91.6254 11.2952 91.6254 10.9872C91.6254 10.6853 91.5178 10.4683 91.3028 10.3368C91.0876 10.2058 90.7653 10.1396 90.335 10.1396H89.4888V11.9358H90.3014ZM88.7935 9.58594H90.4275C90.7066 9.58594 90.9622 9.61113 91.1941 9.66118C91.4257 9.71156 91.624 9.79015 91.7887 9.89633C91.9536 10.0027 92.082 10.141 92.1742 10.3116C92.2665 10.4825 92.3123 10.6882 92.3123 10.9286C92.3123 11.2028 92.2343 11.4505 92.078 11.6713C91.9214 11.8924 91.6811 12.045 91.3574 12.1287V12.1623C91.7597 12.224 92.0725 12.3638 92.2956 12.5819C92.519 12.8003 92.6311 13.0994 92.6311 13.4801C92.6311 13.7484 92.5808 13.9837 92.48 14.1849C92.3795 14.3866 92.2373 14.5541 92.0527 14.6885C91.8683 14.8231 91.6477 14.9233 91.391 14.9906C91.1339 15.0579 90.8518 15.0915 90.5448 15.0915H88.7935V9.58594Z"
                              fill="#213369"/>
                        <path id="Fill-32" fill-rule="evenodd" clip-rule="evenodd"
                              d="M93.6362 11.0127H94.332V13.5054C94.332 13.8915 94.3917 14.1697 94.512 14.3403C94.632 14.5112 94.826 14.5963 95.0944 14.5963C95.3065 14.5963 95.4937 14.5419 95.6555 14.4327C95.8177 14.3235 95.9964 14.149 96.1919 13.9082V11.0127H96.8788V15.0916H96.3093L96.2506 14.4538H96.2255C96.0354 14.6774 95.8355 14.8568 95.6264 14.9909C95.417 15.1251 95.17 15.1924 94.8848 15.1924C94.449 15.1924 94.1321 15.058 93.9338 14.7895C93.7355 14.5207 93.6362 14.1238 93.6362 13.5979V11.0127Z"
                              fill="#213369"/>
                        <path id="Fill-34" fill-rule="evenodd" clip-rule="evenodd"
                              d="M98.3537 14.1684C98.5323 14.3141 98.7151 14.4318 98.9023 14.5209C99.0894 14.6107 99.3056 14.6553 99.5518 14.6553C99.8198 14.6553 100.021 14.5939 100.155 14.4708C100.289 14.3478 100.356 14.1966 100.356 14.0176C100.356 13.9113 100.328 13.819 100.272 13.7404C100.216 13.6623 100.145 13.5936 100.059 13.5347C99.9718 13.4764 99.8726 13.4244 99.7611 13.3796C99.6492 13.335 99.5375 13.29 99.4259 13.2455C99.2804 13.1952 99.1353 13.1378 98.9903 13.0735C98.8448 13.0093 98.7151 12.9307 98.6005 12.8382C98.4859 12.7459 98.3927 12.6385 98.3201 12.5151C98.2472 12.3923 98.2111 12.2441 98.2111 12.0706C98.2111 11.908 98.2432 11.7558 98.3074 11.6129C98.3715 11.4701 98.4637 11.3475 98.5837 11.2437C98.704 11.1402 98.8506 11.0593 99.0239 11.0004C99.197 10.9416 99.3923 10.9121 99.6102 10.9121C99.8672 10.9121 100.103 10.9569 100.318 11.0465C100.533 11.1359 100.719 11.2451 100.875 11.3738L100.549 11.8101C100.409 11.7039 100.264 11.6174 100.113 11.5501C99.9622 11.4828 99.7975 11.4494 99.6185 11.4494C99.3617 11.4494 99.1732 11.5082 99.053 11.6257C98.933 11.743 98.8728 11.8803 98.8728 12.037C98.8728 12.132 98.898 12.2144 98.9483 12.2842C98.9987 12.3544 99.0657 12.4161 99.1496 12.469C99.233 12.5224 99.3298 12.5699 99.4383 12.6118C99.5473 12.6539 99.6605 12.697 99.7778 12.7419C99.9229 12.7977 100.069 12.8566 100.218 12.9179C100.366 12.9796 100.498 13.0566 100.616 13.1488C100.733 13.2412 100.829 13.3544 100.905 13.4888C100.98 13.6232 101.018 13.7853 101.018 13.9757C101.018 14.1432 100.986 14.2999 100.922 14.4457C100.857 14.5911 100.762 14.7197 100.637 14.8318C100.511 14.9435 100.355 15.0318 100.168 15.0958C99.9802 15.16 99.7665 15.1925 99.5266 15.1925C99.236 15.1925 98.9597 15.1393 98.6971 15.033C98.4342 14.9266 98.2052 14.7927 98.0098 14.6301L98.3537 14.1684Z"
                              fill="#213369"/>
                        <g id="Mask group_2">
                            <mask id="mask1_5597_10138" style="mask-type:luminance" maskUnits="userSpaceOnUse" x="0"
                                  y="0" width="120" height="34">
                                <g id="Group_2">
                                    <path id="Vector_2" d="M0 33.5H119.886V0.555664H0V33.5Z" fill="white"/>
                                </g>
                            </mask>
                            <g mask="url(#mask1_5597_10138)">
                                <path id="Fill-36" fill-rule="evenodd" clip-rule="evenodd"
                                      d="M102.182 15.0912H102.869V11.0123H102.182V15.0912ZM102.534 10.1729C102.4 10.1729 102.287 10.1308 102.195 10.0473C102.103 9.96329 102.057 9.85696 102.057 9.72815C102.057 9.59407 102.103 9.4863 102.195 9.40516C102.287 9.32417 102.4 9.2832 102.534 9.2832C102.668 9.2832 102.781 9.32417 102.873 9.40516C102.966 9.4863 103.012 9.59407 103.012 9.72815C103.012 9.85696 102.966 9.96329 102.873 10.0473C102.781 10.1308 102.668 10.1729 102.534 10.1729Z"
                                      fill="#213369"/>
                            </g>
                        </g>
                        <g id="Mask group_3">
                            <mask id="mask2_5597_10138" style="mask-type:luminance" maskUnits="userSpaceOnUse" x="0"
                                  y="0" width="120" height="34">
                                <g id="Group_3">
                                    <path id="Vector_3" d="M0 33.5H119.886V0.555664H0V33.5Z" fill="white"/>
                                </g>
                            </mask>
                            <g mask="url(#mask2_5597_10138)">
                                <path id="Fill-38" fill-rule="evenodd" clip-rule="evenodd"
                                      d="M104.453 11.0129H105.023L105.082 11.6005H105.107C105.302 11.4047 105.508 11.2412 105.723 11.1093C105.938 10.9781 106.188 10.9121 106.472 10.9121C106.903 10.9121 107.216 11.0465 107.415 11.315C107.613 11.5837 107.712 11.981 107.712 12.5066V15.0918H107.025V12.5991C107.025 12.213 106.964 11.9346 106.841 11.7641C106.718 11.5936 106.523 11.508 106.255 11.508C106.042 11.508 105.855 11.5614 105.693 11.6673C105.531 11.7739 105.347 11.9306 105.14 12.1374V15.0918H104.453V11.0129Z"
                                      fill="#213369"/>
                            </g>
                        </g>
                        <g id="Mask group_4">
                            <mask id="mask3_5597_10138" style="mask-type:luminance" maskUnits="userSpaceOnUse" x="0"
                                  y="0" width="120" height="34">
                                <g id="Group_4">
                                    <path id="Vector_4" d="M0 33.5H119.886V0.555664H0V33.5Z" fill="white"/>
                                </g>
                            </mask>
                            <g mask="url(#mask3_5597_10138)">
                                <path id="Fill-39" fill-rule="evenodd" clip-rule="evenodd"
                                      d="M111.793 12.7504C111.793 12.3308 111.705 12.0104 111.529 11.7894C111.353 11.5684 111.106 11.4578 110.787 11.4578C110.642 11.4578 110.504 11.487 110.372 11.5458C110.241 11.6046 110.122 11.6886 110.016 11.7978C109.91 11.9067 109.822 12.0411 109.753 12.2007C109.682 12.36 109.636 12.5433 109.614 12.7504H111.793ZM108.944 13.0608C108.944 12.7252 108.996 12.4245 109.099 12.1588C109.202 11.8929 109.339 11.6674 109.509 11.483C109.68 11.2982 109.874 11.1571 110.092 11.0594C110.31 10.9614 110.536 10.9121 110.77 10.9121C111.027 10.9121 111.258 10.9571 111.461 11.0465C111.665 11.1361 111.836 11.2649 111.973 11.4326C112.109 11.6006 112.214 11.8018 112.287 12.037C112.36 12.272 112.396 12.5348 112.396 12.8259C112.396 12.9768 112.387 13.1027 112.371 13.2036H109.622C109.65 13.6455 109.786 13.9955 110.029 14.2526C110.272 14.5101 110.589 14.6386 110.98 14.6386C111.175 14.6386 111.355 14.6094 111.52 14.5506C111.685 14.4917 111.843 14.4151 111.994 14.3197L112.237 14.7731C112.058 14.8847 111.86 14.9826 111.642 15.0666C111.424 15.1506 111.175 15.1927 110.896 15.1927C110.622 15.1927 110.367 15.1433 110.13 15.0457C109.892 14.948 109.685 14.808 109.509 14.6261C109.334 14.4442 109.195 14.2218 109.095 13.9589C108.994 13.6959 108.944 13.3965 108.944 13.0608Z"
                                      fill="#213369"/>
                            </g>
                        </g>
                        <g id="Mask group_5">
                            <mask id="mask4_5597_10138" style="mask-type:luminance" maskUnits="userSpaceOnUse" x="0"
                                  y="0" width="120" height="34">
                                <g id="Group_5">
                                    <path id="Vector_5" d="M0 33.5H119.886V0.555664H0V33.5Z" fill="white"/>
                                </g>
                            </mask>
                            <g mask="url(#mask4_5597_10138)">
                                <path id="Fill-40" fill-rule="evenodd" clip-rule="evenodd"
                                      d="M113.501 14.1684C113.68 14.3141 113.863 14.4318 114.05 14.5209C114.237 14.6107 114.453 14.6553 114.7 14.6553C114.968 14.6553 115.169 14.5939 115.303 14.4708C115.437 14.3478 115.504 14.1966 115.504 14.0176C115.504 13.9113 115.476 13.819 115.42 13.7404C115.364 13.6623 115.293 13.5936 115.206 13.5347C115.12 13.4764 115.02 13.4244 114.909 13.3796C114.797 13.335 114.685 13.29 114.574 13.2455C114.428 13.1952 114.283 13.1378 114.138 13.0735C113.993 13.0093 113.863 12.9307 113.748 12.8382C113.634 12.7459 113.54 12.6385 113.468 12.5151C113.395 12.3923 113.359 12.2441 113.359 12.0706C113.359 11.908 113.391 11.7558 113.455 11.6129C113.519 11.4701 113.612 11.3475 113.731 11.2437C113.852 11.1402 113.999 11.0593 114.172 11.0004C114.345 10.9416 114.54 10.9121 114.758 10.9121C115.015 10.9121 115.251 10.9569 115.466 11.0465C115.681 11.1359 115.867 11.2451 116.023 11.3738L115.696 11.8101C115.557 11.7039 115.412 11.6174 115.261 11.5501C115.11 11.4828 114.945 11.4494 114.766 11.4494C114.51 11.4494 114.321 11.5082 114.201 11.6257C114.081 11.743 114.021 11.8803 114.021 12.037C114.021 12.132 114.046 12.2144 114.096 12.2842C114.147 12.3544 114.214 12.4161 114.297 12.469C114.381 12.5224 114.478 12.5699 114.586 12.6118C114.695 12.6539 114.808 12.697 114.926 12.7419C115.071 12.7977 115.217 12.8566 115.365 12.9179C115.513 12.9796 115.646 13.0566 115.764 13.1488C115.881 13.2412 115.977 13.3544 116.053 13.4888C116.128 13.6232 116.166 13.7853 116.166 13.9757C116.166 14.1432 116.134 14.2999 116.07 14.4457C116.005 14.5911 115.91 14.7197 115.784 14.8318C115.659 14.9435 115.502 15.0318 115.315 15.0958C115.128 15.16 114.914 15.1925 114.674 15.1925C114.384 15.1925 114.108 15.1393 113.845 15.033C113.582 14.9266 113.353 14.7927 113.158 14.6301L113.501 14.1684Z"
                                      fill="#213369"/>
                            </g>
                        </g>
                        <g id="Mask group_6">
                            <mask id="mask5_5597_10138" style="mask-type:luminance" maskUnits="userSpaceOnUse" x="0"
                                  y="0" width="120" height="34">
                                <g id="Group_6">
                                    <path id="Vector_6" d="M0 33.5H119.886V0.555664H0V33.5Z" fill="white"/>
                                </g>
                            </mask>
                            <g mask="url(#mask5_5597_10138)">
                                <path id="Fill-41" fill-rule="evenodd" clip-rule="evenodd"
                                      d="M117.222 14.1684C117.4 14.3141 117.583 14.4318 117.77 14.5209C117.957 14.6107 118.174 14.6553 118.42 14.6553C118.688 14.6553 118.889 14.5939 119.023 14.4708C119.157 14.3478 119.224 14.1966 119.224 14.0176C119.224 13.9113 119.196 13.819 119.14 13.7404C119.084 13.6623 119.013 13.5936 118.927 13.5347C118.84 13.4764 118.741 13.4244 118.629 13.3796C118.517 13.335 118.405 13.29 118.294 13.2455C118.149 13.1952 118.003 13.1378 117.858 13.0735C117.713 13.0093 117.583 12.9307 117.469 12.8382C117.354 12.7459 117.261 12.6385 117.188 12.5151C117.115 12.3923 117.079 12.2441 117.079 12.0706C117.079 11.908 117.111 11.7558 117.175 11.6129C117.24 11.4701 117.332 11.3475 117.452 11.2437C117.572 11.1402 117.719 11.0593 117.892 11.0004C118.065 10.9416 118.26 10.9121 118.478 10.9121C118.735 10.9121 118.971 10.9569 119.186 11.0465C119.401 11.1359 119.587 11.2451 119.743 11.3738L119.417 11.8101C119.277 11.7039 119.132 11.6174 118.981 11.5501C118.83 11.4828 118.666 11.4494 118.486 11.4494C118.23 11.4494 118.041 11.5082 117.921 11.6257C117.801 11.743 117.741 11.8803 117.741 12.037C117.741 12.132 117.766 12.2144 117.816 12.2842C117.867 12.3544 117.934 12.4161 118.018 12.469C118.101 12.5224 118.198 12.5699 118.306 12.6118C118.415 12.6539 118.528 12.697 118.646 12.7419C118.791 12.7977 118.938 12.8566 119.086 12.9179C119.234 12.9796 119.366 13.0566 119.484 13.1488C119.601 13.2412 119.697 13.3544 119.773 13.4888C119.848 13.6232 119.886 13.7853 119.886 13.9757C119.886 14.1432 119.854 14.2999 119.79 14.4457C119.725 14.5911 119.63 14.7197 119.505 14.8318C119.379 14.9435 119.223 15.0318 119.036 15.0958C118.848 15.16 118.635 15.1925 118.395 15.1925C118.104 15.1925 117.828 15.1393 117.565 15.033C117.302 14.9266 117.073 14.7927 116.878 14.6301L117.222 14.1684Z"
                                      fill="#213369"/>
                            </g>
                        </g>
                        <g id="Mask group_7">
                            <mask id="mask6_5597_10138" style="mask-type:luminance" maskUnits="userSpaceOnUse" x="0"
                                  y="0" width="120" height="34">
                                <g id="Group_7">
                                    <path id="Vector_7" d="M0 33.5H119.886V0.555664H0V33.5Z" fill="white"/>
                                </g>
                            </mask>
                            <g mask="url(#mask6_5597_10138)">
                                <path id="Fill-42" fill-rule="evenodd" clip-rule="evenodd"
                                      d="M53.3867 22.2931L53.1271 21.4537C53.0265 21.1459 52.9318 20.8398 52.8424 20.5345C52.7528 20.2299 52.6633 19.9176 52.574 19.5987H52.5405C52.4569 19.9176 52.3702 20.2299 52.2809 20.5345C52.1915 20.8398 52.0968 21.1459 51.9962 21.4537L51.7361 22.2931H53.3867ZM53.5629 22.8552H51.5603L51.0325 24.5337H50.3203L52.1803 19.0283H52.9678L54.8281 24.5337H54.0825L53.5629 22.8552Z"
                                      fill="#213369"/>
                            </g>
                        </g>
                        <g id="Mask group_8">
                            <mask id="mask7_5597_10138" style="mask-type:luminance" maskUnits="userSpaceOnUse" x="0"
                                  y="0" width="120" height="34">
                                <g id="Group_8">
                                    <path id="Vector_8" d="M0 33.5H119.886V0.555664H0V33.5Z" fill="white"/>
                                </g>
                            </mask>
                            <g mask="url(#mask7_5597_10138)">
                                <path id="Fill-43" fill-rule="evenodd" clip-rule="evenodd"
                                      d="M56.1683 22.4937C56.1683 22.986 56.266 23.3696 56.4617 23.6434C56.6572 23.9178 56.9336 24.0547 57.2909 24.0547C57.4808 24.0547 57.6598 24.0087 57.8272 23.9162C57.995 23.8239 58.1623 23.6828 58.33 23.4926V21.3609C58.1569 21.2042 57.9905 21.0934 57.8315 21.0291C57.6722 20.9649 57.5089 20.9327 57.3412 20.9327C57.1793 20.9327 57.0272 20.9703 56.8848 21.0458C56.742 21.1216 56.6177 21.2279 56.5117 21.3647C56.4056 21.5021 56.3218 21.6657 56.2604 21.856C56.1988 22.0462 56.1683 22.2589 56.1683 22.4937ZM55.4561 22.5022C55.4561 22.1718 55.5051 21.8742 55.6026 21.6084C55.7005 21.3425 55.8302 21.1171 55.9926 20.9327C56.1544 20.7479 56.3414 20.6055 56.5537 20.5046C56.7659 20.4039 56.9893 20.3535 57.2242 20.3535C57.4585 20.3535 57.6625 20.3954 57.8357 20.4794C58.0087 20.5634 58.1845 20.6781 58.3636 20.8235L58.33 20.127V18.5576H59.0253V24.5332H58.4559L58.3972 24.0547H58.372C58.2097 24.2113 58.0241 24.3473 57.8148 24.4619C57.6051 24.5762 57.3802 24.6339 57.1402 24.6339C56.6261 24.6339 56.2171 24.4492 55.9127 24.0799C55.608 23.7107 55.4561 23.1846 55.4561 22.5022Z"
                                      fill="#213369"/>
                            </g>
                        </g>
                        <g id="Mask group_9">
                            <mask id="mask8_5597_10138" style="mask-type:luminance" maskUnits="userSpaceOnUse" x="0"
                                  y="0" width="120" height="34">
                                <g id="Group_9">
                                    <path id="Vector_9" d="M0 33.5H119.886V0.555664H0V33.5Z" fill="white"/>
                                </g>
                            </mask>
                            <g mask="url(#mask8_5597_10138)">
                                <path id="Fill-44" fill-rule="evenodd" clip-rule="evenodd"
                                      d="M60.4409 20.4543H61.0108L61.0696 21.0421H61.0947C61.2733 20.8461 61.4673 20.6826 61.677 20.5507C61.8863 20.4195 62.1139 20.3535 62.36 20.3535C62.6724 20.3535 62.9171 20.4221 63.0929 20.5592C63.269 20.6964 63.3987 20.8882 63.4825 21.134C63.6948 20.8992 63.9085 20.7103 64.1237 20.5675C64.3382 20.4251 64.5717 20.3535 64.8228 20.3535C65.2419 20.3535 65.5532 20.4879 65.7574 20.7564C65.9612 21.0252 66.0629 21.4226 66.0629 21.948V24.5332H65.376V22.0405C65.376 21.6544 65.3144 21.3762 65.1916 21.2055C65.0686 21.035 64.8787 20.9494 64.622 20.9494C64.3147 20.9494 63.9741 21.1592 63.5998 21.5788V24.5332H62.9127V22.0405C62.9127 21.6544 62.8511 21.3762 62.7286 21.2055C62.6054 21.035 62.4128 20.9494 62.1502 20.9494C61.843 20.9494 61.5023 21.1592 61.1283 21.5788V24.5332H60.4409V20.4543Z"
                                      fill="#213369"/>
                            </g>
                        </g>
                        <g id="Mask group_10">
                            <mask id="mask9_5597_10138" style="mask-type:luminance" maskUnits="userSpaceOnUse" x="0"
                                  y="0" width="120" height="34">
                                <g id="Group_10">
                                    <path id="Vector_10" d="M0 33.5H119.886V0.555664H0V33.5Z" fill="white"/>
                                </g>
                            </mask>
                            <g mask="url(#mask9_5597_10138)">
                                <path id="Fill-45" fill-rule="evenodd" clip-rule="evenodd"
                                      d="M67.5963 24.5334H68.2835V20.4545H67.5963V24.5334ZM67.948 19.6153C67.8143 19.6153 67.7012 19.5732 67.609 19.4897C67.5167 19.4057 67.4707 19.2993 67.4707 19.1704C67.4707 19.0363 67.5167 18.9287 67.609 18.8475C67.7012 18.7666 67.8143 18.7256 67.948 18.7256C68.0822 18.7256 68.1952 18.7666 68.2875 18.8475C68.3796 18.9287 68.4256 19.0363 68.4256 19.1704C68.4256 19.2993 68.3796 19.4057 68.2875 19.4897C68.1952 19.5732 68.0822 19.6153 67.948 19.6153Z"
                                      fill="#213369"/>
                            </g>
                        </g>
                        <g id="Mask group_11">
                            <mask id="mask10_5597_10138" style="mask-type:luminance" maskUnits="userSpaceOnUse" x="0"
                                  y="0" width="120" height="34">
                                <g id="Group_11">
                                    <path id="Vector_11" d="M0 33.5H119.886V0.555664H0V33.5Z" fill="white"/>
                                </g>
                            </mask>
                            <g mask="url(#mask10_5597_10138)">
                                <path id="Fill-46" fill-rule="evenodd" clip-rule="evenodd"
                                      d="M69.8667 20.4543H70.4366L70.4953 21.0421H70.5203C70.7159 20.8461 70.9212 20.6826 71.1364 20.5507C71.3511 20.4195 71.6011 20.3535 71.886 20.3535C72.3162 20.3535 72.63 20.4879 72.8283 20.7564C73.0268 21.0252 73.126 21.4226 73.126 21.948V24.5332H72.4391V22.0405C72.4391 21.6544 72.3773 21.3762 72.2546 21.2055C72.1316 21.035 71.9363 20.9494 71.6683 20.9494C71.4557 20.9494 71.2687 21.0028 71.1068 21.1087C70.9448 21.2153 70.7603 21.3721 70.5539 21.5788V24.5332H69.8667V20.4543Z"
                                      fill="#213369"/>
                            </g>
                        </g>
                        <g id="Mask group_12">
                            <mask id="mask11_5597_10138" style="mask-type:luminance" maskUnits="userSpaceOnUse" x="0"
                                  y="0" width="120" height="34">
                                <g id="Group_12">
                                    <path id="Vector_12" d="M0 33.5H119.886V0.555664H0V33.5Z" fill="white"/>
                                </g>
                            </mask>
                            <g mask="url(#mask11_5597_10138)">
                                <path id="Fill-47" fill-rule="evenodd" clip-rule="evenodd"
                                      d="M74.6591 24.5334H75.3463V20.4545H74.6591V24.5334ZM75.0108 19.6153C74.8771 19.6153 74.7641 19.5732 74.672 19.4897C74.5795 19.4057 74.5337 19.2993 74.5337 19.1704C74.5337 19.0363 74.5795 18.9287 74.672 18.8475C74.7641 18.7666 74.8771 18.7256 75.0108 18.7256C75.1452 18.7256 75.2581 18.7666 75.3505 18.8475C75.4426 18.9287 75.4886 19.0363 75.4886 19.1704C75.4886 19.2993 75.4426 19.4057 75.3505 19.4897C75.2581 19.5732 75.1452 19.6153 75.0108 19.6153Z"
                                      fill="#213369"/>
                            </g>
                        </g>
                        <g id="Mask group_13">
                            <mask id="mask12_5597_10138" style="mask-type:luminance" maskUnits="userSpaceOnUse" x="0"
                                  y="0" width="120" height="34">
                                <g id="Group_13">
                                    <path id="Vector_13" d="M0 33.5H119.886V0.555664H0V33.5Z" fill="white"/>
                                </g>
                            </mask>
                            <g mask="url(#mask12_5597_10138)">
                                <path id="Fill-48" fill-rule="evenodd" clip-rule="evenodd"
                                      d="M76.8213 23.61C76.9999 23.7557 77.1827 23.8732 77.3701 23.9623C77.5571 24.0522 77.7732 24.0969 78.0194 24.0969C78.2874 24.0969 78.4884 24.0355 78.6224 23.9124C78.7566 23.7893 78.8237 23.6381 78.8237 23.4592C78.8237 23.3528 78.7956 23.2604 78.7399 23.1819C78.6837 23.1038 78.6127 23.0351 78.5263 22.9763C78.4394 22.9178 78.3402 22.866 78.2287 22.821C78.1168 22.7765 78.0051 22.7316 77.8935 22.687C77.748 22.6367 77.6031 22.5793 77.4579 22.5149C77.3124 22.4507 77.1827 22.3723 77.0681 22.2798C76.9536 22.1873 76.8603 22.08 76.7877 21.9565C76.7148 21.8339 76.6787 21.6856 76.6787 21.512C76.6787 21.3496 76.7109 21.1973 76.775 21.0545C76.8391 20.9116 76.9313 20.7889 77.0513 20.6851C77.1716 20.5818 77.3182 20.5008 77.4915 20.442C77.6646 20.3832 77.8601 20.3535 78.0778 20.3535C78.3348 20.3535 78.5707 20.3985 78.7859 20.4881C79.0009 20.5775 79.1864 20.6867 79.3431 20.8152L79.0163 21.2517C78.8766 21.1454 78.7314 21.0588 78.5806 20.9917C78.4298 20.9244 78.2651 20.8908 78.0861 20.8908C77.8294 20.8908 77.6409 20.9496 77.5206 21.0672C77.4008 21.1844 77.3406 21.3218 77.3406 21.4784C77.3406 21.5734 77.3656 21.656 77.4159 21.7258C77.4663 21.7959 77.5335 21.8576 77.6172 21.9106C77.7006 21.9638 77.7974 22.0113 77.9059 22.0533C78.0151 22.0953 78.1281 22.1385 78.2454 22.1833C78.3905 22.2393 78.5371 22.2981 78.6851 22.3593C78.8333 22.421 78.966 22.4982 79.0833 22.5903C79.2008 22.6826 79.2971 22.7958 79.3725 22.9302C79.4479 23.0646 79.4855 23.2269 79.4855 23.4171C79.4855 23.5848 79.4533 23.7415 79.3894 23.8872C79.3246 24.0325 79.2299 24.1611 79.1042 24.2732C78.9788 24.3849 78.8223 24.4734 78.6351 24.5372C78.4478 24.6016 78.2342 24.6341 77.9942 24.6341C77.7036 24.6341 77.4274 24.5807 77.1648 24.4744C76.9018 24.3682 76.6728 24.2341 76.4775 24.0717L76.8213 23.61Z"
                                      fill="#213369"/>
                            </g>
                        </g>
                        <g id="Mask group_14">
                            <mask id="mask13_5597_10138" style="mask-type:luminance" maskUnits="userSpaceOnUse" x="0"
                                  y="0" width="120" height="34">
                                <g id="Group_14">
                                    <path id="Vector_14" d="M0 33.5H119.886V0.555664H0V33.5Z" fill="white"/>
                                </g>
                            </mask>
                            <g mask="url(#mask13_5597_10138)">
                                <path id="Fill-49" fill-rule="evenodd" clip-rule="evenodd"
                                      d="M80.7671 21.0174H80.1641V20.4969L80.8007 20.4549L80.8845 19.3135H81.4624V20.4549H82.5604V21.0174H81.4624V23.2832C81.4624 23.5349 81.5087 23.7296 81.6006 23.8665C81.6929 24.0038 81.8563 24.0722 82.0911 24.0722C82.1635 24.0722 82.2416 24.0612 82.3255 24.0385C82.4094 24.0162 82.4848 23.991 82.552 23.963L82.6858 24.4833C82.5743 24.5224 82.4523 24.5576 82.3215 24.5882C82.1902 24.6188 82.06 24.6346 81.9316 24.6346C81.714 24.6346 81.531 24.601 81.383 24.5339C81.2348 24.4666 81.115 24.3741 81.0227 24.2569C80.9304 24.1393 80.8648 23.9964 80.8258 23.8289C80.7865 23.6609 80.7671 23.4764 80.7671 23.2749V21.0174Z"
                                      fill="#213369"/>
                            </g>
                        </g>
                        <g id="Mask group_15">
                            <mask id="mask14_5597_10138" style="mask-type:luminance" maskUnits="userSpaceOnUse" x="0"
                                  y="0" width="120" height="34">
                                <g id="Group_15">
                                    <path id="Vector_15" d="M0 33.5H119.886V0.555664H0V33.5Z" fill="white"/>
                                </g>
                            </mask>
                            <g mask="url(#mask14_5597_10138)">
                                <path id="Fill-50" fill-rule="evenodd" clip-rule="evenodd"
                                      d="M83.6914 20.4543H84.2612L84.3199 21.1927H84.345C84.4843 20.9357 84.6536 20.7312 84.8519 20.5804C85.0502 20.4291 85.2664 20.3535 85.5013 20.3535C85.6633 20.3535 85.8083 20.3816 85.937 20.4375L85.8029 21.0421C85.7359 21.0196 85.6741 21.0028 85.6187 20.9915C85.5625 20.9802 85.4928 20.9748 85.4091 20.9748C85.2358 20.9748 85.0557 21.0449 84.8687 21.1844C84.6813 21.3242 84.5179 21.5678 84.3786 21.9146V24.5332H83.6914V20.4543Z"
                                      fill="#213369"/>
                            </g>
                        </g>
                        <g id="Mask group_16">
                            <mask id="mask15_5597_10138" style="mask-type:luminance" maskUnits="userSpaceOnUse" x="0"
                                  y="0" width="120" height="34">
                                <g id="Group_16">
                                    <path id="Vector_16" d="M0 33.5H119.886V0.555664H0V33.5Z" fill="white"/>
                                </g>
                            </mask>
                            <g mask="url(#mask15_5597_10138)">
                                <path id="Fill-51" fill-rule="evenodd" clip-rule="evenodd"
                                      d="M87.0761 23.4255C87.0761 23.6604 87.1447 23.8284 87.2812 23.9292C87.4179 24.0297 87.5873 24.08 87.7881 24.08C87.9836 24.08 88.1694 24.0341 88.3453 23.9416C88.5213 23.8493 88.7069 23.7138 88.9028 23.5344V22.4014C88.5619 22.4464 88.2742 22.4996 88.0397 22.561C87.8048 22.6227 87.6164 22.6954 87.4743 22.7791C87.3315 22.8631 87.2295 22.9596 87.1682 23.0688C87.1066 23.178 87.0761 23.2971 87.0761 23.4255ZM86.3975 23.4759C86.3975 23.0281 86.5969 22.6855 86.9965 22.4478C87.3958 22.21 88.0313 22.0435 88.9028 21.9482C88.9028 21.8197 88.8899 21.6941 88.8648 21.5705C88.8396 21.4478 88.7949 21.3386 88.7306 21.2434C88.6665 21.1484 88.5812 21.0712 88.4755 21.0124C88.369 20.9537 88.2323 20.9246 88.0649 20.9246C87.8246 20.9246 87.6026 20.9694 87.3987 21.0588C87.1945 21.1484 87.0119 21.2491 86.8499 21.3609L86.5733 20.8825C86.7632 20.7594 86.9951 20.6406 87.269 20.5257C87.5424 20.4114 87.8438 20.3535 88.1736 20.3535C88.6709 20.3535 89.0311 20.5062 89.2545 20.8112C89.4778 21.1162 89.5897 21.523 89.5897 22.0322V24.5334H89.0198L88.9611 24.0465H88.9442C88.7489 24.2089 88.5382 24.3475 88.3122 24.4621C88.0857 24.5764 87.8468 24.6341 87.5957 24.6341C87.2492 24.6341 86.9629 24.5334 86.7366 24.3317C86.5105 24.1305 86.3975 23.8451 86.3975 23.4759Z"
                                      fill="#213369"/>
                            </g>
                        </g>
                        <g id="Mask group_17">
                            <mask id="mask16_5597_10138" style="mask-type:luminance" maskUnits="userSpaceOnUse" x="0"
                                  y="0" width="120" height="34">
                                <g id="Group_17">
                                    <path id="Vector_17" d="M0 33.5H119.886V0.555664H0V33.5Z" fill="white"/>
                                </g>
                            </mask>
                            <g mask="url(#mask16_5597_10138)">
                                <path id="Fill-52" fill-rule="evenodd" clip-rule="evenodd"
                                      d="M91.2148 21.0174H90.6118V20.4969L91.2484 20.4549L91.3321 19.3135H91.9102V20.4549H93.008V21.0174H91.9102V23.2832C91.9102 23.5349 91.9565 23.7296 92.0483 23.8665C92.1405 24.0038 92.3039 24.0722 92.5387 24.0722C92.6112 24.0722 92.6894 24.0612 92.7732 24.0385C92.857 24.0162 92.9326 23.991 92.9996 23.963L93.1334 24.4833C93.0218 24.5224 92.9001 24.5576 92.7693 24.5882C92.6378 24.6188 92.5078 24.6346 92.3794 24.6346C92.1616 24.6346 91.9788 24.601 91.8306 24.5339C91.6826 24.4666 91.5627 24.3741 91.4703 24.2569C91.3781 24.1393 91.3126 23.9964 91.2736 23.8289C91.2341 23.6609 91.2148 23.4764 91.2148 23.2749V21.0174Z"
                                      fill="#213369"/>
                            </g>
                        </g>
                        <g id="Mask group_18">
                            <mask id="mask17_5597_10138" style="mask-type:luminance" maskUnits="userSpaceOnUse" x="0"
                                  y="0" width="120" height="34">
                                <g id="Group_18">
                                    <path id="Vector_18" d="M0 33.5H119.886V0.555664H0V33.5Z" fill="white"/>
                                </g>
                            </mask>
                            <g mask="url(#mask17_5597_10138)">
                                <path id="Fill-53" fill-rule="evenodd" clip-rule="evenodd"
                                      d="M94.1391 24.5334H94.8263V20.4545H94.1391V24.5334ZM94.4908 19.6153C94.357 19.6153 94.244 19.5732 94.1518 19.4897C94.0595 19.4057 94.0137 19.2993 94.0137 19.1704C94.0137 19.0363 94.0595 18.9287 94.1518 18.8475C94.244 18.7666 94.357 18.7256 94.4908 18.7256C94.6251 18.7256 94.7381 18.7666 94.8304 18.8475C94.9226 18.9287 94.9686 19.0363 94.9686 19.1704C94.9686 19.2993 94.9226 19.4057 94.8304 19.4897C94.7381 19.5732 94.6251 19.6153 94.4908 19.6153Z"
                                      fill="#213369"/>
                            </g>
                        </g>
                        <g id="Mask group_19">
                            <mask id="mask18_5597_10138" style="mask-type:luminance" maskUnits="userSpaceOnUse" x="0"
                                  y="0" width="120" height="34">
                                <g id="Group_19">
                                    <path id="Vector_19" d="M0 33.5H119.886V0.555664H0V33.5Z" fill="white"/>
                                </g>
                            </mask>
                            <g mask="url(#mask18_5597_10138)">
                                <path id="Fill-54" fill-rule="evenodd" clip-rule="evenodd"
                                      d="M96.82 22.5022C96.82 22.737 96.8481 22.95 96.9038 23.1399C96.9597 23.3302 97.0391 23.4941 97.1427 23.6312C97.246 23.768 97.3703 23.8743 97.5158 23.95C97.6608 24.0256 97.8197 24.0632 97.9929 24.0632C98.1662 24.0632 98.3255 24.0256 98.4707 23.95C98.6157 23.8743 98.74 23.768 98.8437 23.6312C98.9469 23.4941 99.0263 23.3302 99.0824 23.1399C99.1382 22.95 99.1658 22.737 99.1658 22.5022C99.1658 22.2674 99.1382 22.0533 99.0824 21.86C99.0263 21.6673 98.9469 21.5007 98.8437 21.3609C98.74 21.2209 98.6157 21.1132 98.4707 21.0376C98.3255 20.962 98.1662 20.9244 97.9929 20.9244C97.8197 20.9244 97.6608 20.962 97.5158 21.0376C97.3703 21.1132 97.246 21.2209 97.1427 21.3609C97.0391 21.5007 96.9597 21.6673 96.9038 21.86C96.8481 22.0533 96.82 22.2674 96.82 22.5022ZM96.1079 22.5022C96.1079 22.161 96.1598 21.8576 96.2629 21.5917C96.3661 21.3258 96.5047 21.1007 96.6778 20.916C96.8507 20.7312 97.0504 20.5917 97.2769 20.4964C97.503 20.4013 97.7418 20.3535 97.9929 20.3535C98.2445 20.3535 98.4834 20.4013 98.7094 20.4964C98.9359 20.5917 99.1353 20.7312 99.3086 20.916C99.4818 21.1007 99.6199 21.3258 99.7234 21.5917C99.8266 21.8576 99.8785 22.161 99.8785 22.5022C99.8785 22.8378 99.8266 23.1387 99.7234 23.4043C99.6199 23.6703 99.4818 23.8941 99.3086 24.076C99.1353 24.2579 98.9359 24.3963 98.7094 24.4913C98.4834 24.5861 98.2445 24.6341 97.9929 24.6341C97.7418 24.6341 97.503 24.5861 97.2769 24.4913C97.0504 24.3963 96.8507 24.2579 96.6778 24.076C96.5047 23.8941 96.3661 23.6703 96.2629 23.4043C96.1598 23.1387 96.1079 22.8378 96.1079 22.5022Z"
                                      fill="#213369"/>
                            </g>
                        </g>
                        <g id="Mask group_20">
                            <mask id="mask19_5597_10138" style="mask-type:luminance" maskUnits="userSpaceOnUse" x="0"
                                  y="0" width="120" height="34">
                                <g id="Group_20">
                                    <path id="Vector_20" d="M0 33.5H119.886V0.555664H0V33.5Z" fill="white"/>
                                </g>
                            </mask>
                            <g mask="url(#mask19_5597_10138)">
                                <path id="Fill-55" fill-rule="evenodd" clip-rule="evenodd"
                                      d="M100.992 20.4543H101.562L101.621 21.0421H101.646C101.841 20.8461 102.047 20.6826 102.262 20.5507C102.477 20.4195 102.727 20.3535 103.012 20.3535C103.442 20.3535 103.756 20.4879 103.954 20.7564C104.152 21.0252 104.251 21.4226 104.251 21.948V24.5332H103.565V22.0405C103.565 21.6544 103.503 21.3762 103.38 21.2055C103.257 21.035 103.062 20.9494 102.794 20.9494C102.581 20.9494 102.394 21.0028 102.232 21.1087C102.07 21.2153 101.886 21.3721 101.68 21.5788V24.5332H100.992V20.4543Z"
                                      fill="#213369"/>
                            </g>
                        </g>
                    </g>
                </g>
            </g>
        </g>
    </g>
</svg>
