<?xml version="1.0" encoding="UTF-8" standalone="no"?>
<!-- Created with Inkscape (http://www.inkscape.org/) -->

<svg
   version="1.1"
   id="svg2"
   width="1152"
   height="384"
   viewBox="0 0 1152 384"
   sodipodi:docname="SBA-Logo-Horizontal.ai"
   xmlns:inkscape="http://www.inkscape.org/namespaces/inkscape"
   xmlns:sodipodi="http://sodipodi.sourceforge.net/DTD/sodipodi-0.dtd"
   xmlns="http://www.w3.org/2000/svg"
   xmlns:svg="http://www.w3.org/2000/svg">
  <defs
     id="defs6">
    <clipPath
       clipPathUnits="userSpaceOnUse"
       id="clipPath24">
      <path
         d="M 0,288 H 864 V 0 H 0 Z"
         id="path22" />
    </clipPath>
  </defs>
  <sodipodi:namedview
     id="namedview4"
     pagecolor="#ffffff"
     bordercolor="#000000"
     borderopacity="0.25"
     inkscape:showpageshadow="2"
     inkscape:pageopacity="0.0"
     inkscape:pagecheckerboard="0"
     inkscape:deskcolor="#d1d1d1" />
  <g
     id="g8"
     inkscape:groupmode="layer"
     inkscape:label="SBA-Logo-Horizontal"
     transform="matrix(1.3333333,0,0,-1.3333333,0,384)">
    <g
       id="g10"
       transform="translate(277.1685,55.9507)">
      <path
         d="m 0,0 h -175.168 -1.647 v 1.647 23.538 h -15.02 V -15.017 H 0 Z"
         style="fill:#cc0000;fill-opacity:1;fill-rule:nonzero;stroke:none"
         id="path12" />
    </g>
    <g
       id="g14"
       transform="translate(85.5947,207.3828)">
      <path
         d="m 0,0 h 15.019 v 23.538 1.647 h 1.647 173.434 1.647 V 23.538 0 h 15.02 V 40.202 H 0 Z"
         style="fill:#002e6d;fill-opacity:1;fill-rule:nonzero;stroke:none"
         id="path16" />
    </g>
    <g
       id="g18">
      <g
         id="g20"
         clip-path="url(#clipPath24)">
        <g
           id="g26"
           transform="translate(73.4961,125.7275)">
          <path
             d="m 0,0 c 0.124,-5.231 2.645,-15.173 19.142,-15.173 8.942,0 18.893,2.224 18.893,12.17 0,7.325 -6.801,9.284 -16.371,11.638 l -9.698,2.359 c -14.612,3.532 -28.716,6.928 -28.716,27.603 0,10.462 5.415,28.902 34.758,28.902 27.707,0 35.138,-18.831 35.268,-30.343 H 35.138 c -0.506,4.184 -2.016,14.126 -18.515,14.126 -7.18,0 -15.74,-2.75 -15.74,-11.25 0,-7.325 5.791,-8.899 9.568,-9.81 l 22.042,-5.63 C 44.835,21.453 56.17,16.226 56.17,-0.645 c 0,-28.261 -27.711,-30.744 -35.642,-30.744 -32.995,0 -38.666,19.749 -38.666,31.389 z"
             style="fill:#002e6d;fill-opacity:1;fill-rule:nonzero;stroke:none"
             id="path28" />
        </g>
        <g
           id="g30"
           transform="translate(172.396,113.041)">
          <path
             d="m 0,0 h 24.069 c 9.552,0 15.047,4.186 15.047,13.738 0,8.234 -7.068,11.384 -14.133,11.384 H 0 Z m 0,40.944 h 23.024 c 7.717,0 13.868,3.007 13.868,10.466 0,7.722 -5.497,10.076 -14.393,10.076 L 0,61.486 Z m -18.835,36.758 h 45.65 c 23.025,0 28.909,-14.39 28.909,-24.07 0,-13.47 -7.586,-17.27 -11.511,-19.228 11.511,-4.317 14.522,-13.47 14.522,-22.764 0,-7.454 -3.14,-14.517 -8.108,-19.359 -5.364,-5.228 -10.468,-8.501 -29.696,-8.501 h -39.766 z"
             style="fill:#002e6d;fill-opacity:1;fill-rule:nonzero;stroke:none"
             id="path32" />
        </g>
        <g
           id="g34"
           transform="translate(292.2119,190.7734)">
          <path
             d="m 0,0 h -14.899 l -29.833,-93.982 h 18.835 l 18.279,61.702 18.577,-61.702 h 18.835 z"
             style="fill:#002e6d;fill-opacity:1;fill-rule:nonzero;stroke:none"
             id="path36" />
        </g>
        <g
           id="g38"
           transform="translate(292.1006,56.04)">
          <path
             d="M 0,0 -14.932,-15.106 V 40.519 H 0 Z"
             style="fill:#002e6d;fill-opacity:1;fill-rule:nonzero;stroke:none"
             id="path40" />
        </g>
        <g
           id="g42"
           transform="translate(375.959,190.9399)">
          <path
             d="m 0,0 h 4.368 v -20.374 c 0,-2.071 0.211,-3.808 0.633,-5.212 0.421,-1.402 0.992,-2.527 1.711,-3.368 0.72,-0.843 1.569,-1.447 2.555,-1.817 0.98,-0.368 2.034,-0.552 3.157,-0.552 1.159,0 2.228,0.184 3.212,0.552 0.982,0.37 1.842,0.974 2.579,1.817 0.738,0.841 1.315,1.966 1.737,3.368 0.421,1.404 0.632,3.141 0.632,5.212 V 0 h 4.211 v -20.269 c 0,-2.772 -0.316,-5.106 -0.946,-7.001 -0.632,-1.895 -1.5,-3.429 -2.608,-4.607 -1.103,-1.175 -2.412,-2.019 -3.922,-2.527 -1.509,-0.506 -3.14,-0.763 -4.895,-0.763 -1.755,0 -3.396,0.257 -4.921,0.763 -1.528,0.508 -2.844,1.352 -3.95,2.527 -1.105,1.178 -1.973,2.712 -2.605,4.607 C 0.315,-25.375 0,-23.041 0,-20.269 Z"
             style="fill:#002e6d;fill-opacity:1;fill-rule:nonzero;stroke:none"
             id="path44" />
        </g>
        <g
           id="g46"
           transform="translate(403.9658,159.0376)">
          <path
             d="M 0,0 C 0,1.018 0.307,1.833 0.921,2.447 1.535,3.061 2.279,3.37 3.157,3.37 4,3.37 4.729,3.061 5.343,2.447 5.957,1.833 6.264,1.018 6.264,0 6.264,-0.948 5.957,-1.729 5.343,-2.343 4.729,-2.955 4,-3.265 3.157,-3.265 c -0.878,0 -1.622,0.31 -2.236,0.922 C 0.307,-1.729 0,-0.948 0,0"
             style="fill:#002e6d;fill-opacity:1;fill-rule:nonzero;stroke:none"
             id="path48" />
        </g>
        <g
           id="g50"
           transform="translate(417.7051,163.9336)">
          <path
             d="m 0,0 c 1.228,-1.299 2.676,-2.344 4.344,-3.132 1.665,-0.79 3.395,-1.184 5.184,-1.184 2.282,0 4.055,0.518 5.318,1.553 1.264,1.034 1.894,2.394 1.894,4.078 0,0.877 -0.149,1.624 -0.447,2.238 -0.298,0.614 -0.7,1.141 -1.209,1.579 -0.511,0.44 -1.116,0.834 -1.817,1.187 -0.704,0.348 -1.457,0.717 -2.263,1.104 L 6.055,9.581 c -0.809,0.351 -1.633,0.772 -2.474,1.265 -0.844,0.49 -1.6,1.086 -2.264,1.789 -0.669,0.701 -1.212,1.535 -1.633,2.502 -0.422,0.964 -0.632,2.077 -0.632,3.342 0,1.297 0.272,2.509 0.817,3.631 0.543,1.123 1.297,2.097 2.264,2.924 0.965,0.822 2.105,1.464 3.421,1.92 1.316,0.456 2.764,0.685 4.342,0.685 2.072,0 3.985,-0.394 5.74,-1.185 1.755,-0.79 3.246,-1.817 4.474,-3.079 l -2.369,-2.843 c -1.054,1.017 -2.22,1.817 -3.501,2.394 -1.28,0.579 -2.728,0.87 -4.344,0.87 -1.93,0 -3.481,-0.448 -4.657,-1.342 -1.177,-0.896 -1.763,-2.133 -1.763,-3.711 0,-0.844 0.165,-1.554 0.499,-2.133 0.332,-0.58 0.781,-1.089 1.342,-1.526 0.562,-0.44 1.175,-0.827 1.842,-1.159 0.667,-0.335 1.352,-0.642 2.053,-0.921 l 4.895,-2.106 c 0.984,-0.421 1.914,-0.905 2.791,-1.448 0.877,-0.545 1.633,-1.177 2.264,-1.894 0.632,-0.722 1.134,-1.563 1.5,-2.527 0.369,-0.967 0.555,-2.08 0.555,-3.345 0,-1.368 -0.273,-2.651 -0.816,-3.842 -0.546,-1.194 -1.327,-2.238 -2.343,-3.132 -1.02,-0.896 -2.248,-1.599 -3.687,-2.107 -1.438,-0.507 -3.069,-0.764 -4.895,-0.764 -2.422,0 -4.667,0.459 -6.739,1.37 -2.07,0.913 -3.86,2.159 -5.37,3.737 z"
             style="fill:#002e6d;fill-opacity:1;fill-rule:nonzero;stroke:none"
             id="path52" />
        </g>
        <g
           id="g54"
           transform="translate(443.6064,159.0376)">
          <path
             d="M 0,0 C 0,1.018 0.308,1.833 0.922,2.447 1.535,3.061 2.28,3.37 3.157,3.37 4.001,3.37 4.729,3.061 5.343,2.447 5.957,1.833 6.264,1.018 6.264,0 6.264,-0.948 5.957,-1.729 5.343,-2.343 4.729,-2.955 4.001,-3.265 3.157,-3.265 2.28,-3.265 1.535,-2.955 0.922,-2.343 0.308,-1.729 0,-0.948 0,0"
             style="fill:#002e6d;fill-opacity:1;fill-rule:nonzero;stroke:none"
             id="path56" />
        </g>
        <g
           id="g58"
           transform="translate(470.3496,163.9336)">
          <path
             d="m 0,0 c 1.228,-1.299 2.676,-2.344 4.344,-3.132 1.666,-0.79 3.395,-1.184 5.184,-1.184 2.283,0 4.055,0.518 5.318,1.553 1.264,1.034 1.894,2.394 1.894,4.078 0,0.877 -0.148,1.624 -0.446,2.238 -0.298,0.614 -0.701,1.141 -1.21,1.579 -0.511,0.44 -1.116,0.834 -1.816,1.187 -0.705,0.348 -1.457,0.717 -2.264,1.104 L 6.055,9.581 c -0.809,0.351 -1.633,0.772 -2.474,1.265 -0.844,0.49 -1.6,1.086 -2.264,1.789 -0.669,0.701 -1.212,1.535 -1.633,2.502 -0.421,0.964 -0.632,2.077 -0.632,3.342 0,1.297 0.272,2.509 0.817,3.631 0.543,1.123 1.297,2.097 2.264,2.924 0.965,0.822 2.105,1.464 3.421,1.92 1.317,0.456 2.764,0.685 4.343,0.685 2.071,0 3.984,-0.394 5.739,-1.185 1.755,-0.79 3.247,-1.817 4.474,-3.079 l -2.369,-2.843 c -1.054,1.017 -2.22,1.817 -3.5,2.394 -1.281,0.579 -2.728,0.87 -4.344,0.87 -1.931,0 -3.482,-0.448 -4.658,-1.342 -1.177,-0.896 -1.763,-2.133 -1.763,-3.711 0,-0.844 0.165,-1.554 0.499,-2.133 0.332,-0.58 0.781,-1.089 1.342,-1.526 0.562,-0.44 1.176,-0.827 1.842,-1.159 0.667,-0.335 1.352,-0.642 2.053,-0.921 l 4.896,-2.106 c 0.983,-0.421 1.913,-0.905 2.79,-1.448 0.877,-0.545 1.634,-1.177 2.264,-1.894 0.632,-0.722 1.134,-1.563 1.5,-2.527 0.369,-0.967 0.555,-2.08 0.555,-3.345 0,-1.368 -0.273,-2.651 -0.816,-3.842 -0.545,-1.194 -1.326,-2.238 -2.343,-3.132 -1.02,-0.896 -2.247,-1.599 -3.687,-2.107 -1.438,-0.507 -3.069,-0.764 -4.895,-0.764 -2.422,0 -4.667,0.459 -6.739,1.37 -2.07,0.913 -3.86,2.159 -5.37,3.737 z"
             style="fill:#002e6d;fill-opacity:1;fill-rule:nonzero;stroke:none"
             id="path60" />
        </g>
        <g
           id="g62"
           transform="translate(499.25,181.9912)">
          <path
             d="M 0,0 H 3.581 L 3.95,-3.686 h 0.158 c 1.122,1.228 2.341,2.254 3.659,3.081 1.315,0.823 2.745,1.237 4.291,1.237 1.963,0 3.501,-0.43 4.605,-1.29 1.107,-0.861 1.922,-2.064 2.449,-3.606 1.333,1.473 2.676,2.658 4.028,3.554 1.349,0.893 2.815,1.342 4.393,1.342 2.633,0 4.589,-0.843 5.872,-2.527 1.281,-1.686 1.92,-4.178 1.92,-7.475 V -25.586 H 31.009 V -9.95 c 0,2.422 -0.387,4.168 -1.159,5.238 -0.772,1.069 -1.966,1.606 -3.579,1.606 -1.931,0 -4.071,-1.315 -6.423,-3.948 V -25.586 H 15.531 V -9.95 c 0,2.422 -0.387,4.168 -1.157,5.238 -0.774,1.069 -1.984,1.606 -3.634,1.606 -1.93,0 -4.07,-1.315 -6.421,-3.948 V -25.586 H 0 Z"
             style="fill:#002e6d;fill-opacity:1;fill-rule:nonzero;stroke:none"
             id="path64" />
        </g>
        <g
           id="g66"
           transform="translate(546.1582,163.354)">
          <path
             d="m 0,0 c 0,-1.473 0.431,-2.527 1.29,-3.159 0.859,-0.63 1.922,-0.946 3.185,-0.946 1.227,0 2.396,0.288 3.501,0.868 1.106,0.579 2.272,1.429 3.503,2.554 V 6.424 C 9.336,6.142 7.528,5.808 6.056,5.423 4.58,5.036 3.396,4.58 2.502,4.055 1.606,3.528 0.965,2.923 0.58,2.238 0.192,1.553 0,0.807 0,0 m -4.264,-0.316 c 0,2.809 1.254,4.958 3.765,6.449 2.509,1.492 6.502,2.536 11.978,3.134 0,0.807 -0.082,1.595 -0.239,2.369 -0.158,0.77 -0.44,1.455 -0.844,2.052 -0.403,0.596 -0.939,1.08 -1.603,1.449 -0.669,0.368 -1.528,0.552 -2.579,0.552 -1.51,0 -2.905,-0.282 -4.187,-0.843 -1.282,-0.562 -2.43,-1.194 -3.447,-1.895 l -1.739,3.001 c 1.193,0.772 2.65,1.517 4.371,2.238 1.719,0.718 3.613,1.08 5.684,1.08 3.125,0 5.388,-0.958 6.792,-2.871 1.403,-1.913 2.106,-4.465 2.106,-7.659 V -6.949 h -3.58 l -0.369,3.054 H 11.739 C 10.512,-4.914 9.188,-5.782 7.767,-6.502 6.344,-7.219 4.844,-7.581 3.265,-7.581 c -2.176,0 -3.975,0.632 -5.398,1.897 -1.42,1.263 -2.131,3.052 -2.131,5.368"
             style="fill:#002e6d;fill-opacity:1;fill-rule:nonzero;stroke:none"
             id="path68" />
        </g>
        <g
           id="g70"
           transform="translate(571.4258,193.8882)">
          <path
             d="m 0,0 h 4.318 v -32.64 c 0,-0.703 0.121,-1.193 0.368,-1.473 0.245,-0.282 0.526,-0.421 0.842,-0.421 h 0.394 c 0.124,0 0.307,0.034 0.555,0.105 l 0.58,-3.264 c -0.283,-0.14 -0.617,-0.245 -1.002,-0.317 -0.387,-0.069 -0.877,-0.105 -1.475,-0.105 -1.649,0 -2.825,0.492 -3.526,1.475 C 0.351,-35.659 0,-34.218 0,-32.323 Z"
             style="fill:#002e6d;fill-opacity:1;fill-rule:nonzero;stroke:none"
             id="path72" />
        </g>
        <g
           id="g74"
           transform="translate(586.166,193.8882)">
          <path
             d="m 0,0 h 4.318 v -32.64 c 0,-0.703 0.121,-1.193 0.368,-1.473 0.245,-0.282 0.526,-0.421 0.842,-0.421 h 0.394 c 0.124,0 0.307,0.034 0.555,0.105 l 0.58,-3.264 c -0.283,-0.14 -0.617,-0.245 -1.002,-0.317 -0.387,-0.069 -0.877,-0.105 -1.475,-0.105 -1.65,0 -2.825,0.492 -3.526,1.475 C 0.351,-35.659 0,-34.218 0,-32.323 Z"
             style="fill:#002e6d;fill-opacity:1;fill-rule:nonzero;stroke:none"
             id="path76" />
        </g>
        <g
           id="g78"
           transform="translate(623.6484,159.8809)">
          <path
             d="m 0,0 c 2.983,0 5.3,0.552 6.949,1.656 1.65,1.107 2.474,2.834 2.474,5.187 0,2.14 -0.806,3.712 -2.421,4.713 C 5.387,12.555 3.055,13.054 0,13.054 H -6.002 V 0 Z m -0.896,16.319 c 2.984,0 5.117,0.508 6.397,1.528 1.281,1.017 1.922,2.49 1.922,4.422 0,1.894 -0.676,3.255 -2.027,4.08 -1.352,0.822 -3.377,1.237 -6.081,1.237 H -6.002 V 16.319 Z m -9.475,14.74 h 10.267 c 1.754,0 3.36,-0.158 4.817,-0.472 1.455,-0.316 2.701,-0.809 3.736,-1.475 1.036,-0.667 1.843,-1.535 2.422,-2.605 0.58,-1.072 0.868,-2.362 0.868,-3.87 0,-1.72 -0.49,-3.274 -1.472,-4.659 C 9.283,16.591 7.773,15.634 5.739,15.109 v -0.211 c 2.528,-0.387 4.493,-1.264 5.895,-2.632 1.404,-1.37 2.108,-3.246 2.108,-5.634 0,-1.683 -0.316,-3.159 -0.949,-4.421 C 12.161,0.946 11.268,-0.105 10.108,-0.948 8.949,-1.792 7.563,-2.421 5.95,-2.843 4.335,-3.265 2.562,-3.476 0.633,-3.476 h -11.004 z"
             style="fill:#002e6d;fill-opacity:1;fill-rule:nonzero;stroke:none"
             id="path80" />
        </g>
        <g
           id="g82"
           transform="translate(643.7061,181.9912)">
          <path
             d="m 0,0 h 4.372 v -15.636 c 0,-2.422 0.375,-4.167 1.131,-5.237 0.754,-1.072 1.973,-1.606 3.659,-1.606 1.333,0 2.509,0.341 3.526,1.026 1.019,0.685 2.142,1.78 3.37,3.29 V 0 h 4.316 v -25.586 h -3.578 l -0.369,4.001 h -0.158 c -1.194,-1.403 -2.45,-2.528 -3.764,-3.369 -1.316,-0.842 -2.868,-1.264 -4.66,-1.264 -2.738,0 -4.729,0.843 -5.975,2.527 C 0.624,-22.005 0,-19.515 0,-16.216 Z"
             style="fill:#002e6d;fill-opacity:1;fill-rule:nonzero;stroke:none"
             id="path84" />
        </g>
        <g
           id="g86"
           transform="translate(673.3477,162.1973)">
          <path
             d="m 0,0 c 1.122,-0.914 2.271,-1.652 3.447,-2.211 1.176,-0.563 2.534,-0.843 4.081,-0.843 1.684,0 2.946,0.385 3.789,1.157 0.843,0.772 1.265,1.72 1.265,2.843 0,0.667 -0.177,1.246 -0.527,1.739 -0.353,0.49 -0.8,0.921 -1.343,1.29 C 10.167,4.341 9.544,4.667 8.843,4.948 8.14,5.228 7.438,5.51 6.737,5.789 5.823,6.105 4.911,6.465 4,6.868 3.086,7.271 2.271,7.764 1.551,8.344 c -0.72,0.579 -1.306,1.253 -1.762,2.027 -0.458,0.77 -0.685,1.7 -0.685,2.788 0,1.02 0.202,1.975 0.605,2.871 0.403,0.896 0.982,1.665 1.736,2.316 0.756,0.649 1.677,1.157 2.766,1.526 1.088,0.369 2.315,0.554 3.684,0.554 1.615,0 3.097,-0.281 4.449,-0.843 1.351,-0.561 2.517,-1.246 3.5,-2.053 l -2.053,-2.737 c -0.877,0.666 -1.789,1.209 -2.737,1.631 -0.947,0.422 -1.982,0.632 -3.107,0.632 -1.613,0 -2.798,-0.369 -3.553,-1.106 C 3.64,15.214 3.262,14.353 3.262,13.37 3.262,12.774 3.42,12.257 3.736,11.819 4.053,11.379 4.474,10.992 5.001,10.66 5.525,10.325 6.133,10.027 6.815,9.764 7.5,9.5 8.211,9.23 8.948,8.948 9.86,8.598 10.781,8.229 11.711,7.844 12.642,7.457 13.476,6.974 14.213,6.396 14.95,5.816 15.556,5.106 16.029,4.263 16.504,3.42 16.74,2.403 16.74,1.209 16.74,0.158 16.538,-0.825 16.135,-1.739 15.729,-2.651 15.134,-3.458 14.344,-4.161 13.556,-4.862 12.572,-5.416 11.397,-5.817 10.22,-6.22 8.877,-6.424 7.37,-6.424 c -1.826,0 -3.562,0.334 -5.212,1.001 -1.652,0.667 -3.091,1.507 -4.319,2.527 z"
             style="fill:#002e6d;fill-opacity:1;fill-rule:nonzero;stroke:none"
             id="path88" />
        </g>
        <path
           d="m 697.402,181.991 h 4.319 v -25.586 h -4.319 z m 2.211,5.265 c -0.841,0 -1.551,0.264 -2.131,0.788 -0.579,0.527 -0.868,1.194 -0.868,2.002 0,0.841 0.289,1.517 0.868,2.026 0.58,0.508 1.29,0.765 2.131,0.765 0.844,0 1.554,-0.257 2.133,-0.765 0.58,-0.509 0.868,-1.185 0.868,-2.026 0,-0.808 -0.288,-1.475 -0.868,-2.002 -0.579,-0.524 -1.289,-0.788 -2.133,-0.788"
           style="fill:#002e6d;fill-opacity:1;fill-rule:nonzero;stroke:none"
           id="path90" />
        <g
           id="g92"
           transform="translate(711.6709,181.9912)">
          <path
             d="M 0,0 H 3.581 L 3.95,-3.686 h 0.157 c 1.229,1.228 2.519,2.254 3.871,3.081 1.349,0.823 2.92,1.237 4.71,1.237 2.703,0 4.675,-0.843 5.921,-2.527 1.247,-1.686 1.87,-4.178 1.87,-7.475 V -25.586 H 16.163 V -9.95 c 0,2.422 -0.388,4.168 -1.159,5.238 -0.773,1.069 -2,1.606 -3.684,1.606 -1.336,0 -2.511,-0.335 -3.528,-0.999 C 6.774,-4.774 5.615,-5.757 4.318,-7.054 V -25.586 H 0 Z"
             style="fill:#002e6d;fill-opacity:1;fill-rule:nonzero;stroke:none"
             id="path94" />
        </g>
        <g
           id="g96"
           transform="translate(757.7891,171.0928)">
          <path
             d="m 0,0 c 0,2.632 -0.553,4.642 -1.659,6.028 -1.105,1.386 -2.657,2.08 -4.66,2.08 -0.911,0 -1.78,-0.183 -2.605,-0.552 C -9.749,7.187 -10.495,6.66 -11.162,5.975 -11.829,5.292 -12.381,4.449 -12.818,3.448 -13.259,2.449 -13.55,1.299 -13.689,0 Z m -17.9,-1.947 c 0,2.105 0.326,3.991 0.973,5.658 0.649,1.668 1.51,3.082 2.58,4.239 1.071,1.159 2.291,2.044 3.659,2.657 1.37,0.615 2.791,0.924 4.263,0.924 1.615,0 3.064,-0.282 4.344,-0.843 C -0.8,10.126 0.27,9.318 1.131,8.266 1.99,7.212 2.647,5.95 3.106,4.475 3.563,3.001 3.789,1.352 3.789,-0.474 3.789,-1.42 3.736,-2.21 3.633,-2.843 h -17.27 c 0.177,-2.772 1.027,-4.967 2.555,-6.58 1.525,-1.615 3.517,-2.421 5.975,-2.421 1.228,0 2.36,0.183 3.395,0.552 1.035,0.369 2.027,0.85 2.974,1.448 l 1.528,-2.844 c -1.125,-0.7 -2.369,-1.314 -3.739,-1.841 -1.367,-0.527 -2.93,-0.791 -4.685,-0.791 -1.72,0 -3.324,0.31 -4.815,0.922 -1.494,0.613 -2.791,1.491 -3.898,2.632 -1.104,1.141 -1.974,2.536 -2.604,4.185 -0.633,1.65 -0.949,3.528 -0.949,5.634"
             style="fill:#002e6d;fill-opacity:1;fill-rule:nonzero;stroke:none"
             id="path98" />
        </g>
        <g
           id="g100"
           transform="translate(768.5264,162.1973)">
          <path
             d="m 0,0 c 1.123,-0.914 2.271,-1.652 3.448,-2.211 1.175,-0.563 2.533,-0.843 4.08,-0.843 1.684,0 2.947,0.385 3.789,1.157 0.844,0.772 1.265,1.72 1.265,2.843 0,0.667 -0.176,1.246 -0.526,1.739 -0.354,0.49 -0.8,0.921 -1.343,1.29 C 10.168,4.341 9.544,4.667 8.844,4.948 8.14,5.228 7.438,5.51 6.738,5.789 5.824,6.105 4.912,6.465 4,6.868 3.086,7.271 2.271,7.764 1.551,8.344 0.832,8.923 0.245,9.597 -0.211,10.371 c -0.458,0.77 -0.685,1.7 -0.685,2.788 0,1.02 0.202,1.975 0.605,2.871 0.403,0.896 0.983,1.665 1.736,2.316 0.757,0.649 1.678,1.157 2.766,1.526 1.088,0.369 2.316,0.554 3.684,0.554 1.615,0 3.097,-0.281 4.449,-0.843 1.351,-0.561 2.517,-1.246 3.501,-2.053 l -2.053,-2.737 c -0.878,0.666 -1.789,1.209 -2.738,1.631 -0.946,0.422 -1.982,0.632 -3.107,0.632 -1.612,0 -2.797,-0.369 -3.552,-1.106 -0.754,-0.736 -1.132,-1.597 -1.132,-2.58 0,-0.596 0.158,-1.113 0.473,-1.551 C 4.053,11.379 4.475,10.992 5.001,10.66 5.526,10.325 6.133,10.027 6.815,9.764 7.501,9.5 8.211,9.23 8.948,8.948 9.86,8.598 10.781,8.229 11.712,7.844 c 0.93,-0.387 1.764,-0.87 2.502,-1.448 0.737,-0.58 1.342,-1.29 1.816,-2.133 0.475,-0.843 0.71,-1.86 0.71,-3.054 0,-1.051 -0.201,-2.034 -0.604,-2.948 C 15.73,-2.651 15.135,-3.458 14.344,-4.161 13.556,-4.862 12.573,-5.416 11.397,-5.817 10.221,-6.22 8.878,-6.424 7.37,-6.424 c -1.826,0 -3.562,0.334 -5.212,1.001 -1.651,0.667 -3.091,1.507 -4.318,2.527 z"
             style="fill:#002e6d;fill-opacity:1;fill-rule:nonzero;stroke:none"
             id="path102" />
        </g>
        <g
           id="g104"
           transform="translate(791.9014,162.1973)">
          <path
             d="m 0,0 c 1.123,-0.914 2.271,-1.652 3.448,-2.211 1.175,-0.563 2.533,-0.843 4.08,-0.843 1.684,0 2.947,0.385 3.789,1.157 0.844,0.772 1.265,1.72 1.265,2.843 0,0.667 -0.176,1.246 -0.526,1.739 -0.354,0.49 -0.8,0.921 -1.343,1.29 C 10.168,4.341 9.544,4.667 8.844,4.948 8.14,5.228 7.438,5.51 6.738,5.789 5.824,6.105 4.912,6.465 4,6.868 3.086,7.271 2.271,7.764 1.551,8.344 0.832,8.923 0.245,9.597 -0.211,10.371 c -0.458,0.77 -0.685,1.7 -0.685,2.788 0,1.02 0.202,1.975 0.605,2.871 0.403,0.896 0.983,1.665 1.736,2.316 0.757,0.649 1.678,1.157 2.766,1.526 1.088,0.369 2.316,0.554 3.684,0.554 1.615,0 3.097,-0.281 4.449,-0.843 1.351,-0.561 2.517,-1.246 3.501,-2.053 l -2.053,-2.737 c -0.878,0.666 -1.789,1.209 -2.738,1.631 -0.946,0.422 -1.982,0.632 -3.107,0.632 -1.612,0 -2.797,-0.369 -3.552,-1.106 -0.754,-0.736 -1.132,-1.597 -1.132,-2.58 0,-0.596 0.158,-1.113 0.473,-1.551 C 4.053,11.379 4.475,10.992 5.001,10.66 5.526,10.325 6.133,10.027 6.815,9.764 7.501,9.5 8.211,9.23 8.948,8.948 9.86,8.598 10.781,8.229 11.712,7.844 c 0.93,-0.387 1.764,-0.87 2.501,-1.448 0.738,-0.58 1.343,-1.29 1.817,-2.133 0.474,-0.843 0.71,-1.86 0.71,-3.054 0,-1.051 -0.201,-2.034 -0.604,-2.948 C 15.73,-2.651 15.135,-3.458 14.344,-4.161 13.556,-4.862 12.573,-5.416 11.397,-5.817 10.22,-6.22 8.878,-6.424 7.37,-6.424 c -1.826,0 -3.562,0.334 -5.212,1.001 -1.651,0.667 -3.091,1.507 -4.318,2.527 z"
             style="fill:#002e6d;fill-opacity:1;fill-rule:nonzero;stroke:none"
             id="path106" />
        </g>
        <g
           id="g108"
           transform="translate(390.8037,111.2339)">
          <path
             d="m 0,0 -1.631,5.265 c -0.632,1.931 -1.227,3.851 -1.789,5.766 -0.563,1.911 -1.125,3.87 -1.686,5.87 h -0.211 c -0.525,-2 -1.07,-3.959 -1.631,-5.87 C -7.51,9.116 -8.105,7.196 -8.737,5.265 L -10.371,0 Z m 1.107,-3.526 h -12.583 l -3.316,-10.529 h -4.475 L -7.58,20.479 h 4.948 L 9.057,-14.055 H 4.372 Z"
             style="fill:#002e6d;fill-opacity:1;fill-rule:nonzero;stroke:none"
             id="path110" />
        </g>
        <g
           id="g112"
           transform="translate(408.2822,109.9717)">
          <path
             d="m 0,0 c 0,-3.088 0.614,-5.494 1.844,-7.212 1.228,-1.721 2.965,-2.58 5.21,-2.58 1.193,0 2.318,0.289 3.37,0.869 1.054,0.579 2.105,1.464 3.159,2.657 V 7.106 C 12.495,8.089 11.45,8.784 10.451,9.187 9.45,9.59 8.424,9.792 7.37,9.792 6.353,9.792 5.397,9.556 4.502,9.082 3.605,8.607 2.824,7.94 2.158,7.082 1.491,6.22 0.965,5.194 0.579,4 0.192,2.807 0,1.473 0,0 m -4.475,-0.053 c 0,2.072 0.308,3.939 0.921,5.606 0.615,1.668 1.43,3.082 2.45,4.239 1.017,1.159 2.192,2.052 3.526,2.685 1.333,0.632 2.737,0.948 4.213,0.948 1.472,0 2.754,-0.263 3.842,-0.79 1.087,-0.527 2.192,-1.246 3.317,-2.158 l -0.211,4.369 v 9.844 h 4.369 v -37.483 h -3.578 l -0.369,3.001 h -0.158 c -1.02,-0.982 -2.186,-1.835 -3.501,-2.554 -1.318,-0.717 -2.731,-1.079 -4.239,-1.079 -3.23,0 -5.8,1.159 -7.713,3.475 -1.914,2.316 -2.869,5.616 -2.869,9.897"
             style="fill:#002e6d;fill-opacity:1;fill-rule:nonzero;stroke:none"
             id="path114" />
        </g>
        <g
           id="g116"
           transform="translate(435.1299,122.7646)">
          <path
             d="M 0,0 H 3.581 L 3.95,-3.687 h 0.158 c 1.122,1.229 2.341,2.255 3.659,3.082 1.315,0.823 2.745,1.237 4.291,1.237 1.963,0 3.501,-0.43 4.605,-1.29 1.107,-0.861 1.922,-2.064 2.448,-3.606 1.334,1.473 2.677,2.658 4.029,3.554 1.348,0.893 2.815,1.342 4.393,1.342 2.633,0 4.589,-0.843 5.872,-2.527 1.281,-1.686 1.92,-4.179 1.92,-7.475 V -25.586 H 31.009 V -9.95 c 0,2.422 -0.387,4.167 -1.159,5.238 -0.773,1.069 -1.966,1.606 -3.579,1.606 -1.931,0 -4.071,-1.316 -6.423,-3.948 V -25.586 H 15.531 V -9.95 c 0,2.422 -0.387,4.167 -1.157,5.238 -0.774,1.069 -1.984,1.606 -3.634,1.606 -1.93,0 -4.071,-1.316 -6.421,-3.948 V -25.586 H 0 Z"
             style="fill:#002e6d;fill-opacity:1;fill-rule:nonzero;stroke:none"
             id="path118" />
        </g>
        <path
           d="m 480.089,122.765 h 4.318 V 97.179 h -4.318 z m 2.211,5.264 c -0.841,0 -1.552,0.264 -2.131,0.788 -0.58,0.527 -0.868,1.194 -0.868,2.003 0,0.841 0.288,1.516 0.868,2.025 0.579,0.509 1.29,0.765 2.131,0.765 0.843,0 1.553,-0.256 2.133,-0.765 0.579,-0.509 0.868,-1.184 0.868,-2.025 0,-0.809 -0.289,-1.476 -0.868,-2.003 -0.58,-0.524 -1.29,-0.788 -2.133,-0.788"
           style="fill:#002e6d;fill-opacity:1;fill-rule:nonzero;stroke:none"
           id="path120" />
        <g
           id="g122"
           transform="translate(494.3545,122.7646)">
          <path
             d="M 0,0 H 3.581 L 3.95,-3.687 h 0.157 c 1.229,1.229 2.519,2.255 3.871,3.082 1.349,0.823 2.92,1.237 4.71,1.237 2.703,0 4.675,-0.843 5.921,-2.527 1.247,-1.686 1.87,-4.179 1.87,-7.475 V -25.586 H 16.163 V -9.95 c 0,2.422 -0.388,4.167 -1.159,5.238 -0.773,1.069 -2,1.606 -3.684,1.606 -1.336,0 -2.511,-0.335 -3.528,-0.999 C 6.774,-4.774 5.615,-5.757 4.318,-7.054 V -25.586 H 0 Z"
             style="fill:#002e6d;fill-opacity:1;fill-rule:nonzero;stroke:none"
             id="path124" />
        </g>
        <path
           d="m 524.468,122.765 h 4.318 V 97.179 h -4.318 z m 2.21,5.264 c -0.841,0 -1.551,0.264 -2.13,0.788 -0.58,0.527 -0.868,1.194 -0.868,2.003 0,0.841 0.288,1.516 0.868,2.025 0.579,0.509 1.289,0.765 2.13,0.765 0.843,0 1.553,-0.256 2.134,-0.765 0.579,-0.509 0.868,-1.184 0.868,-2.025 0,-0.809 -0.289,-1.476 -0.868,-2.003 -0.581,-0.524 -1.291,-0.788 -2.134,-0.788"
           style="fill:#002e6d;fill-opacity:1;fill-rule:nonzero;stroke:none"
           id="path126" />
        <g
           id="g128"
           transform="translate(538.0508,102.9702)">
          <path
             d="m 0,0 c 1.122,-0.914 2.271,-1.651 3.448,-2.21 1.175,-0.564 2.533,-0.844 4.08,-0.844 1.684,0 2.947,0.385 3.789,1.157 0.843,0.772 1.265,1.721 1.265,2.843 0,0.667 -0.177,1.247 -0.527,1.739 -0.353,0.49 -0.799,0.921 -1.342,1.29 C 10.167,4.342 9.544,4.667 8.843,4.949 8.14,5.228 7.438,5.51 6.737,5.79 5.823,6.105 4.912,6.465 4,6.869 3.086,7.272 2.271,7.764 1.551,8.344 c -0.72,0.58 -1.306,1.253 -1.762,2.028 -0.458,0.769 -0.685,1.699 -0.685,2.788 0,1.019 0.202,1.974 0.605,2.87 0.403,0.896 0.982,1.666 1.736,2.317 0.756,0.648 1.677,1.156 2.766,1.525 1.088,0.369 2.316,0.555 3.684,0.555 1.615,0 3.097,-0.282 4.449,-0.844 1.351,-0.561 2.517,-1.246 3.501,-2.052 l -2.053,-2.738 c -0.878,0.667 -1.79,1.21 -2.738,1.631 -0.947,0.422 -1.982,0.633 -3.107,0.633 C 6.334,17.057 5.15,16.688 4.394,15.95 3.641,15.215 3.263,14.353 3.263,13.371 3.263,12.775 3.42,12.257 3.736,11.819 4.053,11.379 4.475,10.992 5.001,10.66 5.525,10.326 6.133,10.028 6.815,9.765 7.501,9.501 8.211,9.23 8.948,8.949 9.86,8.598 10.781,8.229 11.711,7.845 12.642,7.458 13.476,6.974 14.213,6.396 14.951,5.817 15.556,5.107 16.03,4.264 16.504,3.421 16.74,2.403 16.74,1.21 16.74,0.158 16.538,-0.825 16.136,-1.739 15.729,-2.65 15.134,-3.457 14.344,-4.16 13.556,-4.861 12.573,-5.416 11.397,-5.816 10.22,-6.22 8.878,-6.424 7.37,-6.424 c -1.826,0 -3.562,0.335 -5.212,1.002 -1.652,0.666 -3.091,1.507 -4.318,2.526 z"
             style="fill:#002e6d;fill-opacity:1;fill-rule:nonzero;stroke:none"
             id="path130" />
        </g>
        <g
           id="g132"
           transform="translate(562.8457,119.2363)">
          <path
             d="m 0,0 h -3.789 v 3.265 l 4,0.263 0.527,7.16 h 3.631 v -7.16 h 6.899 V 0 H 4.369 v -14.213 c 0,-1.579 0.291,-2.8 0.868,-3.659 0.58,-0.861 1.607,-1.29 3.082,-1.29 0.455,0 0.946,0.069 1.473,0.211 0.527,0.14 1.001,0.298 1.423,0.474 l 0.841,-3.264 c -0.702,-0.245 -1.467,-0.466 -2.289,-0.658 -0.825,-0.192 -1.643,-0.291 -2.45,-0.291 -1.367,0 -2.517,0.211 -3.447,0.632 -0.931,0.422 -1.684,1.002 -2.264,1.737 -0.58,0.738 -0.992,1.634 -1.237,2.685 C 0.122,-16.582 0,-15.425 0,-14.161 Z"
             style="fill:#002e6d;fill-opacity:1;fill-rule:nonzero;stroke:none"
             id="path134" />
        </g>
        <g
           id="g136"
           transform="translate(581.2178,122.7646)">
          <path
             d="m 0,0 h 3.58 l 0.369,-4.632 h 0.158 c 0.875,1.612 1.939,2.895 3.185,3.841 1.246,0.949 2.604,1.423 4.08,1.423 1.018,0 1.929,-0.176 2.738,-0.527 l -0.843,-3.792 c -0.421,0.141 -0.809,0.246 -1.157,0.317 -0.353,0.071 -0.791,0.105 -1.317,0.105 -1.089,0 -2.221,-0.44 -3.396,-1.315 C 6.22,-5.457 5.193,-6.985 4.318,-9.16 V -25.586 H 0 Z"
             style="fill:#002e6d;fill-opacity:1;fill-rule:nonzero;stroke:none"
             id="path138" />
        </g>
        <g
           id="g140"
           transform="translate(602.4873,104.1274)">
          <path
             d="m 0,0 c 0,-1.473 0.431,-2.527 1.289,-3.159 0.859,-0.631 1.923,-0.946 3.185,-0.946 1.228,0 2.396,0.288 3.501,0.868 1.106,0.579 2.272,1.429 3.503,2.554 V 6.424 C 9.336,6.142 7.528,5.808 6.055,5.423 4.579,5.036 3.395,4.58 2.502,4.055 1.605,3.528 0.964,2.923 0.579,2.238 0.192,1.553 0,0.806 0,0 m -4.264,-0.316 c 0,2.809 1.253,4.958 3.764,6.449 2.509,1.492 6.502,2.536 11.978,3.134 0,0.806 -0.081,1.594 -0.239,2.369 -0.158,0.77 -0.439,1.455 -0.843,2.052 -0.403,0.596 -0.939,1.08 -1.603,1.449 -0.669,0.368 -1.528,0.551 -2.58,0.551 -1.51,0 -2.905,-0.281 -4.186,-0.842 -1.283,-0.562 -2.43,-1.194 -3.448,-1.895 l -1.738,3.001 c 1.193,0.772 2.65,1.517 4.371,2.238 1.718,0.717 3.612,1.08 5.684,1.08 3.125,0 5.388,-0.958 6.792,-2.871 1.403,-1.913 2.106,-4.465 2.106,-7.659 V -6.949 h -3.581 l -0.369,3.054 H 11.738 C 10.511,-4.914 9.187,-5.783 7.767,-6.502 6.344,-7.219 4.843,-7.581 3.265,-7.581 c -2.177,0 -3.976,0.632 -5.398,1.897 -1.421,1.262 -2.131,3.052 -2.131,5.368"
             style="fill:#002e6d;fill-opacity:1;fill-rule:nonzero;stroke:none"
             id="path142" />
        </g>
        <g
           id="g144"
           transform="translate(628.4922,119.2363)">
          <path
             d="m 0,0 h -3.789 v 3.265 l 4,0.263 0.526,7.16 h 3.632 v -7.16 h 6.898 V 0 H 4.369 v -14.213 c 0,-1.579 0.291,-2.8 0.868,-3.659 0.579,-0.861 1.606,-1.29 3.081,-1.29 0.456,0 0.947,0.069 1.474,0.211 0.526,0.14 1.001,0.298 1.422,0.474 l 0.841,-3.264 c -0.701,-0.245 -1.466,-0.466 -2.288,-0.658 -0.826,-0.192 -1.643,-0.291 -2.45,-0.291 -1.368,0 -2.517,0.211 -3.448,0.632 -0.93,0.422 -1.683,1.002 -2.264,1.737 -0.579,0.738 -0.991,1.634 -1.236,2.685 C 0.121,-16.582 0,-15.425 0,-14.161 Z"
             style="fill:#002e6d;fill-opacity:1;fill-rule:nonzero;stroke:none"
             id="path146" />
        </g>
        <path
           d="m 646.866,122.765 h 4.318 V 97.179 h -4.318 z m 2.21,5.264 c -0.841,0 -1.551,0.264 -2.13,0.788 -0.58,0.527 -0.868,1.194 -0.868,2.003 0,0.841 0.288,1.516 0.868,2.025 0.579,0.509 1.289,0.765 2.13,0.765 0.844,0 1.554,-0.256 2.134,-0.765 0.579,-0.509 0.868,-1.184 0.868,-2.025 0,-0.809 -0.289,-1.476 -0.868,-2.003 -0.58,-0.524 -1.29,-0.788 -2.134,-0.788"
           style="fill:#002e6d;fill-opacity:1;fill-rule:nonzero;stroke:none"
           id="path148" />
        <g
           id="g150"
           transform="translate(663.7109,109.9189)">
          <path
             d="m 0,0 c 0,-1.473 0.177,-2.809 0.527,-4 0.351,-1.194 0.85,-2.222 1.501,-3.082 0.649,-0.858 1.43,-1.525 2.344,-2 0.911,-0.474 1.91,-0.71 2.998,-0.71 1.089,0 2.09,0.236 3.002,0.71 0.911,0.475 1.692,1.142 2.344,2 0.648,0.86 1.147,1.888 1.5,3.082 0.35,1.191 0.524,2.527 0.524,4 0,1.473 -0.174,2.816 -0.524,4.028 -0.353,1.209 -0.852,2.254 -1.5,3.131 C 12.064,8.037 11.283,8.713 10.372,9.187 9.46,9.661 8.459,9.897 7.37,9.897 6.282,9.897 5.283,9.661 4.372,9.187 3.458,8.713 2.677,8.037 2.028,7.159 1.377,6.282 0.878,5.237 0.527,4.028 0.177,2.816 0,1.473 0,0 m -4.474,0 c 0,2.14 0.326,4.043 0.974,5.711 0.648,1.668 1.519,3.08 2.607,4.239 1.086,1.159 2.341,2.034 3.764,2.632 1.421,0.596 2.921,0.896 4.499,0.896 1.581,0 3.082,-0.3 4.502,-0.896 1.423,-0.598 2.676,-1.473 3.765,-2.632 C 16.725,8.791 17.593,7.379 18.243,5.711 18.892,4.043 19.218,2.14 19.218,0 c 0,-2.105 -0.326,-3.993 -0.975,-5.659 -0.65,-1.668 -1.518,-3.072 -2.606,-4.213 -1.089,-1.141 -2.342,-2.009 -3.765,-2.605 -1.42,-0.595 -2.921,-0.896 -4.502,-0.896 -1.578,0 -3.078,0.301 -4.499,0.896 -1.423,0.596 -2.678,1.464 -3.764,2.605 -1.088,1.141 -1.959,2.545 -2.607,4.213 -0.648,1.666 -0.974,3.554 -0.974,5.659"
             style="fill:#002e6d;fill-opacity:1;fill-rule:nonzero;stroke:none"
             id="path152" />
        </g>
        <g
           id="g154"
           transform="translate(689.9268,122.7646)">
          <path
             d="M 0,0 H 3.581 L 3.95,-3.687 h 0.158 c 1.228,1.229 2.518,2.255 3.87,3.082 1.349,0.823 2.92,1.237 4.71,1.237 2.704,0 4.676,-0.843 5.922,-2.527 1.246,-1.686 1.869,-4.179 1.869,-7.475 V -25.586 H 16.163 V -9.95 c 0,2.422 -0.387,4.167 -1.159,5.238 -0.772,1.069 -2,1.606 -3.684,1.606 -1.336,0 -2.51,-0.335 -3.528,-0.999 C 6.775,-4.774 5.615,-5.757 4.319,-7.054 V -25.586 H 0 Z"
             style="fill:#002e6d;fill-opacity:1;fill-rule:nonzero;stroke:none"
             id="path156" />
        </g>
      </g>
    </g>
  </g>
</svg>
