<?xml version="1.0" encoding="UTF-8" standalone="no"?>
<!-- Created with Inkscape (http://www.inkscape.org/) -->

<svg
   version="1.1"
   id="svg2"
   width="1152"
   height="384"
   viewBox="0 0 1152 384"
   sodipodi:docname="SBA-Logo-Horizontal-Spanish.ai"
   xmlns:inkscape="http://www.inkscape.org/namespaces/inkscape"
   xmlns:sodipodi="http://sodipodi.sourceforge.net/DTD/sodipodi-0.dtd"
   xmlns="http://www.w3.org/2000/svg"
   xmlns:svg="http://www.w3.org/2000/svg">
  <defs
     id="defs6">
    <clipPath
       clipPathUnits="userSpaceOnUse"
       id="clipPath24">
      <path
         d="M 0,288 H 864 V 0 H 0 Z"
         id="path22" />
    </clipPath>
    <clipPath
       clipPathUnits="userSpaceOnUse"
       id="clipPath52">
      <path
         d="M 0,288 H 864 V 0 H 0 Z"
         id="path50" />
    </clipPath>
  </defs>
  <sodipodi:namedview
     id="namedview4"
     pagecolor="#ffffff"
     bordercolor="#000000"
     borderopacity="0.25"
     inkscape:showpageshadow="2"
     inkscape:pageopacity="0.0"
     inkscape:pagecheckerboard="0"
     inkscape:deskcolor="#d1d1d1" />
  <g
     id="g8"
     inkscape:groupmode="layer"
     inkscape:label="SBA-Logo-Horizontal-Spanish"
     transform="matrix(1.3333333,0,0,-1.3333333,0,384)">
    <g
       id="g10"
       transform="translate(253.1685,55.9507)">
      <path
         d="m 0,0 h -175.168 -1.647 v 1.647 23.538 h -15.02 V -15.017 H 0 Z"
         style="fill:#cc0000;fill-opacity:1;fill-rule:nonzero;stroke:none"
         id="path12" />
    </g>
    <g
       id="g14"
       transform="translate(61.5947,207.3828)">
      <path
         d="m 0,0 h 15.019 v 23.538 1.647 h 1.647 173.434 1.647 V 23.538 0 h 15.02 V 40.202 H 0 Z"
         style="fill:#002e6d;fill-opacity:1;fill-rule:nonzero;stroke:none"
         id="path16" />
    </g>
    <g
       id="g18">
      <g
         id="g20"
         clip-path="url(#clipPath24)">
        <g
           id="g26"
           transform="translate(49.4961,125.7275)">
          <path
             d="m 0,0 c 0.124,-5.231 2.645,-15.173 19.142,-15.173 8.942,0 18.893,2.224 18.893,12.17 0,7.325 -6.801,9.284 -16.371,11.638 l -9.698,2.359 c -14.612,3.532 -28.716,6.928 -28.716,27.603 0,10.462 5.415,28.902 34.758,28.902 27.707,0 35.138,-18.831 35.268,-30.343 H 35.138 c -0.506,4.184 -2.016,14.126 -18.515,14.126 -7.18,0 -15.74,-2.75 -15.74,-11.25 0,-7.325 5.791,-8.899 9.568,-9.81 l 22.042,-5.63 C 44.835,21.453 56.17,16.226 56.17,-0.645 c 0,-28.261 -27.711,-30.744 -35.642,-30.744 -32.995,0 -38.666,19.749 -38.666,31.389 z"
             style="fill:#002e6d;fill-opacity:1;fill-rule:nonzero;stroke:none"
             id="path28" />
        </g>
        <g
           id="g30"
           transform="translate(148.396,113.041)">
          <path
             d="m 0,0 h 24.069 c 9.552,0 15.047,4.186 15.047,13.738 0,8.234 -7.068,11.384 -14.133,11.384 H 0 Z m 0,40.944 h 23.024 c 7.717,0 13.868,3.007 13.868,10.466 0,7.722 -5.497,10.076 -14.393,10.076 L 0,61.486 Z m -18.835,36.758 h 45.65 c 23.025,0 28.909,-14.39 28.909,-24.07 0,-13.47 -7.586,-17.27 -11.511,-19.228 11.511,-4.317 14.522,-13.47 14.522,-22.764 0,-7.454 -3.14,-14.517 -8.108,-19.359 -5.364,-5.228 -10.468,-8.501 -29.696,-8.501 h -39.766 z"
             style="fill:#002e6d;fill-opacity:1;fill-rule:nonzero;stroke:none"
             id="path32" />
        </g>
        <g
           id="g34"
           transform="translate(268.2119,190.7734)">
          <path
             d="m 0,0 h -14.899 l -29.833,-93.982 h 18.835 l 18.279,61.702 18.577,-61.702 h 18.835 z"
             style="fill:#002e6d;fill-opacity:1;fill-rule:nonzero;stroke:none"
             id="path36" />
        </g>
        <g
           id="g38"
           transform="translate(268.1001,56.04)">
          <path
             d="M 0,0 -14.932,-15.106 V 40.519 H 0 Z"
             style="fill:#002e6d;fill-opacity:1;fill-rule:nonzero;stroke:none"
             id="path40" />
        </g>
      </g>
    </g>
    <g
       id="g42"
       transform="translate(360.249,191.7876)">
      <path
         d="m 0,0 h 4.461 v -31.441 h 15.425 v -3.816 H 0 Z"
         style="fill:#003363;fill-opacity:1;fill-rule:nonzero;stroke:none"
         id="path44" />
    </g>
    <g
       id="g46">
      <g
         id="g48"
         clip-path="url(#clipPath52)">
        <g
           id="g54"
           transform="translate(399.2705,162.9258)">
          <path
             d="M 0,0 V 7.255 C -8.707,6.181 -11.716,4.032 -11.716,0.699 c 0,-2.956 2.042,-4.193 4.622,-4.193 2.526,0 4.569,1.237 7.094,3.494 m -16.017,0.376 c 0,5.697 4.892,8.546 16.017,9.783 0,3.331 -1.075,6.557 -5.374,6.557 -3.011,0 -5.751,-1.399 -7.794,-2.796 l -1.72,3.064 c 2.419,1.559 6.075,3.386 10.266,3.386 6.395,0 9.083,-4.246 9.083,-10.749 V -6.395 H 0.806 L 0.43,-3.278 H 0.269 C -2.203,-5.32 -5.105,-7.04 -8.385,-7.04 c -4.352,0 -7.632,2.742 -7.632,7.416"
             style="fill:#003363;fill-opacity:1;fill-rule:nonzero;stroke:none"
             id="path56" />
        </g>
        <g
           id="g58"
           transform="translate(425.3945,170.8799)">
          <path
             d="M 0,0 H 10.588 L 8.922,5.375 C 7.632,9.298 6.504,13.168 5.374,17.252 H 5.16 C 4.084,13.168 2.956,9.298 1.666,5.375 Z M 2.849,20.908 H 7.9 L 19.832,-14.349 H 15.049 L 11.716,-3.6 H -1.128 l -3.387,-10.749 h -4.568 z"
             style="fill:#003363;fill-opacity:1;fill-rule:nonzero;stroke:none"
             id="path60" />
        </g>
        <g
           id="g62"
           transform="translate(463.0732,173.9971)">
          <path
             d="m 0,0 c 0,3.816 -2.473,6.073 -5.536,6.073 -3.064,0 -5.535,-2.257 -5.535,-6.073 0,-3.816 2.525,-6.233 5.535,-6.233 C -2.526,-6.233 0,-3.816 0,0 m 3.386,-21.121 c 0,2.418 -1.882,3.225 -5.267,3.225 h -4.515 c -1.021,0 -2.257,0.107 -3.386,0.43 -1.881,-1.343 -2.688,-2.902 -2.688,-4.407 0,-2.795 2.849,-4.569 7.578,-4.569 4.998,0 8.278,2.58 8.278,5.321 m -19.725,-1.344 c 0,2.203 1.451,4.3 3.816,5.913 v 0.214 c -1.29,0.806 -2.311,2.203 -2.311,4.246 0,2.203 1.505,3.924 2.849,4.837 v 0.215 c -1.72,1.397 -3.387,3.923 -3.387,7.04 0,5.697 4.516,9.298 9.836,9.298 1.451,0 2.74,-0.268 3.708,-0.644 H 7.255 V 5.268 H 1.881 C 3.117,4.086 4.03,2.097 4.03,-0.106 c 0,-5.591 -4.246,-9.084 -9.566,-9.084 -1.29,0 -2.741,0.322 -3.924,0.914 -0.913,-0.807 -1.666,-1.666 -1.666,-3.118 0,-1.666 1.075,-2.847 4.622,-2.847 h 5.052 c 6.074,0 9.138,-1.883 9.138,-6.235 0,-4.836 -5.107,-9.03 -13.222,-9.03 -6.396,0 -10.803,2.527 -10.803,7.041"
             style="fill:#003363;fill-opacity:1;fill-rule:nonzero;stroke:none"
             id="path64" />
        </g>
        <g
           id="g66"
           transform="translate(491.0762,171.686)">
          <path
             d="m 0,0 c 0,5.268 -2.364,8.116 -6.449,8.116 -3.655,0 -6.987,-2.956 -7.524,-8.116 z m -18.272,-2.149 c 0,8.546 5.75,13.758 11.715,13.758 6.665,0 10.427,-4.783 10.427,-12.254 0,-0.914 -0.054,-1.88 -0.161,-2.525 H -13.92 c 0.323,-5.536 3.709,-9.084 8.707,-9.084 2.473,0 4.568,0.807 6.504,2.043 l 1.559,-2.902 c -2.258,-1.452 -5.053,-2.687 -8.6,-2.687 -6.987,0 -12.522,5.105 -12.522,13.651"
             style="fill:#003363;fill-opacity:1;fill-rule:nonzero;stroke:none"
             id="path68" />
        </g>
        <g
           id="g70"
           transform="translate(500.3232,182.6509)">
          <path
             d="M 0,0 H 3.654 L 4.03,-3.763 h 0.161 c 2.473,2.473 5.161,4.408 8.761,4.408 5.482,0 7.954,-3.548 7.954,-10.211 V -26.12 h -4.407 v 15.962 c 0,4.89 -1.505,6.987 -4.944,6.987 -2.687,0 -4.515,-1.397 -7.149,-4.03 V -26.12 l -4.406,0 z"
             style="fill:#003363;fill-opacity:1;fill-rule:nonzero;stroke:none"
             id="path72" />
        </g>
        <g
           id="g74"
           transform="translate(526.7148,169.5371)">
          <path
             d="m 0,0 c 0,8.76 5.858,13.758 12.576,13.758 3.44,0 5.805,-1.397 7.632,-3.063 L 17.951,7.793 C 16.446,9.136 14.834,10.104 12.737,10.104 8.008,10.104 4.568,6.019 4.568,0 c 0,-5.965 3.279,-9.997 8.062,-9.997 2.419,0 4.515,1.183 6.127,2.633 l 1.935,-2.955 c -2.365,-2.097 -5.32,-3.332 -8.438,-3.332 C 5.321,-13.651 0,-8.652 0,0"
             style="fill:#003363;fill-opacity:1;fill-rule:nonzero;stroke:none"
             id="path76" />
        </g>
        <path
           d="m 552.085,182.651 h 4.407 v -26.12 h -4.407 z m -0.806,8.222 c 0,1.721 1.344,2.849 3.064,2.849 1.719,0 3.063,-1.128 3.063,-2.849 0,-1.665 -1.344,-2.848 -3.063,-2.848 -1.72,0 -3.064,1.183 -3.064,2.848"
           style="fill:#003363;fill-opacity:1;fill-rule:nonzero;stroke:none"
           id="path78" />
        <g
           id="g80"
           transform="translate(578.6367,162.9258)">
          <path
             d="M 0,0 V 7.255 C -8.708,6.181 -11.718,4.032 -11.718,0.699 c 0,-2.956 2.043,-4.193 4.622,-4.193 2.526,0 4.569,1.237 7.096,3.494 m -16.018,0.376 c 0,5.697 4.893,8.546 16.018,9.783 0,3.331 -1.076,6.557 -5.375,6.557 -3.011,0 -5.75,-1.399 -7.793,-2.796 l -1.721,3.064 c 2.419,1.559 6.075,3.386 10.267,3.386 6.394,0 9.082,-4.246 9.082,-10.749 V -6.395 H 0.805 L 0.429,-3.278 H 0.269 C -2.205,-5.32 -5.106,-7.04 -8.386,-7.04 c -4.352,0 -7.632,2.742 -7.632,7.416"
             style="fill:#003363;fill-opacity:1;fill-rule:nonzero;stroke:none"
             id="path82" />
        </g>
        <g
           id="g84"
           transform="translate(600.3535,191.7876)">
          <path
             d="M 0,0 H 20.314 V -3.762 H 4.46 v -11.932 h 13.436 v -3.762 H 4.46 V -35.257 H 0 Z"
             style="fill:#003363;fill-opacity:1;fill-rule:nonzero;stroke:none"
             id="path86" />
        </g>
        <g
           id="g88"
           transform="translate(641.7383,171.686)">
          <path
             d="m 0,0 c 0,5.268 -2.364,8.116 -6.449,8.116 -3.655,0 -6.987,-2.956 -7.524,-8.116 z m -18.272,-2.149 c 0,8.546 5.751,13.758 11.715,13.758 6.665,0 10.427,-4.783 10.427,-12.254 0,-0.914 -0.054,-1.88 -0.162,-2.525 H -13.92 c 0.323,-5.536 3.709,-9.084 8.708,-9.084 2.471,0 4.567,0.807 6.503,2.043 l 1.559,-2.902 c -2.259,-1.452 -5.053,-2.687 -8.6,-2.687 -6.987,0 -12.522,5.105 -12.522,13.651"
             style="fill:#003363;fill-opacity:1;fill-rule:nonzero;stroke:none"
             id="path90" />
        </g>
        <g
           id="g92"
           transform="translate(667.5381,163.1958)">
          <path
             d="m 0,0 v 13.65 c -2.203,1.989 -4.191,2.742 -6.341,2.742 -4.192,0 -7.524,-4.032 -7.524,-9.997 0,-6.235 2.634,-9.997 7.202,-9.997 2.419,0 4.514,1.183 6.663,3.602 m -18.434,6.341 c 0,8.492 5.375,13.759 11.34,13.759 3.01,0 4.999,-1.129 7.31,-3.01 L 0,21.55 V 31.601 H 4.462 V -6.665 H 0.807 L 0.431,-3.602 H 0.27 C -1.772,-5.59 -4.568,-7.31 -7.632,-7.31 c -6.556,0 -10.802,4.945 -10.802,13.651"
             style="fill:#003363;fill-opacity:1;fill-rule:nonzero;stroke:none"
             id="path94" />
        </g>
        <g
           id="g96"
           transform="translate(696.0801,171.686)">
          <path
             d="m 0,0 c 0,5.268 -2.364,8.116 -6.449,8.116 -3.655,0 -6.987,-2.956 -7.524,-8.116 z m -18.272,-2.149 c 0,8.546 5.751,13.758 11.715,13.758 6.665,0 10.427,-4.783 10.427,-12.254 0,-0.914 -0.054,-1.88 -0.162,-2.525 H -13.92 c 0.323,-5.536 3.709,-9.084 8.708,-9.084 2.471,0 4.567,0.807 6.503,2.043 l 1.559,-2.902 c -2.259,-1.452 -5.053,-2.687 -8.6,-2.687 -6.987,0 -12.522,5.105 -12.522,13.651"
             style="fill:#003363;fill-opacity:1;fill-rule:nonzero;stroke:none"
             id="path98" />
        </g>
        <g
           id="g100"
           transform="translate(705.3262,182.6509)">
          <path
             d="m 0,0 h 3.655 l 0.377,-4.73 h 0.16 c 1.775,3.278 4.462,5.375 7.417,5.375 1.129,0 1.935,-0.162 2.795,-0.539 l -0.86,-3.869 c -0.859,0.269 -1.45,0.43 -2.526,0.43 -2.204,0 -4.837,-1.611 -6.61,-6.019 V -26.12 H 0 Z"
             style="fill:#003363;fill-opacity:1;fill-rule:nonzero;stroke:none"
             id="path102" />
        </g>
        <g
           id="g104"
           transform="translate(737.3066,162.9258)">
          <path
             d="M 0,0 V 7.255 C -8.708,6.181 -11.717,4.032 -11.717,0.699 c 0,-2.956 2.042,-4.193 4.622,-4.193 2.526,0 4.569,1.237 7.095,3.494 m -16.017,0.376 c 0,5.697 4.892,8.546 16.017,9.783 0,3.331 -1.076,6.557 -5.374,6.557 -3.012,0 -5.751,-1.399 -7.794,-2.796 l -1.721,3.064 c 2.419,1.559 6.075,3.386 10.267,3.386 6.395,0 9.082,-4.246 9.082,-10.749 V -6.395 H 0.805 L 0.429,-3.278 H 0.269 C -2.204,-5.32 -5.106,-7.04 -8.386,-7.04 c -4.352,0 -7.631,2.742 -7.631,7.416"
             style="fill:#003363;fill-opacity:1;fill-rule:nonzero;stroke:none"
             id="path106" />
        </g>
        <g
           id="g108"
           transform="translate(748.9189,161.7974)">
          <path
             d="M 0,0 V 33 H 4.406 V -0.322 c 0,-1.397 0.592,-1.935 1.237,-1.935 0.268,0 0.484,0 0.966,0.108 L 7.201,-5.481 C 6.609,-5.751 5.857,-5.911 4.675,-5.911 1.343,-5.911 0,-3.816 0,0"
             style="fill:#003363;fill-opacity:1;fill-rule:nonzero;stroke:none"
             id="path110" />
        </g>
        <g
           id="g112"
           transform="translate(378.5332,103.4722)">
          <path
             d="m 0,0 v 13.65 c -2.203,1.989 -4.192,2.742 -6.342,2.742 -4.192,0 -7.524,-4.032 -7.524,-9.997 0,-6.235 2.634,-9.997 7.202,-9.997 2.419,0 4.515,1.183 6.664,3.602 m -18.434,6.341 c 0,8.492 5.374,13.759 11.339,13.759 3.011,0 4.999,-1.129 7.31,-3.01 L 0,21.55 V 31.601 H 4.461 V -6.665 H 0.807 L 0.431,-3.602 H 0.27 C -1.773,-5.59 -4.568,-7.31 -7.632,-7.31 c -6.556,0 -10.802,4.945 -10.802,13.651"
             style="fill:#003363;fill-opacity:1;fill-rule:nonzero;stroke:none"
             id="path114" />
        </g>
        <g
           id="g116"
           transform="translate(407.0752,111.9624)">
          <path
             d="m 0,0 c 0,5.268 -2.364,8.116 -6.449,8.116 -3.655,0 -6.988,-2.956 -7.525,-8.116 z m -18.273,-2.149 c 0,8.545 5.751,13.758 11.716,13.758 6.664,0 10.426,-4.784 10.426,-12.254 0,-0.914 -0.054,-1.88 -0.161,-2.525 H -13.92 c 0.322,-5.536 3.708,-9.084 8.707,-9.084 2.472,0 4.568,0.807 6.503,2.043 l 1.559,-2.902 C 0.591,-14.565 -2.203,-15.8 -5.75,-15.8 c -6.987,0 -12.523,5.105 -12.523,13.651"
             style="fill:#003363;fill-opacity:1;fill-rule:nonzero;stroke:none"
             id="path118" />
        </g>
        <g
           id="g120"
           transform="translate(436.1543,114.4355)">
          <path
             d="m 0,0 c 6.127,0 9.083,2.257 9.083,7.255 0,5.107 -3.117,6.772 -9.298,6.772 H -5.268 V 0 Z m -9.728,17.628 h 10.05 c 7.901,0 13.222,-2.633 13.222,-10.373 0,-7.417 -5.268,-10.911 -13.007,-10.911 h -5.805 v -13.972 h -4.46 z"
             style="fill:#003363;fill-opacity:1;fill-rule:nonzero;stroke:none"
             id="path122" />
        </g>
        <g
           id="g124"
           transform="translate(471.6826,111.9624)">
          <path
             d="m 0,0 c 0,5.268 -2.364,8.116 -6.449,8.116 -3.655,0 -6.987,-2.956 -7.525,-8.116 z m -18.273,-2.149 c 0,8.545 5.751,13.758 11.716,13.758 6.664,0 10.426,-4.784 10.426,-12.254 0,-0.914 -0.054,-1.88 -0.161,-2.525 H -13.92 c 0.323,-5.536 3.709,-9.084 8.707,-9.084 2.472,0 4.568,0.807 6.503,2.043 l 1.559,-2.902 C 0.591,-14.565 -2.203,-15.8 -5.75,-15.8 c -6.987,0 -12.523,5.105 -12.523,13.651"
             style="fill:#003363;fill-opacity:1;fill-rule:nonzero;stroke:none"
             id="path126" />
        </g>
        <g
           id="g128"
           transform="translate(497.4824,103.4722)">
          <path
             d="m 0,0 v 13.65 c -2.203,1.989 -4.191,2.742 -6.341,2.742 -4.193,0 -7.524,-4.032 -7.524,-9.997 0,-6.235 2.633,-9.997 7.201,-9.997 2.419,0 4.515,1.183 6.664,3.602 m 0,-8.384 0.215,4.728 c -2.096,-2.042 -4.837,-3.654 -7.847,-3.654 -6.556,0 -10.802,4.945 -10.802,13.651 0,8.492 5.374,13.759 11.34,13.759 3.01,0 5.106,-1.075 7.47,-3.118 h 0.108 l 0.43,2.473 H 4.461 V -17.683 H 0 Z"
             style="fill:#003363;fill-opacity:1;fill-rule:nonzero;stroke:none"
             id="path130" />
        </g>
        <g
           id="g132"
           transform="translate(509.3096,106.3735)">
          <path
             d="M 0,0 V 16.554 H 4.462 V 0.59 c 0,-4.89 1.45,-6.985 4.89,-6.985 2.687,0 4.568,1.343 7.041,4.406 V 16.554 H 20.8 v -26.12 h -3.655 l -0.376,4.084 H 16.607 C 14.189,-8.33 11.609,-10.211 8.009,-10.211 2.473,-10.211 0,-6.665 0,0"
             style="fill:#003363;fill-opacity:1;fill-rule:nonzero;stroke:none"
             id="path134" />
        </g>
        <g
           id="g136"
           transform="translate(554.1895,111.9624)">
          <path
             d="m 0,0 c 0,5.268 -2.364,8.116 -6.449,8.116 -3.655,0 -6.987,-2.956 -7.524,-8.116 z m -18.272,-2.149 c 0,8.545 5.75,13.758 11.715,13.758 6.665,0 10.427,-4.784 10.427,-12.254 0,-0.914 -0.054,-1.88 -0.161,-2.525 H -13.92 c 0.323,-5.536 3.709,-9.084 8.707,-9.084 2.473,0 4.568,0.807 6.503,2.043 l 1.56,-2.902 c -2.258,-1.452 -5.053,-2.687 -8.6,-2.687 -6.987,0 -12.522,5.105 -12.522,13.651"
             style="fill:#003363;fill-opacity:1;fill-rule:nonzero;stroke:none"
             id="path138" />
        </g>
        <g
           id="g140"
           transform="translate(570.9062,132.332)">
          <path
             d="m 0,0 c -1.612,0 -2.364,-1.719 -2.525,-4.246 l -2.956,0.162 c 0.161,4.192 1.719,7.31 5.427,7.31 3.817,0 5.214,-4.517 7.74,-4.517 1.558,0 2.311,1.775 2.472,4.247 L 13.114,2.741 C 12.953,-1.397 11.394,-4.514 7.686,-4.514 3.87,-4.514 2.473,0 0,0 m -7.47,-9.405 h 3.655 l 0.376,-3.763 h 0.161 c 2.472,2.473 5.159,4.408 8.76,4.408 5.482,0 7.955,-3.548 7.955,-10.211 V -35.525 H 9.029 v 15.962 c 0,4.89 -1.505,6.987 -4.944,6.987 -2.687,0 -4.515,-1.397 -7.148,-4.03 V -35.525 H -7.47 Z"
             style="fill:#003363;fill-opacity:1;fill-rule:nonzero;stroke:none"
             id="path142" />
        </g>
        <g
           id="g144"
           transform="translate(609.4453,109.813)">
          <path
             d="m 0,0 c 0,6.019 -3.01,10.105 -7.524,10.105 -4.461,0 -7.525,-4.086 -7.525,-10.105 0,-5.965 3.064,-9.997 7.525,-9.997 C -3.01,-9.997 0,-5.965 0,0 m -19.617,0 c 0,8.76 5.697,13.759 12.093,13.759 6.395,0 12.093,-4.999 12.093,-13.759 0,-8.652 -5.698,-13.65 -12.093,-13.65 -6.396,0 -12.093,4.998 -12.093,13.65"
             style="fill:#003363;fill-opacity:1;fill-rule:nonzero;stroke:none"
             id="path146" />
        </g>
        <g
           id="g148"
           transform="translate(616.9189,99.7627)">
          <path
             d="m 0,0 2.203,2.957 c 2.258,-1.829 4.568,-3.118 7.686,-3.118 3.44,0 5.159,1.828 5.159,4.085 0,2.687 -3.116,3.869 -5.965,4.944 -3.708,1.344 -7.794,3.117 -7.794,7.524 0,4.192 3.333,7.417 8.977,7.417 3.277,0 6.127,-1.344 8.115,-2.955 l -2.097,-2.795 c -1.773,1.342 -3.654,2.311 -5.965,2.311 -3.279,0 -4.784,-1.774 -4.784,-3.763 0,-2.472 2.849,-3.385 5.805,-4.514 3.762,-1.398 7.954,-2.957 7.954,-7.901 C 19.294,-0.054 15.908,-3.6 9.728,-3.6 6.02,-3.6 2.472,-2.042 0,0"
             style="fill:#003363;fill-opacity:1;fill-rule:nonzero;stroke:none"
             id="path150" />
        </g>
        <g
           id="g152"
           transform="translate(651.3721,132.064)">
          <path
             d="m 0,0 h 4.623 l 12.737,-22.143 3.817,-7.309 h 0.214 c -0.214,3.547 -0.537,7.523 -0.537,11.231 V 0 h 4.245 V -35.257 H 20.478 L 7.687,-13.061 3.87,-5.805 H 3.656 c 0.268,-3.548 0.59,-7.309 0.59,-11.017 V -35.257 H 0 Z"
             style="fill:#003363;fill-opacity:1;fill-rule:nonzero;stroke:none"
             id="path154" />
        </g>
        <g
           id="g156"
           transform="translate(700.9814,111.9624)">
          <path
             d="m 0,0 c 0,5.268 -2.363,8.116 -6.449,8.116 -3.655,0 -6.986,-2.956 -7.524,-8.116 z m -18.273,-2.149 c 0,8.545 5.751,13.758 11.717,13.758 6.663,0 10.426,-4.784 10.426,-12.254 0,-0.914 -0.055,-1.88 -0.161,-2.525 h -17.628 c 0.322,-5.536 3.708,-9.084 8.706,-9.084 2.473,0 4.568,0.807 6.503,2.043 l 1.559,-2.902 c -2.257,-1.452 -5.052,-2.687 -8.598,-2.687 -6.987,0 -12.524,5.105 -12.524,13.651"
             style="fill:#003363;fill-opacity:1;fill-rule:nonzero;stroke:none"
             id="path158" />
        </g>
        <g
           id="g160"
           transform="translate(724.5791,114.2734)">
          <path
             d="m 0,0 c 0,3.816 -2.473,6.073 -5.536,6.073 -3.064,0 -5.535,-2.257 -5.535,-6.073 0,-3.816 2.525,-6.233 5.535,-6.233 C -2.526,-6.233 0,-3.816 0,0 m 3.386,-21.121 c 0,2.418 -1.881,3.225 -5.267,3.225 h -4.515 c -1.021,0 -2.257,0.107 -3.386,0.43 -1.881,-1.344 -2.688,-2.902 -2.688,-4.407 0,-2.795 2.85,-4.569 7.578,-4.569 4.998,0 8.278,2.58 8.278,5.321 m -19.725,-1.344 c 0,2.203 1.452,4.3 3.816,5.913 v 0.214 c -1.29,0.806 -2.312,2.203 -2.312,4.246 0,2.203 1.507,3.924 2.85,4.837 v 0.215 c -1.719,1.397 -3.386,3.923 -3.386,7.04 0,5.697 4.515,9.298 9.835,9.298 1.45,0 2.741,-0.268 3.708,-0.644 H 7.256 V 5.268 H 1.881 C 3.117,4.085 4.03,2.097 4.03,-0.106 c 0,-5.591 -4.246,-9.084 -9.566,-9.084 -1.289,0 -2.741,0.322 -3.924,0.914 -0.913,-0.807 -1.665,-1.667 -1.665,-3.118 0,-1.666 1.074,-2.847 4.622,-2.847 h 5.051 c 6.074,0 9.138,-1.883 9.138,-6.235 0,-4.836 -5.107,-9.03 -13.222,-9.03 -6.396,0 -10.803,2.527 -10.803,7.041"
             style="fill:#003363;fill-opacity:1;fill-rule:nonzero;stroke:none"
             id="path162" />
        </g>
        <g
           id="g164"
           transform="translate(753.9268,109.813)">
          <path
             d="m 0,0 c 0,6.019 -3.01,10.105 -7.524,10.105 -4.462,0 -7.526,-4.086 -7.526,-10.105 0,-5.965 3.064,-9.997 7.526,-9.997 C -3.01,-9.997 0,-5.965 0,0 m -19.617,0 c 0,8.76 5.696,13.759 12.093,13.759 6.395,0 12.091,-4.999 12.091,-13.759 0,-8.652 -5.696,-13.65 -12.091,-13.65 -6.397,0 -12.093,4.998 -12.093,13.65"
             style="fill:#003363;fill-opacity:1;fill-rule:nonzero;stroke:none"
             id="path166" />
        </g>
        <g
           id="g168"
           transform="translate(762.3672,109.813)">
          <path
             d="m 0,0 c 0,8.76 5.858,13.759 12.576,13.759 3.44,0 5.805,-1.397 7.632,-3.064 L 17.951,7.794 c -1.505,1.343 -3.118,2.311 -5.213,2.311 -4.73,0 -8.17,-4.086 -8.17,-10.105 0,-5.965 3.28,-9.997 8.062,-9.997 2.419,0 4.515,1.183 6.127,2.634 l 1.935,-2.956 C 18.327,-12.416 15.371,-13.65 12.254,-13.65 5.32,-13.65 0,-8.652 0,0"
             style="fill:#003363;fill-opacity:1;fill-rule:nonzero;stroke:none"
             id="path170" />
        </g>
        <path
           d="m 787.736,122.927 h 4.408 v -26.12 h -4.408 z m -0.805,8.222 c 0,1.721 1.343,2.85 3.063,2.85 1.721,0 3.064,-1.129 3.064,-2.85 0,-1.665 -1.343,-2.847 -3.064,-2.847 -1.72,0 -3.063,1.182 -3.063,2.847"
           style="fill:#003363;fill-opacity:1;fill-rule:nonzero;stroke:none"
           id="path172" />
        <g
           id="g174"
           transform="translate(817.5664,109.813)">
          <path
             d="m 0,0 c 0,6.019 -3.01,10.105 -7.523,10.105 -4.462,0 -7.526,-4.086 -7.526,-10.105 0,-5.965 3.064,-9.997 7.526,-9.997 C -3.01,-9.997 0,-5.965 0,0 m -19.617,0 c 0,8.76 5.697,13.759 12.094,13.759 6.394,0 12.091,-4.999 12.091,-13.759 0,-8.652 -5.697,-13.65 -12.091,-13.65 -6.397,0 -12.094,4.998 -12.094,13.65"
             style="fill:#003363;fill-opacity:1;fill-rule:nonzero;stroke:none"
             id="path176" />
        </g>
        <g
           id="g178"
           transform="translate(825.041,99.7627)">
          <path
             d="m 0,0 2.203,2.957 c 2.257,-1.829 4.568,-3.118 7.686,-3.118 3.439,0 5.16,1.828 5.16,4.085 0,2.687 -3.117,3.869 -5.967,4.944 -3.708,1.344 -7.793,3.117 -7.793,7.524 0,4.192 3.333,7.417 8.976,7.417 3.279,0 6.127,-1.344 8.116,-2.955 l -2.097,-2.795 c -1.773,1.342 -3.654,2.311 -5.966,2.311 -3.279,0 -4.784,-1.774 -4.784,-3.763 0,-2.472 2.85,-3.385 5.805,-4.514 3.764,-1.398 7.956,-2.957 7.956,-7.901 C 19.295,-0.054 15.907,-3.6 9.727,-3.6 6.019,-3.6 2.471,-2.042 0,0"
             style="fill:#003363;fill-opacity:1;fill-rule:nonzero;stroke:none"
             id="path180" />
        </g>
      </g>
    </g>
  </g>
</svg>
