<svg width="97" height="83" viewBox="0 0 97 83" fill="none" xmlns="http://www.w3.org/2000/svg">
    <g id="Page-Templates">
        <g id="open-icon">
            <g id="Business Guide Icon Launch color">
                <path id="Shape" d="M48.5 9.27002L18.7 34.42" stroke="#002E6D" stroke-width="3" stroke-linecap="round"
                      stroke-linejoin="round"/>
                <path id="Shape_2" d="M48.5 9.27002L77.37 46.53" stroke="#002E6D" stroke-width="3"
                      stroke-linecap="round" stroke-linejoin="round"/>
                <path id="Rectangle-path"
                      d="M6.62004 31.7836L2.32935 72.5383L81.0642 80.8276L85.3549 40.0728L6.62004 31.7836Z"
                      fill="#EBEBEB"/>
                <path id="Shape_3"
                      d="M80.3601 80.0001L4.07011 72.0001C3.73189 71.9492 3.42369 71.7771 3.20292 71.5159C2.98216 71.2546 2.86388 70.9221 2.87011 70.5801L6.87011 32.7301C6.92561 32.3911 7.1021 32.0838 7.36688 31.8649C7.63165 31.6461 7.96675 31.5307 8.31011 31.5401L84.6001 39.5401C84.9362 39.6027 85.2381 39.7852 85.4497 40.0538C85.6612 40.3224 85.768 40.6587 85.7501 41.0001L81.7501 79.0001C81.6914 79.3135 81.5143 79.5923 81.2554 79.7785C80.9966 79.9648 80.6759 80.0441 80.3601 80.0001Z"
                      fill="white"/>
                <path id="Rectangle-path_2"
                      d="M6.62004 31.7836L2.32935 72.5383L81.0642 80.8276L85.3549 40.0728L6.62004 31.7836Z"
                      stroke="#002E6D" stroke-width="3" stroke-linecap="round" stroke-linejoin="round"/>
                <g id="Group">
                    <path id="Shape_4"
                          d="M17 53.4C17.48 48.7 20.36 46.4 24.32 46.77C28.28 47.14 30.56 50.14 30.08 54.77C29.6 59.4 26.72 61.88 22.76 61.52C18.8 61.16 16.47 58.1 17 53.4ZM26.36 54.4C26.6 51.87 25.76 50.3 24.08 50.06C22.4 49.82 21.2 51.27 20.96 53.8C20.72 56.33 21.56 58.14 23.24 58.26C24.92 58.38 26 57 26.32 54.36L26.36 54.4Z"
                          fill="#007DBC"/>
                    <path id="Shape_5"
                          d="M33.4001 48.0901L38.8 48.6901C41.8 49.0501 44.32 50.3801 43.96 53.9901C43.6 57.6001 40.72 58.6901 37.84 58.3301L36 58.1001L35.5201 62.5601L31.8 62.2001L33.4001 48.0901ZM38 55.3301C39.44 55.4501 40.2801 54.8501 40.4001 53.5201C40.5201 52.1901 39.8001 51.7101 38.4001 51.5901L36.84 51.4701L36.48 55.2101L38 55.3301Z"
                          fill="#007DBC"/>
                    <path id="Shape_6"
                          d="M46.7199 49.54L55.8499 50.51L55.4899 53.64L50.0899 53.04L49.8399 55.21L54.4099 55.69L54.0499 58.82L49.4799 58.34L49.2399 60.87L54.8899 61.47L54.5299 64.61L45.1599 63.64L46.7199 49.54Z"
                          fill="#007DBC"/>
                    <path id="Shape_7"
                          d="M58.73 50.75L62.57 51.11L65 57.74L66 61.11H66.12C66.0415 59.3027 66.0816 57.4921 66.24 55.69L66.72 51.59L70.32 51.95L68.88 66.05L65 65.69L62.6 59.06L61.6 55.81H61.48C61.5599 57.6173 61.5198 59.428 61.36 61.23L60.88 65.33L57.29 65L58.73 50.75Z"
                          fill="#007DBC"/>
                </g>
                <path id="Oval"
                      d="M48.5 16.7201C52.6146 16.7201 55.9501 13.3846 55.9501 9.27007C55.9501 5.15555 52.6146 1.82007 48.5 1.82007C44.3855 1.82007 41.05 5.15555 41.05 9.27007C41.05 13.3846 44.3855 16.7201 48.5 16.7201Z"
                      fill="#EBEBEB"/>
                <path id="Oval_2"
                      d="M49.43 16.7201C53.5445 16.7201 56.88 13.3846 56.88 9.27007C56.88 5.15555 53.5445 1.82007 49.43 1.82007C45.3155 1.82007 41.98 5.15555 41.98 9.27007C41.98 13.3846 45.3155 16.7201 49.43 16.7201Z"
                      fill="white"/>
                <path id="Oval_3"
                      d="M52.1399 15.27C56.2599 15.27 56.2099 13.39 56.2099 9.27004C56.2099 5.15004 56.21 4.27004 53.15 3.14004C50.09 2.01004 45.7 5.14004 45.7 9.27004C45.7 13.4 47.9999 15.27 52.1399 15.27Z"
                      fill="#007DBC"/>
                <path id="Oval_4"
                      d="M48.5 16.7201C52.6146 16.7201 55.9501 13.3846 55.9501 9.27007C55.9501 5.15555 52.6146 1.82007 48.5 1.82007C44.3855 1.82007 41.05 5.15555 41.05 9.27007C41.05 13.3846 44.3855 16.7201 48.5 16.7201Z"
                      stroke="#002E6D" stroke-width="3" stroke-linecap="round" stroke-linejoin="round"/>
                <path id="Shape_8" d="M7.52 24.24C7.52 24.24 1.7 23.16 1 29.76" stroke="#002E6D" stroke-width="2"
                      stroke-linecap="round" stroke-linejoin="round"/>
                <path id="Shape_9" d="M96 40.0001C96 40.0001 95.77 33.8401 89.48 34.4601" stroke="#002E6D"
                      stroke-width="2" stroke-linecap="round" stroke-linejoin="round"/>
            </g>
        </g>
    </g>
</svg>
