<svg width="24" height="20" viewBox="0 0 24 20" fill="none" xmlns="http://www.w3.org/2000/svg">
<g id="logo">
<path id="Fill 1" fill-rule="evenodd" clip-rule="evenodd" d="M19.9646 17.9484H4.05009V15.6816H2.6983V19.3H19.9646V17.9484Z" fill="#002E6D"/>
<path id="Fill 2" fill-rule="evenodd" clip-rule="evenodd" d="M2.72174 4.31857H4.07353V2.05179H19.9802V4.31857H21.332V0.700195H2.72174V4.31857Z" fill="#002E6D"/>
<path id="Fill 4" fill-rule="evenodd" clip-rule="evenodd" d="M1.63239 11.6681C1.64379 12.1387 1.87059 13.0337 3.35538 13.0337C4.16017 13.0337 5.05577 12.8335 5.05577 11.9383C5.05577 11.2789 4.44377 11.1027 3.58238 10.8907L2.70958 10.6783C1.39419 10.3605 0.124799 10.0547 0.124799 8.19416C0.124799 7.25236 0.612196 5.59277 3.25338 5.59277C5.74716 5.59277 6.41596 7.28756 6.42756 8.32375H4.79517C4.74957 7.94716 4.61377 7.05236 3.12858 7.05236C2.48238 7.05236 1.71199 7.29976 1.71199 8.06476C1.71199 8.72415 2.23319 8.86575 2.57318 8.94775L4.55697 9.45455C5.66796 9.73695 6.68816 10.2075 6.68816 11.7261C6.68816 14.2697 4.19397 14.4933 3.48018 14.4933C0.510396 14.4933 0 12.7157 0 11.6681H1.63239Z" fill="#002E6D"/>
<path id="Fill 8" fill-rule="evenodd" clip-rule="evenodd" d="M21.308 17.9399L19.9642 19.2995V14.293H21.308V17.9399Z" fill="#002E6D"/>
<path id="Fill 1_2" fill-rule="evenodd" clip-rule="evenodd" d="M19.9646 17.9484H4.05009V15.6816H2.6983V19.3H19.9646V17.9484Z" fill="#B8252B"/>
<g id="Group 5">
<path id="Fill 2_2" fill-rule="evenodd" clip-rule="evenodd" d="M2.72174 4.31857H4.07353V2.05179H19.9802V4.31857H21.332V0.700195H2.72174V4.31857Z" fill="#002E6D"/>
<path id="Fill 4_2" fill-rule="evenodd" clip-rule="evenodd" d="M1.63239 11.6681C1.64379 12.1387 1.87059 13.0337 3.35538 13.0337C4.16017 13.0337 5.05577 12.8335 5.05577 11.9383C5.05577 11.2789 4.44377 11.1027 3.58238 10.8907L2.70958 10.6783C1.39419 10.3605 0.124799 10.0547 0.124799 8.19416C0.124799 7.25236 0.612196 5.59277 3.25338 5.59277C5.74716 5.59277 6.41596 7.28756 6.42756 8.32375H4.79517C4.74957 7.94716 4.61377 7.05236 3.12858 7.05236C2.48238 7.05236 1.71199 7.29976 1.71199 8.06476C1.71199 8.72415 2.23319 8.86575 2.57318 8.94775L4.55697 9.45455C5.66796 9.73695 6.68816 10.2075 6.68816 11.7261C6.68816 14.2697 4.19397 14.4933 3.48018 14.4933C0.510396 14.4933 0 12.7157 0 11.6681H1.63239Z" fill="#002E6D"/>
</g>
<path id="Fill 6" fill-rule="evenodd" clip-rule="evenodd" d="M10.5339 12.8095H12.7002C13.5598 12.8095 14.0544 12.4327 14.0544 11.5729C14.0544 10.8317 13.4182 10.5483 12.7824 10.5483H10.5339V12.8095ZM10.5339 9.12459H12.6062C13.3006 9.12459 13.8544 8.85399 13.8544 8.1826C13.8544 7.4876 13.3596 7.2758 12.5588 7.2758H10.5339V9.12459ZM8.83881 5.81543H12.9474C15.0198 5.81543 15.5494 7.11062 15.5494 7.98201C15.5494 9.19421 14.8668 9.5362 14.5134 9.7124C15.5494 10.1012 15.8206 10.925 15.8206 11.7614C15.8206 12.4324 15.5378 13.0682 15.0906 13.5038C14.6078 13.9744 14.1484 14.269 12.418 14.269H8.83881V5.81543Z" fill="#002E6D"/>
<path id="Fill 7" fill-rule="evenodd" clip-rule="evenodd" d="M21.3186 5.81348H19.9774L17.2924 14.2724H18.9876L20.6328 8.71906L22.305 14.2724H24.0002L21.3186 5.81348Z" fill="#002E6D"/>
<path id="Fill 8_2" fill-rule="evenodd" clip-rule="evenodd" d="M21.308 17.9399L19.9642 19.2995V14.293H21.308V17.9399Z" fill="#002E6D"/>
</g>
</svg>
