<svg width="98" height="83" viewBox="0 0 98 83" fill="none" xmlns="http://www.w3.org/2000/svg">
<g id="Page-Templates">
<g id="open-icon">
<g id="Business Guide Icon Launch color">
<path id="Shape" d="M49.5 9.27002L19.7 34.42" stroke="#002E6D" stroke-width="3" stroke-linecap="round" stroke-linejoin="round"/>
<path id="Shape_2" d="M49.5 9.27002L78.37 46.53" stroke="#002E6D" stroke-width="3" stroke-linecap="round" stroke-linejoin="round"/>
<path id="Rectangle-path" d="M7.62004 31.7836L3.32935 72.5383L82.0642 80.8276L86.3549 40.0728L7.62004 31.7836Z" fill="#EBEBEB"/>
<path id="Shape_3" d="M87.08 79.9882L3.31779 72.0662C2.94644 72.0158 2.60806 71.8454 2.36567 71.5867C2.12328 71.328 1.99341 70.9987 2.00026 70.66L6.39203 33.1789C6.45298 32.8433 6.64675 32.5389 6.93746 32.3222C7.22816 32.1056 7.59609 31.9913 7.97307 32.0005L91.7352 39.9226C92.1043 39.9845 92.4358 40.1653 92.668 40.4313C92.9003 40.6972 93.0175 41.0302 92.9979 41.3683L88.6061 78.998C88.5417 79.3084 88.3472 79.5844 88.063 79.7688C87.7788 79.9533 87.4267 80.0318 87.08 79.9882Z" fill="white"/>
<path id="Rectangle-path_2" d="M6.50016 31.7836L2.20947 72.5383L89.7093 80.8275L94 40.0727L6.50016 31.7836Z" stroke="#002E6D" stroke-width="3" stroke-linecap="round" stroke-linejoin="round"/>
<path id="Oval" d="M49.5 16.7201C53.6146 16.7201 56.9501 13.3846 56.9501 9.27007C56.9501 5.15555 53.6146 1.82007 49.5 1.82007C45.3855 1.82007 42.05 5.15555 42.05 9.27007C42.05 13.3846 45.3855 16.7201 49.5 16.7201Z" fill="#EBEBEB"/>
<path id="Oval_2" d="M50.43 16.7201C54.5445 16.7201 57.88 13.3846 57.88 9.27007C57.88 5.15555 54.5445 1.82007 50.43 1.82007C46.3155 1.82007 42.98 5.15555 42.98 9.27007C42.98 13.3846 46.3155 16.7201 50.43 16.7201Z" fill="white"/>
<path id="Oval_3" d="M53.1399 15.27C57.2599 15.27 57.2099 13.39 57.2099 9.27004C57.2099 5.15004 57.21 4.27004 54.15 3.14004C51.09 2.01004 46.7 5.14004 46.7 9.27004C46.7 13.4 48.9999 15.27 53.1399 15.27Z" fill="#007DBC"/>
<path id="Oval_4" d="M49.5 16.7201C53.6146 16.7201 56.9501 13.3846 56.9501 9.27007C56.9501 5.15555 53.6146 1.82007 49.5 1.82007C45.3855 1.82007 42.05 5.15555 42.05 9.27007C42.05 13.3846 45.3855 16.7201 49.5 16.7201Z" stroke="#002E6D" stroke-width="3" stroke-linecap="round" stroke-linejoin="round"/>
<path id="Shape_4" d="M8.52 24.24C8.52 24.24 2.7 23.16 2 29.76" stroke="#002E6D" stroke-width="2" stroke-linecap="round" stroke-linejoin="round"/>
<path id="Shape_5" d="M97 40.0001C97 40.0001 96.77 33.8401 90.48 34.4601" stroke="#002E6D" stroke-width="2" stroke-linecap="round" stroke-linejoin="round"/>
</g>
</g>
</g>
</svg>
